<ttFont>
    <TTGlyph name=".notdef" xMin="4" yMin="0" xMax="514" yMax="701">
      <contour>
        <pt x="259" y="302" on="1"/>
        <pt x="255" y="302" on="1"/>
        <pt x="155" y="93" on="1"/>
        <pt x="95" y="93" on="1"/>
        <pt x="229" y="353" on="1"/>
        <pt x="95" y="608" on="1"/>
        <pt x="155" y="608" on="1"/>
        <pt x="260" y="402" on="1"/>
        <pt x="264" y="402" on="1"/>
        <pt x="364" y="608" on="1"/>
        <pt x="424" y="608" on="1"/>
        <pt x="289" y="347" on="1"/>
        <pt x="424" y="93" on="1"/>
        <pt x="364" y="93" on="1"/>
      </contour>
      <contour>
        <pt x="59" y="649" on="1"/>
        <pt x="59" y="52" on="1"/>
        <pt x="459" y="52" on="1"/>
        <pt x="459" y="649" on="1"/>
      </contour>
      <contour>
        <pt x="4" y="0" on="1"/>
        <pt x="4" y="701" on="1"/>
        <pt x="514" y="701" on="1"/>
        <pt x="514" y="0" on="1"/>
      </contour>
    </TTGlyph>
    <TTGlyph name="A" xMin="11" yMin="0" xMax="612" yMax="680">
      <contour>
        <pt x="579" y="0" on="1"/>
        <pt x="375" y="0" on="1"/>
        <pt x="375" y="8" on="1"/>
        <pt x="375" y="49" on="0"/>
        <pt x="410" y="52" on="1"/>
        <pt x="451" y="54" on="1"/>
        <pt x="402" y="226" on="1"/>
        <pt x="199" y="226" on="1"/>
        <pt x="149" y="56" on="1"/>
        <pt x="227" y="50" on="1"/>
        <pt x="232" y="0" on="0"/>
        <pt x="194" y="0" on="1"/>
        <pt x="11" y="0" on="1"/>
        <pt x="11" y="8" on="1"/>
        <pt x="11" y="49" on="0"/>
        <pt x="46" y="52" on="1"/>
        <pt x="85" y="54" on="1"/>
        <pt x="278" y="680" on="1"/>
        <pt x="316" y="684" on="0"/>
        <pt x="354" y="680" on="1"/>
        <pt x="545" y="56" on="1"/>
        <pt x="612" y="50" on="1"/>
        <pt x="617" y="0" on="0"/>
      </contour>
      <contour>
        <pt x="215" y="281" on="1"/>
        <pt x="387" y="281" on="1"/>
        <pt x="302" y="576" on="1"/>
      </contour>
    </TTGlyph>
    <TTGlyph name="AE" xMin="11" yMin="0" xMax="837" yMax="681">
      <contour>
        <pt x="837" y="144" on="1"/>
        <pt x="837" y="0" on="1"/>
        <pt x="353" y="0" on="1"/>
        <pt x="353" y="8" on="1"/>
        <pt x="353" y="49" on="0"/>
        <pt x="388" y="52" on="1"/>
        <pt x="429" y="54" on="1"/>
        <pt x="429" y="306" on="1"/>
        <pt x="270" y="306" on="1"/>
        <pt x="150" y="56" on="1"/>
        <pt x="227" y="50" on="1"/>
        <pt x="232" y="0" on="0"/>
        <pt x="194" y="0" on="1"/>
        <pt x="11" y="0" on="1"/>
        <pt x="11" y="8" on="1"/>
        <pt x="11" y="49" on="0"/>
        <pt x="46" y="52" on="1"/>
        <pt x="85" y="54" on="1"/>
        <pt x="391" y="680" on="1"/>
        <pt x="817" y="681" on="1"/>
        <pt x="817" y="536" on="1"/>
        <pt x="817" y="501" on="0"/>
        <pt x="767" y="506" on="1"/>
        <pt x="757" y="621" on="1"/>
        <pt x="517" y="625" on="1"/>
        <pt x="517" y="364" on="1"/>
        <pt x="705" y="379" on="1"/>
        <pt x="713" y="343" on="0"/>
        <pt x="706" y="299" on="1"/>
        <pt x="517" y="310" on="1"/>
        <pt x="517" y="56" on="1"/>
        <pt x="777" y="63" on="1"/>
        <pt x="787" y="174" on="1"/>
        <pt x="837" y="179" on="0"/>
      </contour>
      <contour>
        <pt x="429" y="360" on="1"/>
        <pt x="429" y="624" on="1"/>
        <pt x="422" y="625" on="1"/>
        <pt x="296" y="360" on="1"/>
      </contour>
    </TTGlyph>
    <TTGlyph name="Aacute" xMin="11" yMin="0" xMax="612" yMax="893">
      <contour>
        <pt x="579" y="0" on="1"/>
        <pt x="375" y="0" on="1"/>
        <pt x="375" y="8" on="1"/>
        <pt x="375" y="49" on="0"/>
        <pt x="410" y="52" on="1"/>
        <pt x="451" y="54" on="1"/>
        <pt x="402" y="226" on="1"/>
        <pt x="199" y="226" on="1"/>
        <pt x="149" y="56" on="1"/>
        <pt x="227" y="50" on="1"/>
        <pt x="232" y="0" on="0"/>
        <pt x="194" y="0" on="1"/>
        <pt x="11" y="0" on="1"/>
        <pt x="11" y="8" on="1"/>
        <pt x="11" y="49" on="0"/>
        <pt x="46" y="52" on="1"/>
        <pt x="85" y="54" on="1"/>
        <pt x="278" y="680" on="1"/>
        <pt x="316" y="684" on="0"/>
        <pt x="354" y="680" on="1"/>
        <pt x="545" y="56" on="1"/>
        <pt x="612" y="50" on="1"/>
        <pt x="617" y="0" on="0"/>
      </contour>
      <contour>
        <pt x="215" y="281" on="1"/>
        <pt x="387" y="281" on="1"/>
        <pt x="302" y="576" on="1"/>
      </contour>
      <contour>
        <pt x="469" y="838" on="1"/>
        <pt x="268" y="730" on="1"/>
        <pt x="246" y="742" on="0"/>
        <pt x="235" y="763" on="1"/>
        <pt x="400" y="893" on="1"/>
        <pt x="420" y="890" on="0"/>
        <pt x="460" y="856" on="0"/>
      </contour>
    </TTGlyph>
    <TTGlyph name="Abreve" xMin="11" yMin="0" xMax="612" yMax="887">
      <contour>
        <pt x="579" y="0" on="1"/>
        <pt x="375" y="0" on="1"/>
        <pt x="375" y="8" on="1"/>
        <pt x="375" y="49" on="0"/>
        <pt x="410" y="52" on="1"/>
        <pt x="451" y="54" on="1"/>
        <pt x="402" y="226" on="1"/>
        <pt x="199" y="226" on="1"/>
        <pt x="149" y="56" on="1"/>
        <pt x="227" y="50" on="1"/>
        <pt x="232" y="0" on="0"/>
        <pt x="194" y="0" on="1"/>
        <pt x="11" y="0" on="1"/>
        <pt x="11" y="8" on="1"/>
        <pt x="11" y="49" on="0"/>
        <pt x="46" y="52" on="1"/>
        <pt x="85" y="54" on="1"/>
        <pt x="278" y="680" on="1"/>
        <pt x="316" y="684" on="0"/>
        <pt x="354" y="680" on="1"/>
        <pt x="545" y="56" on="1"/>
        <pt x="612" y="50" on="1"/>
        <pt x="617" y="0" on="0"/>
      </contour>
      <contour>
        <pt x="215" y="281" on="1"/>
        <pt x="387" y="281" on="1"/>
        <pt x="302" y="576" on="1"/>
      </contour>
      <contour>
        <pt x="466" y="817" on="0"/>
        <pt x="385" y="736" on="0"/>
        <pt x="246" y="736" on="0"/>
        <pt x="165" y="817" on="0"/>
        <pt x="158" y="870" on="1"/>
        <pt x="192" y="887" on="1"/>
        <pt x="204" y="857" on="0"/>
        <pt x="266" y="807" on="0"/>
        <pt x="317" y="807" on="1"/>
        <pt x="409" y="807" on="0"/>
        <pt x="439" y="886" on="1"/>
        <pt x="473" y="870" on="1"/>
      </contour>
    </TTGlyph>
    <TTGlyph name="Acircumflex" xMin="11" yMin="0" xMax="612" yMax="874">
      <contour>
        <pt x="579" y="0" on="1"/>
        <pt x="375" y="0" on="1"/>
        <pt x="375" y="8" on="1"/>
        <pt x="375" y="49" on="0"/>
        <pt x="410" y="52" on="1"/>
        <pt x="451" y="54" on="1"/>
        <pt x="402" y="226" on="1"/>
        <pt x="199" y="226" on="1"/>
        <pt x="149" y="56" on="1"/>
        <pt x="227" y="50" on="1"/>
        <pt x="232" y="0" on="0"/>
        <pt x="194" y="0" on="1"/>
        <pt x="11" y="0" on="1"/>
        <pt x="11" y="8" on="1"/>
        <pt x="11" y="49" on="0"/>
        <pt x="46" y="52" on="1"/>
        <pt x="85" y="54" on="1"/>
        <pt x="278" y="680" on="1"/>
        <pt x="316" y="684" on="0"/>
        <pt x="354" y="680" on="1"/>
        <pt x="545" y="56" on="1"/>
        <pt x="612" y="50" on="1"/>
        <pt x="617" y="0" on="0"/>
      </contour>
      <contour>
        <pt x="215" y="281" on="1"/>
        <pt x="387" y="281" on="1"/>
        <pt x="302" y="576" on="1"/>
      </contour>
      <contour>
        <pt x="315" y="808" on="1"/>
        <pt x="179" y="721" on="1"/>
        <pt x="161" y="731" on="0"/>
        <pt x="149" y="752" on="1"/>
        <pt x="283" y="874" on="1"/>
        <pt x="318" y="882" on="0"/>
        <pt x="349" y="874" on="1"/>
        <pt x="481" y="752" on="1"/>
        <pt x="468" y="730" on="0"/>
        <pt x="450" y="721" on="1"/>
      </contour>
    </TTGlyph>
    <TTGlyph name="Adieresis" xMin="11" yMin="0" xMax="612" yMax="866">
      <contour>
        <pt x="579" y="0" on="1"/>
        <pt x="375" y="0" on="1"/>
        <pt x="375" y="8" on="1"/>
        <pt x="375" y="49" on="0"/>
        <pt x="410" y="52" on="1"/>
        <pt x="451" y="54" on="1"/>
        <pt x="402" y="226" on="1"/>
        <pt x="199" y="226" on="1"/>
        <pt x="149" y="56" on="1"/>
        <pt x="227" y="50" on="1"/>
        <pt x="232" y="0" on="0"/>
        <pt x="194" y="0" on="1"/>
        <pt x="11" y="0" on="1"/>
        <pt x="11" y="8" on="1"/>
        <pt x="11" y="49" on="0"/>
        <pt x="46" y="52" on="1"/>
        <pt x="85" y="54" on="1"/>
        <pt x="278" y="680" on="1"/>
        <pt x="316" y="684" on="0"/>
        <pt x="354" y="680" on="1"/>
        <pt x="545" y="56" on="1"/>
        <pt x="612" y="50" on="1"/>
        <pt x="617" y="0" on="0"/>
      </contour>
      <contour>
        <pt x="215" y="281" on="1"/>
        <pt x="387" y="281" on="1"/>
        <pt x="302" y="576" on="1"/>
      </contour>
      <contour>
        <pt x="284" y="785" on="0"/>
        <pt x="251" y="752" on="0"/>
        <pt x="203" y="752" on="0"/>
        <pt x="169" y="785" on="0"/>
        <pt x="169" y="832" on="0"/>
        <pt x="203" y="866" on="0"/>
        <pt x="251" y="866" on="0"/>
        <pt x="284" y="832" on="0"/>
      </contour>
      <contour>
        <pt x="457" y="785" on="0"/>
        <pt x="424" y="752" on="0"/>
        <pt x="376" y="752" on="0"/>
        <pt x="342" y="785" on="0"/>
        <pt x="342" y="832" on="0"/>
        <pt x="376" y="866" on="0"/>
        <pt x="424" y="866" on="0"/>
        <pt x="457" y="832" on="0"/>
      </contour>
    </TTGlyph>
    <TTGlyph name="Agrave" xMin="11" yMin="0" xMax="612" yMax="887">
      <contour>
        <pt x="579" y="0" on="1"/>
        <pt x="375" y="0" on="1"/>
        <pt x="375" y="8" on="1"/>
        <pt x="375" y="49" on="0"/>
        <pt x="410" y="52" on="1"/>
        <pt x="451" y="54" on="1"/>
        <pt x="402" y="226" on="1"/>
        <pt x="199" y="226" on="1"/>
        <pt x="149" y="56" on="1"/>
        <pt x="227" y="50" on="1"/>
        <pt x="232" y="0" on="0"/>
        <pt x="194" y="0" on="1"/>
        <pt x="11" y="0" on="1"/>
        <pt x="11" y="8" on="1"/>
        <pt x="11" y="49" on="0"/>
        <pt x="46" y="52" on="1"/>
        <pt x="85" y="54" on="1"/>
        <pt x="278" y="680" on="1"/>
        <pt x="316" y="684" on="0"/>
        <pt x="354" y="680" on="1"/>
        <pt x="545" y="56" on="1"/>
        <pt x="612" y="50" on="1"/>
        <pt x="617" y="0" on="0"/>
      </contour>
      <contour>
        <pt x="215" y="281" on="1"/>
        <pt x="387" y="281" on="1"/>
        <pt x="302" y="576" on="1"/>
      </contour>
      <contour>
        <pt x="246" y="887" on="1"/>
        <pt x="411" y="758" on="1"/>
        <pt x="400" y="736" on="0"/>
        <pt x="378" y="725" on="1"/>
        <pt x="177" y="833" on="1"/>
        <pt x="186" y="851" on="0"/>
        <pt x="227" y="885" on="0"/>
      </contour>
    </TTGlyph>
    <TTGlyph name="Amacron" xMin="11" yMin="0" xMax="612" yMax="824">
      <contour>
        <pt x="579" y="0" on="1"/>
        <pt x="375" y="0" on="1"/>
        <pt x="375" y="8" on="1"/>
        <pt x="375" y="49" on="0"/>
        <pt x="410" y="52" on="1"/>
        <pt x="451" y="54" on="1"/>
        <pt x="402" y="226" on="1"/>
        <pt x="199" y="226" on="1"/>
        <pt x="149" y="56" on="1"/>
        <pt x="227" y="50" on="1"/>
        <pt x="232" y="0" on="0"/>
        <pt x="194" y="0" on="1"/>
        <pt x="11" y="0" on="1"/>
        <pt x="11" y="8" on="1"/>
        <pt x="11" y="49" on="0"/>
        <pt x="46" y="52" on="1"/>
        <pt x="85" y="54" on="1"/>
        <pt x="278" y="680" on="1"/>
        <pt x="316" y="684" on="0"/>
        <pt x="354" y="680" on="1"/>
        <pt x="545" y="56" on="1"/>
        <pt x="612" y="50" on="1"/>
        <pt x="617" y="0" on="0"/>
      </contour>
      <contour>
        <pt x="215" y="281" on="1"/>
        <pt x="387" y="281" on="1"/>
        <pt x="302" y="576" on="1"/>
      </contour>
      <contour>
        <pt x="451" y="824" on="1"/>
        <pt x="451" y="764" on="1"/>
        <pt x="178" y="764" on="1"/>
        <pt x="178" y="824" on="1"/>
      </contour>
    </TTGlyph>
    <TTGlyph name="Aogonek" xMin="11" yMin="-173" xMax="627" yMax="680">
      <contour>
        <pt x="579" y="0" on="1"/>
        <pt x="575" y="0" on="1"/>
        <pt x="517" y="-27" on="0"/>
        <pt x="517" y="-127" on="0"/>
        <pt x="564" y="-127" on="1"/>
        <pt x="589" y="-127" on="0"/>
        <pt x="620" y="-104" on="1"/>
        <pt x="624" y="-107" on="0"/>
        <pt x="629" y="-131" on="0"/>
        <pt x="627" y="-139" on="1"/>
        <pt x="603" y="-173" on="0"/>
        <pt x="544" y="-173" on="1"/>
        <pt x="503" y="-173" on="0"/>
        <pt x="453" y="-130" on="0"/>
        <pt x="453" y="-95" on="1"/>
        <pt x="453" y="-38" on="0"/>
        <pt x="508" y="0" on="1"/>
        <pt x="375" y="0" on="1"/>
        <pt x="375" y="8" on="1"/>
        <pt x="375" y="49" on="0"/>
        <pt x="410" y="52" on="1"/>
        <pt x="451" y="54" on="1"/>
        <pt x="402" y="226" on="1"/>
        <pt x="199" y="226" on="1"/>
        <pt x="149" y="56" on="1"/>
        <pt x="227" y="50" on="1"/>
        <pt x="232" y="0" on="0"/>
        <pt x="194" y="0" on="1"/>
        <pt x="11" y="0" on="1"/>
        <pt x="11" y="8" on="1"/>
        <pt x="11" y="49" on="0"/>
        <pt x="46" y="52" on="1"/>
        <pt x="85" y="54" on="1"/>
        <pt x="278" y="680" on="1"/>
        <pt x="316" y="684" on="0"/>
        <pt x="354" y="680" on="1"/>
        <pt x="545" y="56" on="1"/>
        <pt x="612" y="50" on="1"/>
        <pt x="617" y="0" on="0"/>
      </contour>
      <contour>
        <pt x="215" y="281" on="1"/>
        <pt x="387" y="281" on="1"/>
        <pt x="302" y="576" on="1"/>
      </contour>
    </TTGlyph>
    <TTGlyph name="Aring" xMin="11" yMin="0" xMax="612" yMax="906">
      <contour>
        <pt x="579" y="0" on="1"/>
        <pt x="375" y="0" on="1"/>
        <pt x="375" y="8" on="1"/>
        <pt x="375" y="49" on="0"/>
        <pt x="410" y="52" on="1"/>
        <pt x="451" y="54" on="1"/>
        <pt x="402" y="226" on="1"/>
        <pt x="199" y="226" on="1"/>
        <pt x="149" y="56" on="1"/>
        <pt x="227" y="50" on="1"/>
        <pt x="232" y="0" on="0"/>
        <pt x="194" y="0" on="1"/>
        <pt x="11" y="0" on="1"/>
        <pt x="11" y="8" on="1"/>
        <pt x="11" y="49" on="0"/>
        <pt x="46" y="52" on="1"/>
        <pt x="85" y="54" on="1"/>
        <pt x="278" y="680" on="1"/>
        <pt x="316" y="684" on="0"/>
        <pt x="354" y="680" on="1"/>
        <pt x="545" y="56" on="1"/>
        <pt x="612" y="50" on="1"/>
        <pt x="617" y="0" on="0"/>
      </contour>
      <contour>
        <pt x="215" y="281" on="1"/>
        <pt x="387" y="281" on="1"/>
        <pt x="302" y="576" on="1"/>
      </contour>
      <contour>
        <pt x="357" y="730" on="0"/>
        <pt x="275" y="730" on="0"/>
        <pt x="226" y="777" on="0"/>
        <pt x="226" y="857" on="0"/>
        <pt x="277" y="906" on="0"/>
        <pt x="361" y="906" on="0"/>
        <pt x="410" y="859" on="0"/>
        <pt x="409" y="780" on="0"/>
      </contour>
      <contour>
        <pt x="338" y="862" on="0"/>
        <pt x="298" y="862" on="0"/>
        <pt x="273" y="838" on="0"/>
        <pt x="273" y="798" on="0"/>
        <pt x="298" y="773" on="0"/>
        <pt x="338" y="773" on="0"/>
        <pt x="362" y="798" on="0"/>
        <pt x="362" y="838" on="0"/>
      </contour>
    </TTGlyph>
    <TTGlyph name="Atilde" xMin="11" yMin="0" xMax="612" yMax="873">
      <contour>
        <pt x="579" y="0" on="1"/>
        <pt x="375" y="0" on="1"/>
        <pt x="375" y="8" on="1"/>
        <pt x="375" y="49" on="0"/>
        <pt x="410" y="52" on="1"/>
        <pt x="451" y="54" on="1"/>
        <pt x="402" y="226" on="1"/>
        <pt x="199" y="226" on="1"/>
        <pt x="149" y="56" on="1"/>
        <pt x="227" y="50" on="1"/>
        <pt x="232" y="0" on="0"/>
        <pt x="194" y="0" on="1"/>
        <pt x="11" y="0" on="1"/>
        <pt x="11" y="8" on="1"/>
        <pt x="11" y="49" on="0"/>
        <pt x="46" y="52" on="1"/>
        <pt x="85" y="54" on="1"/>
        <pt x="278" y="680" on="1"/>
        <pt x="316" y="684" on="0"/>
        <pt x="354" y="680" on="1"/>
        <pt x="545" y="56" on="1"/>
        <pt x="612" y="50" on="1"/>
        <pt x="617" y="0" on="0"/>
      </contour>
      <contour>
        <pt x="215" y="281" on="1"/>
        <pt x="387" y="281" on="1"/>
        <pt x="302" y="576" on="1"/>
      </contour>
      <contour>
        <pt x="376" y="750" on="1"/>
        <pt x="341" y="750" on="0"/>
        <pt x="256" y="801" on="0"/>
        <pt x="216" y="801" on="0"/>
        <pt x="186" y="773" on="0"/>
        <pt x="180" y="754" on="1"/>
        <pt x="148" y="765" on="1"/>
        <pt x="158" y="815" on="0"/>
        <pt x="215" y="873" on="0"/>
        <pt x="283" y="873" on="0"/>
        <pt x="364" y="818" on="0"/>
        <pt x="390" y="818" on="1"/>
        <pt x="440" y="818" on="0"/>
        <pt x="453" y="870" on="1"/>
        <pt x="484" y="861" on="1"/>
        <pt x="467" y="750" on="0"/>
      </contour>
    </TTGlyph>
    <TTGlyph name="B" xMin="42" yMin="0" xMax="531" yMax="681">
      <contour>
        <pt x="74" y="681" on="1"/>
        <pt x="289" y="681" on="1"/>
        <pt x="395" y="681" on="0"/>
        <pt x="499" y="587" on="0"/>
        <pt x="499" y="517" on="1"/>
        <pt x="499" y="404" on="0"/>
        <pt x="384" y="360" on="1"/>
        <pt x="447" y="349" on="0"/>
        <pt x="531" y="268" on="0"/>
        <pt x="531" y="202" on="1"/>
        <pt x="532" y="107" on="0"/>
        <pt x="405" y="0" on="0"/>
        <pt x="294" y="0" on="1"/>
        <pt x="42" y="0" on="1"/>
        <pt x="43" y="16" on="0"/>
        <pt x="46" y="34" on="0"/>
        <pt x="61" y="50" on="0"/>
        <pt x="75" y="51" on="1"/>
        <pt x="117" y="55" on="1"/>
        <pt x="117" y="625" on="1"/>
        <pt x="44" y="631" on="1"/>
        <pt x="43" y="637" on="0"/>
        <pt x="45" y="652" on="1"/>
        <pt x="50" y="681" on="0"/>
      </contour>
      <contour>
        <pt x="205" y="628" on="1"/>
        <pt x="205" y="376" on="1"/>
        <pt x="242" y="376" on="1"/>
        <pt x="329" y="376" on="0"/>
        <pt x="407" y="444" on="0"/>
        <pt x="407" y="576" on="0"/>
        <pt x="324" y="636" on="0"/>
        <pt x="251" y="631" on="1"/>
        <pt x="207" y="628" on="1"/>
      </contour>
      <contour>
        <pt x="440" y="191" on="1"/>
        <pt x="440" y="266" on="0"/>
        <pt x="350" y="329" on="0"/>
        <pt x="254" y="328" on="1"/>
        <pt x="205" y="327" on="1"/>
        <pt x="205" y="56" on="1"/>
        <pt x="269" y="55" on="1"/>
        <pt x="440" y="52" on="0"/>
      </contour>
    </TTGlyph>
    <TTGlyph name="C" xMin="37" yMin="-15" xMax="543" yMax="694">
      <contour>
        <pt x="345" y="694" on="1"/>
        <pt x="428" y="694" on="0"/>
        <pt x="537" y="620" on="0"/>
        <pt x="537" y="566" on="1"/>
        <pt x="537" y="502" on="0"/>
        <pt x="463" y="500" on="1"/>
        <pt x="463" y="563" on="0"/>
        <pt x="396" y="631" on="0"/>
        <pt x="336" y="631" on="1"/>
        <pt x="236" y="631" on="0"/>
        <pt x="130" y="470" on="0"/>
        <pt x="130" y="339" on="1"/>
        <pt x="130" y="54" on="0"/>
        <pt x="349" y="54" on="1"/>
        <pt x="453" y="54" on="0"/>
        <pt x="530" y="115" on="1"/>
        <pt x="543" y="109" on="0"/>
        <pt x="543" y="90" on="1"/>
        <pt x="543" y="56" on="0"/>
        <pt x="416" y="-15" on="0"/>
        <pt x="326" y="-15" on="1"/>
        <pt x="187" y="-15" on="0"/>
        <pt x="40" y="164" on="0"/>
        <pt x="35" y="486" on="0"/>
        <pt x="197" y="694" on="0"/>
      </contour>
    </TTGlyph>
    <TTGlyph name="Cacute" xMin="37" yMin="-15" xMax="543" yMax="893">
      <contour>
        <pt x="488" y="838" on="1"/>
        <pt x="287" y="730" on="1"/>
        <pt x="265" y="742" on="0"/>
        <pt x="254" y="763" on="1"/>
        <pt x="419" y="893" on="1"/>
        <pt x="439" y="890" on="0"/>
        <pt x="479" y="856" on="0"/>
      </contour>
      <contour>
        <pt x="345" y="694" on="1"/>
        <pt x="428" y="694" on="0"/>
        <pt x="537" y="620" on="0"/>
        <pt x="537" y="566" on="1"/>
        <pt x="537" y="502" on="0"/>
        <pt x="463" y="500" on="1"/>
        <pt x="463" y="563" on="0"/>
        <pt x="396" y="631" on="0"/>
        <pt x="336" y="631" on="1"/>
        <pt x="236" y="631" on="0"/>
        <pt x="130" y="470" on="0"/>
        <pt x="130" y="339" on="1"/>
        <pt x="130" y="54" on="0"/>
        <pt x="349" y="54" on="1"/>
        <pt x="453" y="54" on="0"/>
        <pt x="530" y="115" on="1"/>
        <pt x="543" y="109" on="0"/>
        <pt x="543" y="90" on="1"/>
        <pt x="543" y="56" on="0"/>
        <pt x="416" y="-15" on="0"/>
        <pt x="326" y="-15" on="1"/>
        <pt x="187" y="-15" on="0"/>
        <pt x="40" y="164" on="0"/>
        <pt x="35" y="486" on="0"/>
        <pt x="197" y="694" on="0"/>
      </contour>
    </TTGlyph>
    <TTGlyph name="Ccaron" xMin="37" yMin="-15" xMax="543" yMax="890">
      <contour>
        <pt x="543" y="90" on="1"/>
        <pt x="543" y="56" on="0"/>
        <pt x="416" y="-15" on="0"/>
        <pt x="326" y="-15" on="1"/>
        <pt x="187" y="-15" on="0"/>
        <pt x="40" y="164" on="0"/>
        <pt x="35" y="486" on="0"/>
        <pt x="197" y="694" on="0"/>
        <pt x="345" y="694" on="1"/>
        <pt x="428" y="694" on="0"/>
        <pt x="537" y="620" on="0"/>
        <pt x="537" y="566" on="1"/>
        <pt x="537" y="502" on="0"/>
        <pt x="463" y="500" on="1"/>
        <pt x="463" y="563" on="0"/>
        <pt x="396" y="631" on="0"/>
        <pt x="336" y="631" on="1"/>
        <pt x="236" y="631" on="0"/>
        <pt x="130" y="470" on="0"/>
        <pt x="130" y="339" on="1"/>
        <pt x="130" y="54" on="0"/>
        <pt x="349" y="54" on="1"/>
        <pt x="453" y="54" on="0"/>
        <pt x="530" y="115" on="1"/>
        <pt x="543" y="109" on="0"/>
      </contour>
      <contour>
        <pt x="499" y="859" on="1"/>
        <pt x="367" y="737" on="1"/>
        <pt x="336" y="729" on="0"/>
        <pt x="301" y="737" on="1"/>
        <pt x="167" y="859" on="1"/>
        <pt x="180" y="881" on="0"/>
        <pt x="197" y="890" on="1"/>
        <pt x="333" y="803" on="1"/>
        <pt x="468" y="890" on="1"/>
        <pt x="486" y="881" on="0"/>
      </contour>
    </TTGlyph>
    <TTGlyph name="Ccedilla" xMin="37" yMin="-196" xMax="543" yMax="694">
      <contour>
        <pt x="345" y="694" on="1"/>
        <pt x="428" y="694" on="0"/>
        <pt x="537" y="620" on="0"/>
        <pt x="537" y="566" on="1"/>
        <pt x="537" y="502" on="0"/>
        <pt x="463" y="500" on="1"/>
        <pt x="463" y="563" on="0"/>
        <pt x="396" y="631" on="0"/>
        <pt x="336" y="631" on="1"/>
        <pt x="236" y="631" on="0"/>
        <pt x="130" y="470" on="0"/>
        <pt x="130" y="339" on="1"/>
        <pt x="130" y="54" on="0"/>
        <pt x="349" y="54" on="1"/>
        <pt x="453" y="54" on="0"/>
        <pt x="530" y="115" on="1"/>
        <pt x="543" y="109" on="0"/>
        <pt x="543" y="90" on="1"/>
        <pt x="543" y="58" on="0"/>
        <pt x="430" y="-9" on="0"/>
        <pt x="349" y="-14" on="1"/>
        <pt x="342" y="-43" on="1"/>
        <pt x="384" y="-43" on="0"/>
        <pt x="424" y="-84" on="0"/>
        <pt x="424" y="-151" on="0"/>
        <pt x="371" y="-196" on="0"/>
        <pt x="281" y="-196" on="0"/>
        <pt x="255" y="-168" on="1"/>
        <pt x="252" y="-143" on="0"/>
        <pt x="267" y="-133" on="1"/>
        <pt x="290" y="-151" on="0"/>
        <pt x="317" y="-151" on="1"/>
        <pt x="360" y="-151" on="0"/>
        <pt x="360" y="-116" on="1"/>
        <pt x="360" y="-99" on="0"/>
        <pt x="330" y="-81" on="0"/>
        <pt x="288" y="-81" on="1"/>
        <pt x="305" y="-14" on="1"/>
        <pt x="176" y="-7" on="0"/>
        <pt x="40" y="170" on="0"/>
        <pt x="35" y="486" on="0"/>
        <pt x="197" y="694" on="0"/>
      </contour>
    </TTGlyph>
    <TTGlyph name="Ccircumflex" xMin="37" yMin="-15" xMax="543" yMax="875">
      <contour>
        <pt x="543" y="90" on="1"/>
        <pt x="543" y="56" on="0"/>
        <pt x="416" y="-15" on="0"/>
        <pt x="326" y="-15" on="1"/>
        <pt x="187" y="-15" on="0"/>
        <pt x="40" y="164" on="0"/>
        <pt x="35" y="486" on="0"/>
        <pt x="197" y="694" on="0"/>
        <pt x="345" y="694" on="1"/>
        <pt x="428" y="694" on="0"/>
        <pt x="537" y="620" on="0"/>
        <pt x="537" y="566" on="1"/>
        <pt x="537" y="502" on="0"/>
        <pt x="463" y="500" on="1"/>
        <pt x="463" y="563" on="0"/>
        <pt x="396" y="631" on="0"/>
        <pt x="336" y="631" on="1"/>
        <pt x="236" y="631" on="0"/>
        <pt x="130" y="470" on="0"/>
        <pt x="130" y="339" on="1"/>
        <pt x="130" y="54" on="0"/>
        <pt x="349" y="54" on="1"/>
        <pt x="453" y="54" on="0"/>
        <pt x="530" y="115" on="1"/>
        <pt x="543" y="109" on="0"/>
      </contour>
      <contour>
        <pt x="334" y="808" on="1"/>
        <pt x="198" y="721" on="1"/>
        <pt x="180" y="731" on="0"/>
        <pt x="168" y="752" on="1"/>
        <pt x="302" y="875" on="1"/>
        <pt x="336" y="882" on="0"/>
        <pt x="368" y="875" on="1"/>
        <pt x="500" y="752" on="1"/>
        <pt x="486" y="729" on="0"/>
        <pt x="469" y="721" on="1"/>
      </contour>
    </TTGlyph>
    <TTGlyph name="Cdotaccent" xMin="37" yMin="-15" xMax="543" yMax="888">
      <contour>
        <pt x="345" y="694" on="1"/>
        <pt x="428" y="694" on="0"/>
        <pt x="537" y="620" on="0"/>
        <pt x="537" y="566" on="1"/>
        <pt x="537" y="502" on="0"/>
        <pt x="463" y="500" on="1"/>
        <pt x="463" y="563" on="0"/>
        <pt x="396" y="631" on="0"/>
        <pt x="336" y="631" on="1"/>
        <pt x="236" y="631" on="0"/>
        <pt x="130" y="470" on="0"/>
        <pt x="130" y="339" on="1"/>
        <pt x="130" y="54" on="0"/>
        <pt x="349" y="54" on="1"/>
        <pt x="453" y="54" on="0"/>
        <pt x="530" y="115" on="1"/>
        <pt x="543" y="109" on="0"/>
        <pt x="543" y="90" on="1"/>
        <pt x="543" y="56" on="0"/>
        <pt x="416" y="-15" on="0"/>
        <pt x="326" y="-15" on="1"/>
        <pt x="187" y="-15" on="0"/>
        <pt x="40" y="164" on="0"/>
        <pt x="35" y="486" on="0"/>
        <pt x="197" y="694" on="0"/>
      </contour>
      <contour>
        <pt x="361" y="775" on="0"/>
        <pt x="311" y="775" on="0"/>
        <pt x="279" y="807" on="0"/>
        <pt x="279" y="856" on="0"/>
        <pt x="311" y="888" on="0"/>
        <pt x="361" y="888" on="0"/>
        <pt x="393" y="856" on="0"/>
        <pt x="393" y="807" on="0"/>
      </contour>
    </TTGlyph>
    <TTGlyph name="D" xMin="42" yMin="0" xMax="641" yMax="681">
      <contour>
        <pt x="80" y="681" on="1"/>
        <pt x="297" y="681" on="1"/>
        <pt x="474" y="681" on="0"/>
        <pt x="641" y="515" on="0"/>
        <pt x="641" y="177" on="0"/>
        <pt x="465" y="0" on="0"/>
        <pt x="299" y="0" on="1"/>
        <pt x="42" y="0" on="1"/>
        <pt x="39" y="49" on="0"/>
        <pt x="73" y="51" on="1"/>
        <pt x="116" y="55" on="1"/>
        <pt x="116" y="624" on="1"/>
        <pt x="44" y="630" on="1"/>
        <pt x="42" y="681" on="0"/>
      </contour>
      <contour>
        <pt x="411" y="50" on="0"/>
        <pt x="549" y="190" on="0"/>
        <pt x="549" y="496" on="0"/>
        <pt x="406" y="632" on="0"/>
        <pt x="257" y="627" on="1"/>
        <pt x="205" y="625" on="1"/>
        <pt x="204" y="625" on="1"/>
        <pt x="204" y="56" on="1"/>
        <pt x="274" y="54" on="1"/>
      </contour>
    </TTGlyph>
    <TTGlyph name="Dcaron" xMin="42" yMin="0" xMax="641" yMax="892">
      <contour>
        <pt x="80" y="681" on="1"/>
        <pt x="297" y="681" on="1"/>
        <pt x="474" y="681" on="0"/>
        <pt x="641" y="515" on="0"/>
        <pt x="641" y="177" on="0"/>
        <pt x="465" y="0" on="0"/>
        <pt x="299" y="0" on="1"/>
        <pt x="42" y="0" on="1"/>
        <pt x="39" y="49" on="0"/>
        <pt x="73" y="51" on="1"/>
        <pt x="116" y="55" on="1"/>
        <pt x="116" y="624" on="1"/>
        <pt x="44" y="630" on="1"/>
        <pt x="42" y="681" on="0"/>
      </contour>
      <contour>
        <pt x="411" y="50" on="0"/>
        <pt x="549" y="190" on="0"/>
        <pt x="549" y="496" on="0"/>
        <pt x="406" y="632" on="0"/>
        <pt x="257" y="627" on="1"/>
        <pt x="205" y="625" on="1"/>
        <pt x="204" y="625" on="1"/>
        <pt x="204" y="56" on="1"/>
        <pt x="274" y="54" on="1"/>
      </contour>
      <contour>
        <pt x="461" y="860" on="1"/>
        <pt x="328" y="738" on="1"/>
        <pt x="297" y="730" on="0"/>
        <pt x="262" y="738" on="1"/>
        <pt x="129" y="860" on="1"/>
        <pt x="140" y="882" on="0"/>
        <pt x="158" y="892" on="1"/>
        <pt x="295" y="804" on="1"/>
        <pt x="430" y="892" on="1"/>
        <pt x="446" y="883" on="0"/>
      </contour>
    </TTGlyph>
    <TTGlyph name="Dcroat" xMin="42" yMin="0" xMax="641" yMax="681">
      <contour>
        <pt x="80" y="681" on="1"/>
        <pt x="297" y="681" on="1"/>
        <pt x="474" y="681" on="0"/>
        <pt x="641" y="515" on="0"/>
        <pt x="641" y="177" on="0"/>
        <pt x="465" y="0" on="0"/>
        <pt x="299" y="0" on="1"/>
        <pt x="42" y="0" on="1"/>
        <pt x="39" y="49" on="0"/>
        <pt x="73" y="51" on="1"/>
        <pt x="116" y="55" on="1"/>
        <pt x="116" y="309" on="1"/>
        <pt x="62" y="309" on="1"/>
        <pt x="62" y="365" on="1"/>
        <pt x="116" y="365" on="1"/>
        <pt x="116" y="624" on="1"/>
        <pt x="44" y="630" on="1"/>
        <pt x="42" y="681" on="0"/>
      </contour>
      <contour>
        <pt x="411" y="50" on="0"/>
        <pt x="549" y="190" on="0"/>
        <pt x="549" y="496" on="0"/>
        <pt x="406" y="632" on="0"/>
        <pt x="257" y="627" on="1"/>
        <pt x="205" y="625" on="1"/>
        <pt x="204" y="625" on="1"/>
        <pt x="204" y="365" on="1"/>
        <pt x="372" y="365" on="1"/>
        <pt x="372" y="309" on="1"/>
        <pt x="204" y="309" on="1"/>
        <pt x="204" y="56" on="1"/>
        <pt x="274" y="54" on="1"/>
      </contour>
    </TTGlyph>
    <TTGlyph name="E" xMin="41" yMin="0" xMax="519" yMax="679">
      <contour>
        <pt x="519" y="144" on="1"/>
        <pt x="519" y="0" on="1"/>
        <pt x="41" y="0" on="1"/>
        <pt x="41" y="8" on="1"/>
        <pt x="41" y="49" on="0"/>
        <pt x="76" y="52" on="1"/>
        <pt x="117" y="54" on="1"/>
        <pt x="117" y="623" on="1"/>
        <pt x="44" y="630" on="1"/>
        <pt x="39" y="679" on="0"/>
        <pt x="78" y="679" on="1"/>
        <pt x="504" y="679" on="1"/>
        <pt x="504" y="535" on="1"/>
        <pt x="504" y="500" on="0"/>
        <pt x="454" y="505" on="1"/>
        <pt x="445" y="620" on="1"/>
        <pt x="204" y="624" on="1"/>
        <pt x="204" y="362" on="1"/>
        <pt x="393" y="378" on="1"/>
        <pt x="401" y="340" on="0"/>
        <pt x="393" y="298" on="1"/>
        <pt x="204" y="308" on="1"/>
        <pt x="204" y="56" on="1"/>
        <pt x="460" y="63" on="1"/>
        <pt x="469" y="174" on="1"/>
        <pt x="519" y="179" on="0"/>
      </contour>
    </TTGlyph>
    <TTGlyph name="Eacute" xMin="41" yMin="0" xMax="519" yMax="893">
      <contour>
        <pt x="463" y="838" on="1"/>
        <pt x="263" y="730" on="1"/>
        <pt x="240" y="742" on="0"/>
        <pt x="229" y="763" on="1"/>
        <pt x="395" y="893" on="1"/>
        <pt x="415" y="890" on="0"/>
        <pt x="455" y="856" on="0"/>
      </contour>
      <contour>
        <pt x="519" y="144" on="1"/>
        <pt x="519" y="0" on="1"/>
        <pt x="41" y="0" on="1"/>
        <pt x="41" y="8" on="1"/>
        <pt x="41" y="49" on="0"/>
        <pt x="76" y="52" on="1"/>
        <pt x="117" y="54" on="1"/>
        <pt x="117" y="623" on="1"/>
        <pt x="44" y="630" on="1"/>
        <pt x="39" y="679" on="0"/>
        <pt x="78" y="679" on="1"/>
        <pt x="504" y="679" on="1"/>
        <pt x="504" y="535" on="1"/>
        <pt x="504" y="500" on="0"/>
        <pt x="454" y="505" on="1"/>
        <pt x="445" y="620" on="1"/>
        <pt x="204" y="624" on="1"/>
        <pt x="204" y="362" on="1"/>
        <pt x="393" y="378" on="1"/>
        <pt x="401" y="340" on="0"/>
        <pt x="393" y="298" on="1"/>
        <pt x="204" y="308" on="1"/>
        <pt x="204" y="56" on="1"/>
        <pt x="460" y="63" on="1"/>
        <pt x="469" y="174" on="1"/>
        <pt x="519" y="179" on="0"/>
      </contour>
    </TTGlyph>
    <TTGlyph name="Ebreve" xMin="41" yMin="0" xMax="519" yMax="887">
      <contour>
        <pt x="519" y="144" on="1"/>
        <pt x="519" y="0" on="1"/>
        <pt x="41" y="0" on="1"/>
        <pt x="41" y="8" on="1"/>
        <pt x="41" y="49" on="0"/>
        <pt x="76" y="52" on="1"/>
        <pt x="117" y="54" on="1"/>
        <pt x="117" y="623" on="1"/>
        <pt x="44" y="630" on="1"/>
        <pt x="39" y="679" on="0"/>
        <pt x="78" y="679" on="1"/>
        <pt x="504" y="679" on="1"/>
        <pt x="504" y="535" on="1"/>
        <pt x="504" y="500" on="0"/>
        <pt x="454" y="505" on="1"/>
        <pt x="445" y="620" on="1"/>
        <pt x="204" y="624" on="1"/>
        <pt x="204" y="362" on="1"/>
        <pt x="393" y="378" on="1"/>
        <pt x="401" y="340" on="0"/>
        <pt x="393" y="298" on="1"/>
        <pt x="204" y="308" on="1"/>
        <pt x="204" y="56" on="1"/>
        <pt x="460" y="63" on="1"/>
        <pt x="469" y="174" on="1"/>
        <pt x="519" y="179" on="0"/>
      </contour>
      <contour>
        <pt x="311" y="807" on="1"/>
        <pt x="402" y="807" on="0"/>
        <pt x="433" y="886" on="1"/>
        <pt x="468" y="870" on="1"/>
        <pt x="460" y="817" on="0"/>
        <pt x="379" y="737" on="0"/>
        <pt x="240" y="737" on="0"/>
        <pt x="160" y="817" on="0"/>
        <pt x="152" y="870" on="1"/>
        <pt x="187" y="887" on="1"/>
        <pt x="198" y="858" on="0"/>
        <pt x="260" y="807" on="0"/>
      </contour>
    </TTGlyph>
    <TTGlyph name="Ecaron" xMin="41" yMin="0" xMax="519" yMax="890">
      <contour>
        <pt x="519" y="144" on="1"/>
        <pt x="519" y="0" on="1"/>
        <pt x="41" y="0" on="1"/>
        <pt x="41" y="8" on="1"/>
        <pt x="41" y="49" on="0"/>
        <pt x="76" y="52" on="1"/>
        <pt x="117" y="54" on="1"/>
        <pt x="117" y="623" on="1"/>
        <pt x="44" y="630" on="1"/>
        <pt x="39" y="679" on="0"/>
        <pt x="78" y="679" on="1"/>
        <pt x="504" y="679" on="1"/>
        <pt x="504" y="535" on="1"/>
        <pt x="504" y="500" on="0"/>
        <pt x="454" y="505" on="1"/>
        <pt x="445" y="620" on="1"/>
        <pt x="204" y="624" on="1"/>
        <pt x="204" y="362" on="1"/>
        <pt x="393" y="378" on="1"/>
        <pt x="401" y="340" on="0"/>
        <pt x="393" y="298" on="1"/>
        <pt x="204" y="308" on="1"/>
        <pt x="204" y="56" on="1"/>
        <pt x="460" y="63" on="1"/>
        <pt x="469" y="174" on="1"/>
        <pt x="519" y="179" on="0"/>
      </contour>
      <contour>
        <pt x="475" y="859" on="1"/>
        <pt x="343" y="737" on="1"/>
        <pt x="311" y="729" on="0"/>
        <pt x="277" y="737" on="1"/>
        <pt x="143" y="859" on="1"/>
        <pt x="156" y="881" on="0"/>
        <pt x="173" y="890" on="1"/>
        <pt x="309" y="803" on="1"/>
        <pt x="444" y="890" on="1"/>
        <pt x="462" y="881" on="0"/>
      </contour>
    </TTGlyph>
    <TTGlyph name="Ecircumflex" xMin="41" yMin="0" xMax="519" yMax="874">
      <contour>
        <pt x="519" y="144" on="1"/>
        <pt x="519" y="0" on="1"/>
        <pt x="41" y="0" on="1"/>
        <pt x="41" y="8" on="1"/>
        <pt x="41" y="49" on="0"/>
        <pt x="76" y="52" on="1"/>
        <pt x="117" y="54" on="1"/>
        <pt x="117" y="623" on="1"/>
        <pt x="44" y="630" on="1"/>
        <pt x="39" y="679" on="0"/>
        <pt x="78" y="679" on="1"/>
        <pt x="504" y="679" on="1"/>
        <pt x="504" y="535" on="1"/>
        <pt x="504" y="500" on="0"/>
        <pt x="454" y="505" on="1"/>
        <pt x="445" y="620" on="1"/>
        <pt x="204" y="624" on="1"/>
        <pt x="204" y="362" on="1"/>
        <pt x="393" y="378" on="1"/>
        <pt x="401" y="340" on="0"/>
        <pt x="393" y="298" on="1"/>
        <pt x="204" y="308" on="1"/>
        <pt x="204" y="56" on="1"/>
        <pt x="460" y="63" on="1"/>
        <pt x="469" y="174" on="1"/>
        <pt x="519" y="179" on="0"/>
      </contour>
      <contour>
        <pt x="310" y="808" on="1"/>
        <pt x="174" y="721" on="1"/>
        <pt x="156" y="731" on="0"/>
        <pt x="144" y="752" on="1"/>
        <pt x="278" y="874" on="1"/>
        <pt x="312" y="882" on="0"/>
        <pt x="344" y="874" on="1"/>
        <pt x="476" y="752" on="1"/>
        <pt x="463" y="730" on="0"/>
        <pt x="445" y="721" on="1"/>
      </contour>
    </TTGlyph>
    <TTGlyph name="Edieresis" xMin="41" yMin="0" xMax="519" yMax="866">
      <contour>
        <pt x="451" y="785" on="0"/>
        <pt x="418" y="752" on="0"/>
        <pt x="370" y="752" on="0"/>
        <pt x="337" y="785" on="0"/>
        <pt x="337" y="832" on="0"/>
        <pt x="370" y="866" on="0"/>
        <pt x="418" y="866" on="0"/>
        <pt x="451" y="832" on="0"/>
      </contour>
      <contour>
        <pt x="246" y="752" on="0"/>
        <pt x="198" y="752" on="0"/>
        <pt x="164" y="785" on="0"/>
        <pt x="164" y="832" on="0"/>
        <pt x="198" y="866" on="0"/>
        <pt x="246" y="866" on="0"/>
        <pt x="279" y="832" on="0"/>
        <pt x="279" y="785" on="0"/>
      </contour>
      <contour>
        <pt x="519" y="144" on="1"/>
        <pt x="519" y="0" on="1"/>
        <pt x="41" y="0" on="1"/>
        <pt x="41" y="8" on="1"/>
        <pt x="41" y="49" on="0"/>
        <pt x="76" y="52" on="1"/>
        <pt x="117" y="54" on="1"/>
        <pt x="117" y="623" on="1"/>
        <pt x="44" y="630" on="1"/>
        <pt x="39" y="679" on="0"/>
        <pt x="78" y="679" on="1"/>
        <pt x="504" y="679" on="1"/>
        <pt x="504" y="535" on="1"/>
        <pt x="504" y="500" on="0"/>
        <pt x="454" y="505" on="1"/>
        <pt x="445" y="620" on="1"/>
        <pt x="204" y="624" on="1"/>
        <pt x="204" y="362" on="1"/>
        <pt x="393" y="378" on="1"/>
        <pt x="401" y="340" on="0"/>
        <pt x="393" y="298" on="1"/>
        <pt x="204" y="308" on="1"/>
        <pt x="204" y="56" on="1"/>
        <pt x="460" y="63" on="1"/>
        <pt x="469" y="174" on="1"/>
        <pt x="519" y="179" on="0"/>
      </contour>
    </TTGlyph>
    <TTGlyph name="Edotaccent" xMin="41" yMin="0" xMax="519" yMax="888">
      <contour>
        <pt x="368" y="806" on="0"/>
        <pt x="336" y="775" on="0"/>
        <pt x="287" y="775" on="0"/>
        <pt x="255" y="806" on="0"/>
        <pt x="255" y="856" on="0"/>
        <pt x="287" y="888" on="0"/>
        <pt x="336" y="888" on="0"/>
        <pt x="368" y="856" on="0"/>
      </contour>
      <contour>
        <pt x="519" y="144" on="1"/>
        <pt x="519" y="0" on="1"/>
        <pt x="41" y="0" on="1"/>
        <pt x="41" y="8" on="1"/>
        <pt x="41" y="49" on="0"/>
        <pt x="76" y="52" on="1"/>
        <pt x="117" y="54" on="1"/>
        <pt x="117" y="623" on="1"/>
        <pt x="44" y="630" on="1"/>
        <pt x="39" y="679" on="0"/>
        <pt x="78" y="679" on="1"/>
        <pt x="504" y="679" on="1"/>
        <pt x="504" y="535" on="1"/>
        <pt x="504" y="500" on="0"/>
        <pt x="454" y="505" on="1"/>
        <pt x="445" y="620" on="1"/>
        <pt x="204" y="624" on="1"/>
        <pt x="204" y="362" on="1"/>
        <pt x="393" y="378" on="1"/>
        <pt x="401" y="340" on="0"/>
        <pt x="393" y="298" on="1"/>
        <pt x="204" y="308" on="1"/>
        <pt x="204" y="56" on="1"/>
        <pt x="460" y="63" on="1"/>
        <pt x="469" y="174" on="1"/>
        <pt x="519" y="179" on="0"/>
      </contour>
    </TTGlyph>
    <TTGlyph name="Egrave" xMin="41" yMin="0" xMax="519" yMax="887">
      <contour>
        <pt x="373" y="725" on="1"/>
        <pt x="172" y="833" on="1"/>
        <pt x="181" y="851" on="0"/>
        <pt x="222" y="885" on="0"/>
        <pt x="241" y="887" on="1"/>
        <pt x="406" y="758" on="1"/>
        <pt x="395" y="736" on="0"/>
      </contour>
      <contour>
        <pt x="519" y="144" on="1"/>
        <pt x="519" y="0" on="1"/>
        <pt x="41" y="0" on="1"/>
        <pt x="41" y="8" on="1"/>
        <pt x="41" y="49" on="0"/>
        <pt x="76" y="52" on="1"/>
        <pt x="117" y="54" on="1"/>
        <pt x="117" y="623" on="1"/>
        <pt x="44" y="630" on="1"/>
        <pt x="39" y="679" on="0"/>
        <pt x="78" y="679" on="1"/>
        <pt x="504" y="679" on="1"/>
        <pt x="504" y="535" on="1"/>
        <pt x="504" y="500" on="0"/>
        <pt x="454" y="505" on="1"/>
        <pt x="445" y="620" on="1"/>
        <pt x="204" y="624" on="1"/>
        <pt x="204" y="362" on="1"/>
        <pt x="393" y="378" on="1"/>
        <pt x="401" y="340" on="0"/>
        <pt x="393" y="298" on="1"/>
        <pt x="204" y="308" on="1"/>
        <pt x="204" y="56" on="1"/>
        <pt x="460" y="63" on="1"/>
        <pt x="469" y="174" on="1"/>
        <pt x="519" y="179" on="0"/>
      </contour>
    </TTGlyph>
    <TTGlyph name="Emacron" xMin="41" yMin="0" xMax="519" yMax="824">
      <contour>
        <pt x="173" y="824" on="1"/>
        <pt x="446" y="824" on="1"/>
        <pt x="446" y="764" on="1"/>
        <pt x="173" y="764" on="1"/>
      </contour>
      <contour>
        <pt x="519" y="144" on="1"/>
        <pt x="519" y="0" on="1"/>
        <pt x="41" y="0" on="1"/>
        <pt x="41" y="8" on="1"/>
        <pt x="41" y="49" on="0"/>
        <pt x="76" y="52" on="1"/>
        <pt x="117" y="54" on="1"/>
        <pt x="117" y="623" on="1"/>
        <pt x="44" y="630" on="1"/>
        <pt x="39" y="679" on="0"/>
        <pt x="78" y="679" on="1"/>
        <pt x="504" y="679" on="1"/>
        <pt x="504" y="535" on="1"/>
        <pt x="504" y="500" on="0"/>
        <pt x="454" y="505" on="1"/>
        <pt x="445" y="620" on="1"/>
        <pt x="204" y="624" on="1"/>
        <pt x="204" y="362" on="1"/>
        <pt x="393" y="378" on="1"/>
        <pt x="401" y="340" on="0"/>
        <pt x="393" y="298" on="1"/>
        <pt x="204" y="308" on="1"/>
        <pt x="204" y="56" on="1"/>
        <pt x="460" y="63" on="1"/>
        <pt x="469" y="174" on="1"/>
        <pt x="519" y="179" on="0"/>
      </contour>
    </TTGlyph>
    <TTGlyph name="Eng" xMin="41" yMin="-181" xMax="667" yMax="679">
      <contour>
        <pt x="489" y="679" on="1"/>
        <pt x="667" y="679" on="1"/>
        <pt x="667" y="670" on="1"/>
        <pt x="667" y="631" on="0"/>
        <pt x="632" y="628" on="1"/>
        <pt x="590" y="625" on="1"/>
        <pt x="590" y="23" on="1"/>
        <pt x="590" y="-63" on="0"/>
        <pt x="507" y="-181" on="0"/>
        <pt x="432" y="-181" on="1"/>
        <pt x="394" y="-181" on="0"/>
        <pt x="343" y="-142" on="0"/>
        <pt x="343" y="-89" on="0"/>
        <pt x="373" y="-59" on="0"/>
        <pt x="403" y="-60" on="1"/>
        <pt x="405" y="-118" on="0"/>
        <pt x="452" y="-118" on="1"/>
        <pt x="524" y="-118" on="0"/>
        <pt x="526" y="6" on="1"/>
        <pt x="179" y="535" on="1"/>
        <pt x="179" y="56" on="1"/>
        <pt x="252" y="50" on="1"/>
        <pt x="257" y="0" on="0"/>
        <pt x="219" y="0" on="1"/>
        <pt x="41" y="0" on="1"/>
        <pt x="41" y="8" on="1"/>
        <pt x="41" y="49" on="0"/>
        <pt x="76" y="52" on="1"/>
        <pt x="117" y="54" on="1"/>
        <pt x="117" y="623" on="1"/>
        <pt x="44" y="629" on="1"/>
        <pt x="39" y="679" on="0"/>
        <pt x="77" y="679" on="1"/>
        <pt x="190" y="679" on="1"/>
        <pt x="529" y="160" on="1"/>
        <pt x="529" y="623" on="1"/>
        <pt x="456" y="629" on="1"/>
        <pt x="451" y="679" on="0"/>
      </contour>
    </TTGlyph>
    <TTGlyph name="Eogonek" xMin="41" yMin="-169" xMax="581" yMax="679">
      <contour>
        <pt x="543" y="11" on="1"/>
        <pt x="471" y="-18" on="0"/>
        <pt x="471" y="-122" on="0"/>
        <pt x="519" y="-122" on="1"/>
        <pt x="545" y="-122" on="0"/>
        <pt x="574" y="-100" on="1"/>
        <pt x="578" y="-103" on="0"/>
        <pt x="583" y="-127" on="0"/>
        <pt x="581" y="-134" on="1"/>
        <pt x="556" y="-169" on="0"/>
        <pt x="498" y="-169" on="1"/>
        <pt x="457" y="-169" on="0"/>
        <pt x="407" y="-126" on="0"/>
        <pt x="407" y="-91" on="1"/>
        <pt x="407" y="-37" on="0"/>
        <pt x="456" y="0" on="1"/>
        <pt x="41" y="0" on="1"/>
        <pt x="41" y="8" on="1"/>
        <pt x="41" y="49" on="0"/>
        <pt x="76" y="52" on="1"/>
        <pt x="117" y="54" on="1"/>
        <pt x="117" y="623" on="1"/>
        <pt x="44" y="630" on="1"/>
        <pt x="39" y="679" on="0"/>
        <pt x="78" y="679" on="1"/>
        <pt x="504" y="679" on="1"/>
        <pt x="504" y="535" on="1"/>
        <pt x="504" y="500" on="0"/>
        <pt x="454" y="505" on="1"/>
        <pt x="445" y="620" on="1"/>
        <pt x="204" y="624" on="1"/>
        <pt x="204" y="362" on="1"/>
        <pt x="393" y="378" on="1"/>
        <pt x="401" y="340" on="0"/>
        <pt x="393" y="298" on="1"/>
        <pt x="204" y="308" on="1"/>
        <pt x="204" y="56" on="1"/>
        <pt x="460" y="63" on="1"/>
        <pt x="469" y="174" on="1"/>
        <pt x="519" y="179" on="0"/>
        <pt x="519" y="144" on="1"/>
        <pt x="519" y="33" on="1"/>
        <pt x="526" y="35" on="1"/>
      </contour>
    </TTGlyph>
    <TTGlyph name="Eth" xMin="42" yMin="0" xMax="641" yMax="681">
      <contour>
        <pt x="80" y="681" on="1"/>
        <pt x="297" y="681" on="1"/>
        <pt x="474" y="681" on="0"/>
        <pt x="641" y="515" on="0"/>
        <pt x="641" y="177" on="0"/>
        <pt x="465" y="0" on="0"/>
        <pt x="299" y="0" on="1"/>
        <pt x="42" y="0" on="1"/>
        <pt x="39" y="49" on="0"/>
        <pt x="73" y="51" on="1"/>
        <pt x="116" y="55" on="1"/>
        <pt x="116" y="309" on="1"/>
        <pt x="62" y="309" on="1"/>
        <pt x="62" y="365" on="1"/>
        <pt x="116" y="365" on="1"/>
        <pt x="116" y="624" on="1"/>
        <pt x="44" y="630" on="1"/>
        <pt x="42" y="681" on="0"/>
      </contour>
      <contour>
        <pt x="411" y="50" on="0"/>
        <pt x="549" y="190" on="0"/>
        <pt x="549" y="496" on="0"/>
        <pt x="406" y="632" on="0"/>
        <pt x="257" y="627" on="1"/>
        <pt x="205" y="625" on="1"/>
        <pt x="204" y="625" on="1"/>
        <pt x="204" y="365" on="1"/>
        <pt x="372" y="365" on="1"/>
        <pt x="372" y="309" on="1"/>
        <pt x="204" y="309" on="1"/>
        <pt x="204" y="56" on="1"/>
        <pt x="274" y="54" on="1"/>
      </contour>
    </TTGlyph>
    <TTGlyph name="Euro" xMin="36" yMin="-16" xMax="500" yMax="624">
      <contour>
        <pt x="369" y="217" on="1"/>
        <pt x="184" y="217" on="1"/>
        <pt x="198" y="135" on="0"/>
        <pt x="281" y="43" on="0"/>
        <pt x="421" y="43" on="0"/>
        <pt x="488" y="101" on="1"/>
        <pt x="500" y="94" on="0"/>
        <pt x="500" y="77" on="1"/>
        <pt x="500" y="42" on="0"/>
        <pt x="395" y="-16" on="0"/>
        <pt x="327" y="-16" on="1"/>
        <pt x="232" y="-16" on="0"/>
        <pt x="113" y="108" on="0"/>
        <pt x="97" y="217" on="1"/>
        <pt x="36" y="217" on="1"/>
        <pt x="36" y="272" on="1"/>
        <pt x="92" y="272" on="1"/>
        <pt x="92" y="295" on="1"/>
        <pt x="92" y="314" on="0"/>
        <pt x="93" y="323" on="1"/>
        <pt x="36" y="323" on="1"/>
        <pt x="36" y="378" on="1"/>
        <pt x="98" y="378" on="1"/>
        <pt x="115" y="492" on="0"/>
        <pt x="242" y="624" on="0"/>
        <pt x="345" y="624" on="1"/>
        <pt x="414" y="624" on="0"/>
        <pt x="500" y="560" on="0"/>
        <pt x="500" y="512" on="1"/>
        <pt x="500" y="452" on="0"/>
        <pt x="433" y="450" on="1"/>
        <pt x="433" y="503" on="0"/>
        <pt x="378" y="567" on="0"/>
        <pt x="273" y="567" on="0"/>
        <pt x="194" y="466" on="0"/>
        <pt x="182" y="378" on="1"/>
        <pt x="369" y="378" on="1"/>
        <pt x="369" y="323" on="1"/>
        <pt x="177" y="323" on="1"/>
        <pt x="177" y="303" on="1"/>
        <pt x="177" y="282" on="0"/>
        <pt x="178" y="272" on="1"/>
        <pt x="369" y="272" on="1"/>
      </contour>
    </TTGlyph>
    <TTGlyph name="F" xMin="41" yMin="0" xMax="501" yMax="679">
      <contour>
        <pt x="501" y="679" on="1"/>
        <pt x="501" y="541" on="1"/>
        <pt x="501" y="506" on="0"/>
        <pt x="451" y="511" on="1"/>
        <pt x="440" y="621" on="1"/>
        <pt x="206" y="624" on="1"/>
        <pt x="206" y="372" on="1"/>
        <pt x="393" y="387" on="1"/>
        <pt x="402" y="348" on="0"/>
        <pt x="394" y="307" on="1"/>
        <pt x="206" y="318" on="1"/>
        <pt x="206" y="56" on="1"/>
        <pt x="294" y="50" on="1"/>
        <pt x="299" y="0" on="0"/>
        <pt x="261" y="0" on="1"/>
        <pt x="41" y="0" on="1"/>
        <pt x="41" y="8" on="1"/>
        <pt x="41" y="49" on="0"/>
        <pt x="76" y="52" on="1"/>
        <pt x="117" y="54" on="1"/>
        <pt x="117" y="623" on="1"/>
        <pt x="44" y="630" on="1"/>
        <pt x="39" y="679" on="0"/>
        <pt x="78" y="679" on="1"/>
      </contour>
    </TTGlyph>
    <TTGlyph name="G" xMin="37" yMin="-15" xMax="628" yMax="696">
      <contour>
        <pt x="399" y="309" on="1"/>
        <pt x="628" y="309" on="1"/>
        <pt x="628" y="309" on="0"/>
        <pt x="628" y="302" on="1"/>
        <pt x="628" y="261" on="0"/>
        <pt x="593" y="257" on="1"/>
        <pt x="566" y="254" on="1"/>
        <pt x="564" y="254" on="1"/>
        <pt x="564" y="77" on="1"/>
        <pt x="533" y="36" on="0"/>
        <pt x="397" y="-15" on="0"/>
        <pt x="322" y="-15" on="1"/>
        <pt x="187" y="-15" on="0"/>
        <pt x="40" y="161" on="0"/>
        <pt x="35" y="490" on="0"/>
        <pt x="201" y="696" on="0"/>
        <pt x="356" y="696" on="1"/>
        <pt x="461" y="696" on="0"/>
        <pt x="568" y="620" on="0"/>
        <pt x="568" y="567" on="1"/>
        <pt x="568" y="538" on="0"/>
        <pt x="531" y="500" on="0"/>
        <pt x="494" y="500" on="1"/>
        <pt x="494" y="571" on="0"/>
        <pt x="420" y="638" on="0"/>
        <pt x="343" y="638" on="1"/>
        <pt x="236" y="638" on="0"/>
        <pt x="130" y="476" on="0"/>
        <pt x="130" y="337" on="1"/>
        <pt x="130" y="50" on="0"/>
        <pt x="345" y="50" on="1"/>
        <pt x="438" y="50" on="0"/>
        <pt x="488" y="95" on="1"/>
        <pt x="488" y="252" on="1"/>
        <pt x="367" y="258" on="1"/>
        <pt x="362" y="309" on="0"/>
      </contour>
    </TTGlyph>
    <TTGlyph name="Gbreve" xMin="37" yMin="-15" xMax="628" yMax="887">
      <contour>
        <pt x="399" y="309" on="1"/>
        <pt x="628" y="309" on="1"/>
        <pt x="628" y="309" on="0"/>
        <pt x="628" y="302" on="1"/>
        <pt x="628" y="261" on="0"/>
        <pt x="593" y="257" on="1"/>
        <pt x="566" y="254" on="1"/>
        <pt x="564" y="254" on="1"/>
        <pt x="564" y="77" on="1"/>
        <pt x="533" y="36" on="0"/>
        <pt x="397" y="-15" on="0"/>
        <pt x="322" y="-15" on="1"/>
        <pt x="187" y="-15" on="0"/>
        <pt x="40" y="161" on="0"/>
        <pt x="35" y="490" on="0"/>
        <pt x="201" y="696" on="0"/>
        <pt x="356" y="696" on="1"/>
        <pt x="461" y="696" on="0"/>
        <pt x="568" y="620" on="0"/>
        <pt x="568" y="567" on="1"/>
        <pt x="568" y="538" on="0"/>
        <pt x="531" y="500" on="0"/>
        <pt x="494" y="500" on="1"/>
        <pt x="494" y="571" on="0"/>
        <pt x="420" y="638" on="0"/>
        <pt x="343" y="638" on="1"/>
        <pt x="236" y="638" on="0"/>
        <pt x="130" y="476" on="0"/>
        <pt x="130" y="337" on="1"/>
        <pt x="130" y="50" on="0"/>
        <pt x="345" y="50" on="1"/>
        <pt x="438" y="50" on="0"/>
        <pt x="488" y="95" on="1"/>
        <pt x="488" y="252" on="1"/>
        <pt x="367" y="258" on="1"/>
        <pt x="362" y="309" on="0"/>
      </contour>
      <contour>
        <pt x="486" y="817" on="0"/>
        <pt x="405" y="736" on="0"/>
        <pt x="266" y="736" on="0"/>
        <pt x="185" y="817" on="0"/>
        <pt x="178" y="870" on="1"/>
        <pt x="212" y="887" on="1"/>
        <pt x="224" y="857" on="0"/>
        <pt x="286" y="807" on="0"/>
        <pt x="337" y="807" on="1"/>
        <pt x="429" y="807" on="0"/>
        <pt x="459" y="886" on="1"/>
        <pt x="493" y="870" on="1"/>
      </contour>
    </TTGlyph>
    <TTGlyph name="Gcircumflex" xMin="37" yMin="-15" xMax="628" yMax="875">
      <contour>
        <pt x="399" y="309" on="1"/>
        <pt x="628" y="309" on="1"/>
        <pt x="628" y="309" on="0"/>
        <pt x="628" y="302" on="1"/>
        <pt x="628" y="261" on="0"/>
        <pt x="593" y="257" on="1"/>
        <pt x="566" y="254" on="1"/>
        <pt x="564" y="254" on="1"/>
        <pt x="564" y="77" on="1"/>
        <pt x="533" y="36" on="0"/>
        <pt x="397" y="-15" on="0"/>
        <pt x="322" y="-15" on="1"/>
        <pt x="187" y="-15" on="0"/>
        <pt x="40" y="161" on="0"/>
        <pt x="35" y="490" on="0"/>
        <pt x="201" y="696" on="0"/>
        <pt x="356" y="696" on="1"/>
        <pt x="461" y="696" on="0"/>
        <pt x="568" y="620" on="0"/>
        <pt x="568" y="567" on="1"/>
        <pt x="568" y="538" on="0"/>
        <pt x="531" y="500" on="0"/>
        <pt x="494" y="500" on="1"/>
        <pt x="494" y="571" on="0"/>
        <pt x="420" y="638" on="0"/>
        <pt x="343" y="638" on="1"/>
        <pt x="236" y="638" on="0"/>
        <pt x="130" y="476" on="0"/>
        <pt x="130" y="337" on="1"/>
        <pt x="130" y="50" on="0"/>
        <pt x="345" y="50" on="1"/>
        <pt x="438" y="50" on="0"/>
        <pt x="488" y="95" on="1"/>
        <pt x="488" y="252" on="1"/>
        <pt x="367" y="258" on="1"/>
        <pt x="362" y="309" on="0"/>
      </contour>
      <contour>
        <pt x="335" y="808" on="1"/>
        <pt x="199" y="721" on="1"/>
        <pt x="181" y="731" on="0"/>
        <pt x="169" y="752" on="1"/>
        <pt x="303" y="875" on="1"/>
        <pt x="337" y="882" on="0"/>
        <pt x="369" y="875" on="1"/>
        <pt x="501" y="752" on="1"/>
        <pt x="487" y="729" on="0"/>
        <pt x="470" y="721" on="1"/>
      </contour>
    </TTGlyph>
    <TTGlyph name="Gdotaccent" xMin="37" yMin="-15" xMax="628" yMax="888">
      <contour>
        <pt x="399" y="309" on="1"/>
        <pt x="628" y="309" on="1"/>
        <pt x="628" y="309" on="0"/>
        <pt x="628" y="302" on="1"/>
        <pt x="628" y="261" on="0"/>
        <pt x="593" y="257" on="1"/>
        <pt x="566" y="254" on="1"/>
        <pt x="564" y="254" on="1"/>
        <pt x="564" y="77" on="1"/>
        <pt x="533" y="36" on="0"/>
        <pt x="397" y="-15" on="0"/>
        <pt x="322" y="-15" on="1"/>
        <pt x="187" y="-15" on="0"/>
        <pt x="40" y="161" on="0"/>
        <pt x="35" y="490" on="0"/>
        <pt x="201" y="696" on="0"/>
        <pt x="356" y="696" on="1"/>
        <pt x="461" y="696" on="0"/>
        <pt x="568" y="620" on="0"/>
        <pt x="568" y="567" on="1"/>
        <pt x="568" y="538" on="0"/>
        <pt x="531" y="500" on="0"/>
        <pt x="494" y="500" on="1"/>
        <pt x="494" y="571" on="0"/>
        <pt x="420" y="638" on="0"/>
        <pt x="343" y="638" on="1"/>
        <pt x="236" y="638" on="0"/>
        <pt x="130" y="476" on="0"/>
        <pt x="130" y="337" on="1"/>
        <pt x="130" y="50" on="0"/>
        <pt x="345" y="50" on="1"/>
        <pt x="438" y="50" on="0"/>
        <pt x="488" y="95" on="1"/>
        <pt x="488" y="252" on="1"/>
        <pt x="367" y="258" on="1"/>
        <pt x="362" y="309" on="0"/>
      </contour>
      <contour>
        <pt x="362" y="775" on="0"/>
        <pt x="312" y="775" on="0"/>
        <pt x="280" y="807" on="0"/>
        <pt x="280" y="856" on="0"/>
        <pt x="312" y="888" on="0"/>
        <pt x="362" y="888" on="0"/>
        <pt x="394" y="856" on="0"/>
        <pt x="394" y="807" on="0"/>
      </contour>
    </TTGlyph>
    <TTGlyph name="H" xMin="41" yMin="0" xMax="687" yMax="679">
      <contour>
        <pt x="651" y="0" on="1"/>
        <pt x="448" y="0" on="1"/>
        <pt x="448" y="8" on="1"/>
        <pt x="448" y="49" on="0"/>
        <pt x="483" y="52" on="1"/>
        <pt x="524" y="54" on="1"/>
        <pt x="524" y="311" on="1"/>
        <pt x="204" y="311" on="1"/>
        <pt x="204" y="56" on="1"/>
        <pt x="278" y="50" on="1"/>
        <pt x="283" y="0" on="0"/>
        <pt x="245" y="0" on="1"/>
        <pt x="41" y="0" on="1"/>
        <pt x="41" y="8" on="1"/>
        <pt x="41" y="49" on="0"/>
        <pt x="76" y="52" on="1"/>
        <pt x="117" y="54" on="1"/>
        <pt x="117" y="623" on="1"/>
        <pt x="44" y="629" on="1"/>
        <pt x="39" y="679" on="0"/>
        <pt x="77" y="679" on="1"/>
        <pt x="281" y="679" on="1"/>
        <pt x="281" y="670" on="1"/>
        <pt x="281" y="631" on="0"/>
        <pt x="246" y="628" on="1"/>
        <pt x="205" y="625" on="1"/>
        <pt x="205" y="366" on="1"/>
        <pt x="524" y="366" on="1"/>
        <pt x="524" y="623" on="1"/>
        <pt x="452" y="629" on="1"/>
        <pt x="447" y="679" on="0"/>
        <pt x="484" y="679" on="1"/>
        <pt x="687" y="679" on="1"/>
        <pt x="687" y="670" on="1"/>
        <pt x="687" y="631" on="0"/>
        <pt x="652" y="628" on="1"/>
        <pt x="612" y="625" on="1"/>
        <pt x="612" y="56" on="1"/>
        <pt x="684" y="50" on="1"/>
        <pt x="689" y="0" on="0"/>
      </contour>
    </TTGlyph>
    <TTGlyph name="Hbar" xMin="41" yMin="0" xMax="687" yMax="679">
      <contour>
        <pt x="651" y="0" on="1"/>
        <pt x="448" y="0" on="1"/>
        <pt x="448" y="8" on="1"/>
        <pt x="448" y="49" on="0"/>
        <pt x="483" y="52" on="1"/>
        <pt x="524" y="54" on="1"/>
        <pt x="524" y="311" on="1"/>
        <pt x="204" y="311" on="1"/>
        <pt x="204" y="56" on="1"/>
        <pt x="278" y="50" on="1"/>
        <pt x="283" y="0" on="0"/>
        <pt x="245" y="0" on="1"/>
        <pt x="41" y="0" on="1"/>
        <pt x="41" y="8" on="1"/>
        <pt x="41" y="49" on="0"/>
        <pt x="76" y="52" on="1"/>
        <pt x="117" y="54" on="1"/>
        <pt x="117" y="457" on="1"/>
        <pt x="50" y="457" on="1"/>
        <pt x="50" y="513" on="1"/>
        <pt x="117" y="513" on="1"/>
        <pt x="117" y="623" on="1"/>
        <pt x="44" y="629" on="1"/>
        <pt x="39" y="679" on="0"/>
        <pt x="77" y="679" on="1"/>
        <pt x="281" y="679" on="1"/>
        <pt x="281" y="670" on="1"/>
        <pt x="281" y="631" on="0"/>
        <pt x="246" y="628" on="1"/>
        <pt x="205" y="625" on="1"/>
        <pt x="205" y="513" on="1"/>
        <pt x="524" y="513" on="1"/>
        <pt x="524" y="623" on="1"/>
        <pt x="452" y="629" on="1"/>
        <pt x="447" y="679" on="0"/>
        <pt x="484" y="679" on="1"/>
        <pt x="687" y="679" on="1"/>
        <pt x="687" y="670" on="1"/>
        <pt x="687" y="631" on="0"/>
        <pt x="652" y="628" on="1"/>
        <pt x="612" y="625" on="1"/>
        <pt x="612" y="513" on="1"/>
        <pt x="677" y="513" on="1"/>
        <pt x="677" y="457" on="1"/>
        <pt x="612" y="457" on="1"/>
        <pt x="612" y="56" on="1"/>
        <pt x="684" y="50" on="1"/>
        <pt x="689" y="0" on="0"/>
      </contour>
      <contour>
        <pt x="205" y="366" on="1"/>
        <pt x="524" y="366" on="1"/>
        <pt x="524" y="457" on="1"/>
        <pt x="205" y="457" on="1"/>
      </contour>
    </TTGlyph>
    <TTGlyph name="Hcircumflex" xMin="41" yMin="0" xMax="687" yMax="875">
      <contour>
        <pt x="651" y="0" on="1"/>
        <pt x="448" y="0" on="1"/>
        <pt x="448" y="8" on="1"/>
        <pt x="448" y="49" on="0"/>
        <pt x="483" y="52" on="1"/>
        <pt x="524" y="54" on="1"/>
        <pt x="524" y="311" on="1"/>
        <pt x="204" y="311" on="1"/>
        <pt x="204" y="56" on="1"/>
        <pt x="278" y="50" on="1"/>
        <pt x="283" y="0" on="0"/>
        <pt x="245" y="0" on="1"/>
        <pt x="41" y="0" on="1"/>
        <pt x="41" y="8" on="1"/>
        <pt x="41" y="49" on="0"/>
        <pt x="76" y="52" on="1"/>
        <pt x="117" y="54" on="1"/>
        <pt x="117" y="623" on="1"/>
        <pt x="44" y="629" on="1"/>
        <pt x="39" y="679" on="0"/>
        <pt x="77" y="679" on="1"/>
        <pt x="281" y="679" on="1"/>
        <pt x="281" y="670" on="1"/>
        <pt x="281" y="631" on="0"/>
        <pt x="246" y="628" on="1"/>
        <pt x="205" y="625" on="1"/>
        <pt x="205" y="366" on="1"/>
        <pt x="524" y="366" on="1"/>
        <pt x="524" y="623" on="1"/>
        <pt x="452" y="629" on="1"/>
        <pt x="447" y="679" on="0"/>
        <pt x="484" y="679" on="1"/>
        <pt x="687" y="679" on="1"/>
        <pt x="687" y="670" on="1"/>
        <pt x="687" y="631" on="0"/>
        <pt x="652" y="628" on="1"/>
        <pt x="612" y="625" on="1"/>
        <pt x="612" y="56" on="1"/>
        <pt x="684" y="50" on="1"/>
        <pt x="689" y="0" on="0"/>
      </contour>
      <contour>
        <pt x="367" y="808" on="1"/>
        <pt x="231" y="721" on="1"/>
        <pt x="213" y="731" on="0"/>
        <pt x="201" y="752" on="1"/>
        <pt x="335" y="875" on="1"/>
        <pt x="369" y="882" on="0"/>
        <pt x="401" y="875" on="1"/>
        <pt x="533" y="752" on="1"/>
        <pt x="519" y="729" on="0"/>
        <pt x="502" y="721" on="1"/>
      </contour>
    </TTGlyph>
    <TTGlyph name="I" xMin="41" yMin="0" xMax="281" yMax="679">
      <contour>
        <pt x="245" y="0" on="1"/>
        <pt x="41" y="0" on="1"/>
        <pt x="41" y="8" on="1"/>
        <pt x="41" y="49" on="0"/>
        <pt x="76" y="52" on="1"/>
        <pt x="117" y="54" on="1"/>
        <pt x="117" y="623" on="1"/>
        <pt x="44" y="629" on="1"/>
        <pt x="39" y="679" on="0"/>
        <pt x="77" y="679" on="1"/>
        <pt x="281" y="679" on="1"/>
        <pt x="281" y="670" on="1"/>
        <pt x="281" y="631" on="0"/>
        <pt x="246" y="628" on="1"/>
        <pt x="205" y="625" on="1"/>
        <pt x="204" y="625" on="1"/>
        <pt x="204" y="56" on="1"/>
        <pt x="205" y="56" on="1"/>
        <pt x="278" y="50" on="1"/>
        <pt x="283" y="0" on="0"/>
      </contour>
    </TTGlyph>
    <TTGlyph name="IJ" xMin="41" yMin="-124" xMax="573" yMax="681">
      <contour>
        <pt x="364" y="681" on="1"/>
        <pt x="573" y="681" on="1"/>
        <pt x="573" y="672" on="1"/>
        <pt x="573" y="643" on="0"/>
        <pt x="556" y="634" on="1"/>
        <pt x="549" y="630" on="0"/>
        <pt x="500" y="626" on="1"/>
        <pt x="499" y="96" on="1"/>
        <pt x="499" y="5" on="0"/>
        <pt x="414" y="-124" on="0"/>
        <pt x="337" y="-124" on="1"/>
        <pt x="299" y="-124" on="0"/>
        <pt x="249" y="-85" on="0"/>
        <pt x="249" y="-57" on="1"/>
        <pt x="249" y="-2" on="0"/>
        <pt x="308" y="-3" on="1"/>
        <pt x="310" y="-61" on="0"/>
        <pt x="357" y="-61" on="1"/>
        <pt x="384" y="-61" on="0"/>
        <pt x="409" y="-7" on="0"/>
        <pt x="409" y="62" on="1"/>
        <pt x="410" y="624" on="1"/>
        <pt x="331" y="630" on="1"/>
        <pt x="326" y="681" on="0"/>
      </contour>
      <contour>
        <pt x="245" y="0" on="1"/>
        <pt x="41" y="0" on="1"/>
        <pt x="41" y="8" on="1"/>
        <pt x="41" y="49" on="0"/>
        <pt x="76" y="52" on="1"/>
        <pt x="117" y="54" on="1"/>
        <pt x="117" y="623" on="1"/>
        <pt x="44" y="629" on="1"/>
        <pt x="39" y="679" on="0"/>
        <pt x="77" y="679" on="1"/>
        <pt x="281" y="679" on="1"/>
        <pt x="281" y="670" on="1"/>
        <pt x="281" y="631" on="0"/>
        <pt x="246" y="628" on="1"/>
        <pt x="205" y="625" on="1"/>
        <pt x="204" y="625" on="1"/>
        <pt x="204" y="56" on="1"/>
        <pt x="205" y="56" on="1"/>
        <pt x="278" y="50" on="1"/>
        <pt x="283" y="0" on="0"/>
      </contour>
    </TTGlyph>
    <TTGlyph name="Iacute" xMin="41" yMin="0" xMax="317" yMax="893">
      <contour>
        <pt x="204" y="625" on="1"/>
        <pt x="204" y="56" on="1"/>
        <pt x="205" y="56" on="1"/>
        <pt x="278" y="50" on="1"/>
        <pt x="283" y="0" on="0"/>
        <pt x="245" y="0" on="1"/>
        <pt x="41" y="0" on="1"/>
        <pt x="41" y="8" on="1"/>
        <pt x="41" y="49" on="0"/>
        <pt x="76" y="52" on="1"/>
        <pt x="117" y="54" on="1"/>
        <pt x="117" y="623" on="1"/>
        <pt x="44" y="629" on="1"/>
        <pt x="39" y="679" on="0"/>
        <pt x="77" y="679" on="1"/>
        <pt x="281" y="679" on="1"/>
        <pt x="281" y="670" on="1"/>
        <pt x="281" y="631" on="0"/>
        <pt x="246" y="628" on="1"/>
        <pt x="205" y="625" on="1"/>
      </contour>
      <contour>
        <pt x="317" y="838" on="1"/>
        <pt x="116" y="730" on="1"/>
        <pt x="94" y="742" on="0"/>
        <pt x="83" y="763" on="1"/>
        <pt x="248" y="893" on="1"/>
        <pt x="268" y="890" on="0"/>
        <pt x="308" y="856" on="0"/>
      </contour>
    </TTGlyph>
    <TTGlyph name="Ibreve" xMin="6" yMin="0" xMax="322" yMax="887">
      <contour>
        <pt x="204" y="625" on="1"/>
        <pt x="204" y="56" on="1"/>
        <pt x="205" y="56" on="1"/>
        <pt x="278" y="50" on="1"/>
        <pt x="283" y="0" on="0"/>
        <pt x="245" y="0" on="1"/>
        <pt x="41" y="0" on="1"/>
        <pt x="41" y="8" on="1"/>
        <pt x="41" y="49" on="0"/>
        <pt x="76" y="52" on="1"/>
        <pt x="117" y="54" on="1"/>
        <pt x="117" y="623" on="1"/>
        <pt x="44" y="629" on="1"/>
        <pt x="39" y="679" on="0"/>
        <pt x="77" y="679" on="1"/>
        <pt x="281" y="679" on="1"/>
        <pt x="281" y="670" on="1"/>
        <pt x="281" y="631" on="0"/>
        <pt x="246" y="628" on="1"/>
        <pt x="205" y="625" on="1"/>
      </contour>
      <contour>
        <pt x="314" y="817" on="0"/>
        <pt x="233" y="737" on="0"/>
        <pt x="94" y="737" on="0"/>
        <pt x="14" y="817" on="0"/>
        <pt x="6" y="870" on="1"/>
        <pt x="41" y="887" on="1"/>
        <pt x="52" y="858" on="0"/>
        <pt x="114" y="807" on="0"/>
        <pt x="165" y="807" on="1"/>
        <pt x="256" y="807" on="0"/>
        <pt x="287" y="886" on="1"/>
        <pt x="322" y="870" on="1"/>
      </contour>
    </TTGlyph>
    <TTGlyph name="Icircumflex" xMin="-3" yMin="0" xMax="329" yMax="874">
      <contour>
        <pt x="197" y="874" on="1"/>
        <pt x="329" y="752" on="1"/>
        <pt x="316" y="730" on="0"/>
        <pt x="298" y="721" on="1"/>
        <pt x="163" y="808" on="1"/>
        <pt x="27" y="721" on="1"/>
        <pt x="9" y="731" on="0"/>
        <pt x="-3" y="752" on="1"/>
        <pt x="131" y="874" on="1"/>
        <pt x="166" y="882" on="0"/>
      </contour>
      <contour>
        <pt x="204" y="625" on="1"/>
        <pt x="204" y="56" on="1"/>
        <pt x="205" y="56" on="1"/>
        <pt x="278" y="50" on="1"/>
        <pt x="283" y="0" on="0"/>
        <pt x="245" y="0" on="1"/>
        <pt x="41" y="0" on="1"/>
        <pt x="41" y="8" on="1"/>
        <pt x="41" y="49" on="0"/>
        <pt x="76" y="52" on="1"/>
        <pt x="117" y="54" on="1"/>
        <pt x="117" y="623" on="1"/>
        <pt x="44" y="629" on="1"/>
        <pt x="39" y="679" on="0"/>
        <pt x="77" y="679" on="1"/>
        <pt x="281" y="679" on="1"/>
        <pt x="281" y="670" on="1"/>
        <pt x="281" y="631" on="0"/>
        <pt x="246" y="628" on="1"/>
        <pt x="205" y="625" on="1"/>
      </contour>
    </TTGlyph>
    <TTGlyph name="Idieresis" xMin="17" yMin="0" xMax="305" yMax="866">
      <contour>
        <pt x="190" y="832" on="0"/>
        <pt x="224" y="866" on="0"/>
        <pt x="272" y="866" on="0"/>
        <pt x="305" y="832" on="0"/>
        <pt x="305" y="785" on="0"/>
        <pt x="272" y="752" on="0"/>
        <pt x="224" y="752" on="0"/>
        <pt x="190" y="785" on="0"/>
      </contour>
      <contour>
        <pt x="204" y="625" on="1"/>
        <pt x="204" y="56" on="1"/>
        <pt x="205" y="56" on="1"/>
        <pt x="278" y="50" on="1"/>
        <pt x="283" y="0" on="0"/>
        <pt x="245" y="0" on="1"/>
        <pt x="41" y="0" on="1"/>
        <pt x="41" y="8" on="1"/>
        <pt x="41" y="49" on="0"/>
        <pt x="76" y="52" on="1"/>
        <pt x="117" y="54" on="1"/>
        <pt x="117" y="623" on="1"/>
        <pt x="44" y="629" on="1"/>
        <pt x="39" y="679" on="0"/>
        <pt x="77" y="679" on="1"/>
        <pt x="281" y="679" on="1"/>
        <pt x="281" y="670" on="1"/>
        <pt x="281" y="631" on="0"/>
        <pt x="246" y="628" on="1"/>
        <pt x="205" y="625" on="1"/>
      </contour>
      <contour>
        <pt x="99" y="866" on="0"/>
        <pt x="132" y="832" on="0"/>
        <pt x="132" y="785" on="0"/>
        <pt x="99" y="752" on="0"/>
        <pt x="51" y="752" on="0"/>
        <pt x="17" y="785" on="0"/>
        <pt x="17" y="832" on="0"/>
        <pt x="51" y="866" on="0"/>
      </contour>
    </TTGlyph>
    <TTGlyph name="Idotaccent" xMin="41" yMin="0" xMax="281" yMax="888">
      <contour>
        <pt x="245" y="0" on="1"/>
        <pt x="41" y="0" on="1"/>
        <pt x="41" y="8" on="1"/>
        <pt x="41" y="49" on="0"/>
        <pt x="76" y="52" on="1"/>
        <pt x="117" y="54" on="1"/>
        <pt x="117" y="623" on="1"/>
        <pt x="44" y="629" on="1"/>
        <pt x="39" y="679" on="0"/>
        <pt x="77" y="679" on="1"/>
        <pt x="281" y="679" on="1"/>
        <pt x="281" y="670" on="1"/>
        <pt x="281" y="631" on="0"/>
        <pt x="246" y="628" on="1"/>
        <pt x="205" y="625" on="1"/>
        <pt x="204" y="625" on="1"/>
        <pt x="204" y="56" on="1"/>
        <pt x="205" y="56" on="1"/>
        <pt x="278" y="50" on="1"/>
        <pt x="283" y="0" on="0"/>
      </contour>
      <contour>
        <pt x="190" y="775" on="0"/>
        <pt x="140" y="775" on="0"/>
        <pt x="108" y="806" on="0"/>
        <pt x="108" y="856" on="0"/>
        <pt x="140" y="888" on="0"/>
        <pt x="190" y="888" on="0"/>
        <pt x="221" y="856" on="0"/>
        <pt x="221" y="806" on="0"/>
      </contour>
    </TTGlyph>
    <TTGlyph name="Igrave" xMin="25" yMin="0" xMax="281" yMax="887">
      <contour>
        <pt x="245" y="0" on="1"/>
        <pt x="41" y="0" on="1"/>
        <pt x="41" y="8" on="1"/>
        <pt x="41" y="49" on="0"/>
        <pt x="76" y="52" on="1"/>
        <pt x="117" y="54" on="1"/>
        <pt x="117" y="623" on="1"/>
        <pt x="44" y="629" on="1"/>
        <pt x="39" y="679" on="0"/>
        <pt x="77" y="679" on="1"/>
        <pt x="281" y="679" on="1"/>
        <pt x="281" y="670" on="1"/>
        <pt x="281" y="631" on="0"/>
        <pt x="246" y="628" on="1"/>
        <pt x="205" y="625" on="1"/>
        <pt x="204" y="625" on="1"/>
        <pt x="204" y="56" on="1"/>
        <pt x="205" y="56" on="1"/>
        <pt x="278" y="50" on="1"/>
        <pt x="283" y="0" on="0"/>
      </contour>
      <contour>
        <pt x="94" y="887" on="1"/>
        <pt x="259" y="758" on="1"/>
        <pt x="248" y="736" on="0"/>
        <pt x="226" y="725" on="1"/>
        <pt x="25" y="833" on="1"/>
        <pt x="34" y="851" on="0"/>
        <pt x="75" y="885" on="0"/>
      </contour>
    </TTGlyph>
    <TTGlyph name="Imacron" xMin="26" yMin="0" xMax="299" yMax="824">
      <contour>
        <pt x="26" y="824" on="1"/>
        <pt x="299" y="824" on="1"/>
        <pt x="299" y="764" on="1"/>
        <pt x="26" y="764" on="1"/>
      </contour>
      <contour>
        <pt x="204" y="625" on="1"/>
        <pt x="204" y="56" on="1"/>
        <pt x="205" y="56" on="1"/>
        <pt x="278" y="50" on="1"/>
        <pt x="283" y="0" on="0"/>
        <pt x="245" y="0" on="1"/>
        <pt x="41" y="0" on="1"/>
        <pt x="41" y="8" on="1"/>
        <pt x="41" y="49" on="0"/>
        <pt x="76" y="52" on="1"/>
        <pt x="117" y="54" on="1"/>
        <pt x="117" y="623" on="1"/>
        <pt x="44" y="629" on="1"/>
        <pt x="39" y="679" on="0"/>
        <pt x="77" y="679" on="1"/>
        <pt x="281" y="679" on="1"/>
        <pt x="281" y="670" on="1"/>
        <pt x="281" y="631" on="0"/>
        <pt x="246" y="628" on="1"/>
        <pt x="205" y="625" on="1"/>
      </contour>
    </TTGlyph>
    <TTGlyph name="Iogonek" xMin="41" yMin="-166" xMax="337" yMax="679">
      <contour>
        <pt x="299" y="13" on="1"/>
        <pt x="226" y="-17" on="0"/>
        <pt x="226" y="-120" on="0"/>
        <pt x="274" y="-120" on="1"/>
        <pt x="301" y="-120" on="0"/>
        <pt x="330" y="-98" on="1"/>
        <pt x="334" y="-101" on="0"/>
        <pt x="339" y="-125" on="0"/>
        <pt x="337" y="-132" on="1"/>
        <pt x="313" y="-166" on="0"/>
        <pt x="253" y="-166" on="1"/>
        <pt x="213" y="-166" on="0"/>
        <pt x="162" y="-123" on="0"/>
        <pt x="162" y="-88" on="1"/>
        <pt x="162" y="-37" on="0"/>
        <pt x="209" y="0" on="1"/>
        <pt x="41" y="0" on="1"/>
        <pt x="41" y="8" on="1"/>
        <pt x="41" y="49" on="0"/>
        <pt x="76" y="52" on="1"/>
        <pt x="117" y="54" on="1"/>
        <pt x="117" y="623" on="1"/>
        <pt x="44" y="629" on="1"/>
        <pt x="39" y="679" on="0"/>
        <pt x="77" y="679" on="1"/>
        <pt x="281" y="679" on="1"/>
        <pt x="281" y="670" on="1"/>
        <pt x="281" y="631" on="0"/>
        <pt x="246" y="628" on="1"/>
        <pt x="205" y="625" on="1"/>
        <pt x="204" y="625" on="1"/>
        <pt x="204" y="56" on="1"/>
        <pt x="205" y="56" on="1"/>
        <pt x="278" y="50" on="1"/>
        <pt x="278" y="49" on="0"/>
        <pt x="279" y="39" on="0"/>
        <pt x="279" y="36" on="1"/>
        <pt x="282" y="37" on="1"/>
      </contour>
    </TTGlyph>
    <TTGlyph name="Itilde" xMin="-4" yMin="0" xMax="332" yMax="874">
      <contour>
        <pt x="224" y="750" on="1"/>
        <pt x="189" y="750" on="0"/>
        <pt x="104" y="801" on="0"/>
        <pt x="63" y="801" on="0"/>
        <pt x="34" y="774" on="0"/>
        <pt x="28" y="754" on="1"/>
        <pt x="-4" y="766" on="1"/>
        <pt x="6" y="816" on="0"/>
        <pt x="63" y="874" on="0"/>
        <pt x="131" y="874" on="0"/>
        <pt x="212" y="819" on="0"/>
        <pt x="263" y="819" on="0"/>
        <pt x="296" y="847" on="0"/>
        <pt x="301" y="870" on="1"/>
        <pt x="332" y="861" on="1"/>
        <pt x="315" y="750" on="0"/>
      </contour>
      <contour>
        <pt x="204" y="625" on="1"/>
        <pt x="204" y="56" on="1"/>
        <pt x="205" y="56" on="1"/>
        <pt x="278" y="50" on="1"/>
        <pt x="283" y="0" on="0"/>
        <pt x="245" y="0" on="1"/>
        <pt x="41" y="0" on="1"/>
        <pt x="41" y="8" on="1"/>
        <pt x="41" y="49" on="0"/>
        <pt x="76" y="52" on="1"/>
        <pt x="117" y="54" on="1"/>
        <pt x="117" y="623" on="1"/>
        <pt x="44" y="629" on="1"/>
        <pt x="39" y="679" on="0"/>
        <pt x="77" y="679" on="1"/>
        <pt x="281" y="679" on="1"/>
        <pt x="281" y="670" on="1"/>
        <pt x="281" y="631" on="0"/>
        <pt x="246" y="628" on="1"/>
        <pt x="205" y="625" on="1"/>
      </contour>
    </TTGlyph>
    <TTGlyph name="J" xMin="-1" yMin="-62" xMax="320" yMax="679">
      <contour>
        <pt x="113" y="679" on="1"/>
        <pt x="320" y="679" on="1"/>
        <pt x="320" y="670" on="1"/>
        <pt x="320" y="631" on="0"/>
        <pt x="285" y="628" on="1"/>
        <pt x="247" y="625" on="1"/>
        <pt x="247" y="133" on="1"/>
        <pt x="247" y="47" on="0"/>
        <pt x="161" y="-62" on="0"/>
        <pt x="87" y="-62" on="1"/>
        <pt x="49" y="-62" on="0"/>
        <pt x="-1" y="-23" on="0"/>
        <pt x="-1" y="5" on="1"/>
        <pt x="-1" y="60" on="0"/>
        <pt x="58" y="59" on="1"/>
        <pt x="60" y="1" on="0"/>
        <pt x="108" y="1" on="1"/>
        <pt x="134" y="1" on="0"/>
        <pt x="160" y="55" on="0"/>
        <pt x="160" y="124" on="1"/>
        <pt x="160" y="623" on="1"/>
        <pt x="159" y="623" on="1"/>
        <pt x="80" y="629" on="1"/>
        <pt x="75" y="679" on="0"/>
      </contour>
    </TTGlyph>
    <TTGlyph name="Jcircumflex" xMin="-1" yMin="-62" xMax="371" yMax="875">
      <contour>
        <pt x="239" y="875" on="1"/>
        <pt x="371" y="752" on="1"/>
        <pt x="357" y="729" on="0"/>
        <pt x="340" y="721" on="1"/>
        <pt x="205" y="808" on="1"/>
        <pt x="69" y="721" on="1"/>
        <pt x="51" y="731" on="0"/>
        <pt x="39" y="752" on="1"/>
        <pt x="173" y="875" on="1"/>
        <pt x="207" y="882" on="0"/>
      </contour>
      <contour>
        <pt x="113" y="679" on="1"/>
        <pt x="320" y="679" on="1"/>
        <pt x="320" y="670" on="1"/>
        <pt x="320" y="631" on="0"/>
        <pt x="285" y="628" on="1"/>
        <pt x="247" y="625" on="1"/>
        <pt x="247" y="133" on="1"/>
        <pt x="247" y="47" on="0"/>
        <pt x="161" y="-62" on="0"/>
        <pt x="87" y="-62" on="1"/>
        <pt x="49" y="-62" on="0"/>
        <pt x="-1" y="-23" on="0"/>
        <pt x="-1" y="5" on="1"/>
        <pt x="-1" y="60" on="0"/>
        <pt x="58" y="59" on="1"/>
        <pt x="60" y="1" on="0"/>
        <pt x="108" y="1" on="1"/>
        <pt x="134" y="1" on="0"/>
        <pt x="160" y="55" on="0"/>
        <pt x="160" y="124" on="1"/>
        <pt x="160" y="623" on="1"/>
        <pt x="159" y="623" on="1"/>
        <pt x="80" y="629" on="1"/>
        <pt x="75" y="679" on="0"/>
      </contour>
    </TTGlyph>
    <TTGlyph name="K" xMin="41" yMin="0" xMax="591" yMax="679">
      <contour>
        <pt x="587" y="679" on="1"/>
        <pt x="587" y="628" on="0"/>
        <pt x="552" y="628" on="1"/>
        <pt x="512" y="625" on="1"/>
        <pt x="304" y="370" on="1"/>
        <pt x="528" y="54" on="1"/>
        <pt x="590" y="48" on="1"/>
        <pt x="591" y="41" on="0"/>
        <pt x="591" y="20" on="0"/>
        <pt x="572" y="0" on="0"/>
        <pt x="557" y="0" on="1"/>
        <pt x="458" y="0" on="1"/>
        <pt x="247" y="300" on="1"/>
        <pt x="204" y="248" on="1"/>
        <pt x="204" y="56" on="1"/>
        <pt x="282" y="50" on="1"/>
        <pt x="287" y="0" on="0"/>
        <pt x="249" y="0" on="1"/>
        <pt x="41" y="0" on="1"/>
        <pt x="41" y="8" on="1"/>
        <pt x="41" y="49" on="0"/>
        <pt x="76" y="52" on="1"/>
        <pt x="117" y="54" on="1"/>
        <pt x="117" y="623" on="1"/>
        <pt x="44" y="629" on="1"/>
        <pt x="39" y="679" on="0"/>
        <pt x="77" y="679" on="1"/>
        <pt x="281" y="679" on="1"/>
        <pt x="281" y="670" on="1"/>
        <pt x="281" y="631" on="0"/>
        <pt x="246" y="628" on="1"/>
        <pt x="205" y="625" on="1"/>
        <pt x="204" y="331" on="1"/>
        <pt x="439" y="624" on="1"/>
        <pt x="375" y="629" on="1"/>
        <pt x="370" y="679" on="0"/>
        <pt x="407" y="679" on="1"/>
      </contour>
    </TTGlyph>
    <TTGlyph name="L" xMin="41" yMin="0" xMax="514" yMax="681">
      <contour>
        <pt x="514" y="150" on="1"/>
        <pt x="514" y="0" on="1"/>
        <pt x="41" y="0" on="1"/>
        <pt x="41" y="8" on="1"/>
        <pt x="41" y="49" on="0"/>
        <pt x="76" y="52" on="1"/>
        <pt x="117" y="54" on="1"/>
        <pt x="117" y="624" on="1"/>
        <pt x="45" y="630" on="1"/>
        <pt x="40" y="681" on="0"/>
        <pt x="77" y="681" on="1"/>
        <pt x="290" y="681" on="1"/>
        <pt x="290" y="672" on="1"/>
        <pt x="290" y="643" on="0"/>
        <pt x="274" y="634" on="1"/>
        <pt x="266" y="630" on="0"/>
        <pt x="255" y="629" on="1"/>
        <pt x="205" y="626" on="1"/>
        <pt x="204" y="626" on="1"/>
        <pt x="204" y="56" on="1"/>
        <pt x="452" y="62" on="1"/>
        <pt x="464" y="180" on="1"/>
        <pt x="514" y="185" on="0"/>
      </contour>
    </TTGlyph>
    <TTGlyph name="Lacute" xMin="41" yMin="0" xMax="514" yMax="893">
      <contour>
        <pt x="514" y="150" on="1"/>
        <pt x="514" y="0" on="1"/>
        <pt x="41" y="0" on="1"/>
        <pt x="41" y="8" on="1"/>
        <pt x="41" y="49" on="0"/>
        <pt x="76" y="52" on="1"/>
        <pt x="117" y="54" on="1"/>
        <pt x="117" y="624" on="1"/>
        <pt x="45" y="630" on="1"/>
        <pt x="40" y="681" on="0"/>
        <pt x="77" y="681" on="1"/>
        <pt x="290" y="681" on="1"/>
        <pt x="290" y="672" on="1"/>
        <pt x="290" y="643" on="0"/>
        <pt x="274" y="634" on="1"/>
        <pt x="266" y="630" on="0"/>
        <pt x="255" y="629" on="1"/>
        <pt x="205" y="626" on="1"/>
        <pt x="204" y="626" on="1"/>
        <pt x="204" y="56" on="1"/>
        <pt x="452" y="62" on="1"/>
        <pt x="464" y="180" on="1"/>
        <pt x="514" y="185" on="0"/>
      </contour>
      <contour>
        <pt x="362" y="838" on="1"/>
        <pt x="161" y="730" on="1"/>
        <pt x="139" y="742" on="0"/>
        <pt x="128" y="763" on="1"/>
        <pt x="294" y="893" on="1"/>
        <pt x="313" y="890" on="0"/>
        <pt x="354" y="856" on="0"/>
      </contour>
    </TTGlyph>
    <TTGlyph name="Lcaron" xMin="41" yMin="0" xMax="514" yMax="759">
      <contour>
        <pt x="514" y="150" on="1"/>
        <pt x="514" y="0" on="1"/>
        <pt x="41" y="0" on="1"/>
        <pt x="41" y="8" on="1"/>
        <pt x="41" y="49" on="0"/>
        <pt x="76" y="52" on="1"/>
        <pt x="117" y="54" on="1"/>
        <pt x="117" y="624" on="1"/>
        <pt x="45" y="630" on="1"/>
        <pt x="40" y="681" on="0"/>
        <pt x="77" y="681" on="1"/>
        <pt x="290" y="681" on="1"/>
        <pt x="290" y="672" on="1"/>
        <pt x="290" y="643" on="0"/>
        <pt x="274" y="634" on="1"/>
        <pt x="266" y="630" on="0"/>
        <pt x="255" y="629" on="1"/>
        <pt x="205" y="626" on="1"/>
        <pt x="204" y="626" on="1"/>
        <pt x="204" y="56" on="1"/>
        <pt x="452" y="62" on="1"/>
        <pt x="464" y="180" on="1"/>
        <pt x="514" y="185" on="0"/>
      </contour>
      <contour>
        <pt x="386" y="541" on="1"/>
        <pt x="380" y="537" on="0"/>
        <pt x="345" y="555" on="0"/>
        <pt x="345" y="561" on="1"/>
        <pt x="359" y="597" on="0"/>
        <pt x="362" y="717" on="0"/>
        <pt x="351" y="749" on="1"/>
        <pt x="365" y="763" on="0"/>
        <pt x="444" y="754" on="0"/>
        <pt x="451" y="735" on="1"/>
        <pt x="453" y="679" on="0"/>
        <pt x="419" y="576" on="0"/>
      </contour>
    </TTGlyph>
    <TTGlyph name="Ldot" xMin="41" yMin="0" xMax="514" yMax="681">
      <contour>
        <pt x="514" y="150" on="1"/>
        <pt x="514" y="0" on="1"/>
        <pt x="41" y="0" on="1"/>
        <pt x="41" y="8" on="1"/>
        <pt x="41" y="49" on="0"/>
        <pt x="76" y="52" on="1"/>
        <pt x="117" y="54" on="1"/>
        <pt x="117" y="624" on="1"/>
        <pt x="45" y="630" on="1"/>
        <pt x="40" y="681" on="0"/>
        <pt x="77" y="681" on="1"/>
        <pt x="290" y="681" on="1"/>
        <pt x="290" y="672" on="1"/>
        <pt x="290" y="643" on="0"/>
        <pt x="274" y="634" on="1"/>
        <pt x="266" y="630" on="0"/>
        <pt x="255" y="629" on="1"/>
        <pt x="205" y="626" on="1"/>
        <pt x="204" y="626" on="1"/>
        <pt x="204" y="56" on="1"/>
        <pt x="452" y="62" on="1"/>
        <pt x="464" y="180" on="1"/>
        <pt x="514" y="185" on="0"/>
      </contour>
      <contour>
        <pt x="485" y="313" on="0"/>
        <pt x="449" y="277" on="0"/>
        <pt x="396" y="277" on="0"/>
        <pt x="360" y="313" on="0"/>
        <pt x="360" y="367" on="0"/>
        <pt x="396" y="403" on="0"/>
        <pt x="449" y="403" on="0"/>
        <pt x="485" y="367" on="0"/>
      </contour>
    </TTGlyph>
    <TTGlyph name="Lslash" xMin="25" yMin="0" xMax="519" yMax="681">
      <contour>
        <pt x="519" y="150" on="1"/>
        <pt x="519" y="0" on="1"/>
        <pt x="46" y="0" on="1"/>
        <pt x="46" y="8" on="1"/>
        <pt x="46" y="49" on="0"/>
        <pt x="81" y="52" on="1"/>
        <pt x="122" y="54" on="1"/>
        <pt x="122" y="229" on="1"/>
        <pt x="61" y="181" on="1"/>
        <pt x="25" y="225" on="1"/>
        <pt x="122" y="301" on="1"/>
        <pt x="122" y="624" on="1"/>
        <pt x="50" y="630" on="1"/>
        <pt x="45" y="681" on="0"/>
        <pt x="82" y="681" on="1"/>
        <pt x="295" y="681" on="1"/>
        <pt x="295" y="672" on="1"/>
        <pt x="295" y="643" on="0"/>
        <pt x="278" y="634" on="1"/>
        <pt x="271" y="630" on="0"/>
        <pt x="260" y="629" on="1"/>
        <pt x="210" y="626" on="1"/>
        <pt x="209" y="626" on="1"/>
        <pt x="209" y="370" on="1"/>
        <pt x="322" y="459" on="1"/>
        <pt x="358" y="415" on="1"/>
        <pt x="209" y="298" on="1"/>
        <pt x="209" y="56" on="1"/>
        <pt x="457" y="62" on="1"/>
        <pt x="469" y="180" on="1"/>
        <pt x="519" y="185" on="0"/>
      </contour>
    </TTGlyph>
    <TTGlyph name="M" xMin="13" yMin="0" xMax="818" yMax="681">
      <contour>
        <pt x="785" y="0" on="1"/>
        <pt x="587" y="0" on="1"/>
        <pt x="587" y="8" on="1"/>
        <pt x="587" y="49" on="0"/>
        <pt x="622" y="52" on="1"/>
        <pt x="661" y="54" on="1"/>
        <pt x="624" y="566" on="1"/>
        <pt x="438" y="119" on="1"/>
        <pt x="409" y="111" on="0"/>
        <pt x="388" y="115" on="1"/>
        <pt x="193" y="549" on="1"/>
        <pt x="158" y="56" on="1"/>
        <pt x="233" y="50" on="1"/>
        <pt x="238" y="0" on="0"/>
        <pt x="201" y="0" on="1"/>
        <pt x="13" y="0" on="1"/>
        <pt x="13" y="8" on="1"/>
        <pt x="13" y="49" on="0"/>
        <pt x="48" y="52" on="1"/>
        <pt x="91" y="54" on="1"/>
        <pt x="134" y="624" on="1"/>
        <pt x="64" y="630" on="1"/>
        <pt x="59" y="681" on="0"/>
        <pt x="96" y="681" on="1"/>
        <pt x="231" y="681" on="1"/>
        <pt x="426" y="244" on="1"/>
        <pt x="602" y="681" on="1"/>
        <pt x="744" y="681" on="1"/>
        <pt x="781" y="681" on="0"/>
        <pt x="776" y="630" on="1"/>
        <pt x="706" y="624" on="1"/>
        <pt x="750" y="58" on="1"/>
        <pt x="818" y="50" on="1"/>
        <pt x="823" y="0" on="0"/>
      </contour>
    </TTGlyph>
    <TTGlyph name="N" xMin="41" yMin="0" xMax="666" yMax="679">
      <contour>
        <pt x="489" y="679" on="1"/>
        <pt x="666" y="679" on="1"/>
        <pt x="666" y="670" on="1"/>
        <pt x="666" y="631" on="0"/>
        <pt x="631" y="628" on="1"/>
        <pt x="589" y="625" on="1"/>
        <pt x="589" y="12" on="1"/>
        <pt x="565" y="0" on="0"/>
        <pt x="530" y="0" on="1"/>
        <pt x="178" y="537" on="1"/>
        <pt x="178" y="56" on="1"/>
        <pt x="251" y="50" on="1"/>
        <pt x="256" y="0" on="0"/>
        <pt x="218" y="0" on="1"/>
        <pt x="41" y="0" on="1"/>
        <pt x="41" y="8" on="1"/>
        <pt x="41" y="49" on="0"/>
        <pt x="76" y="52" on="1"/>
        <pt x="117" y="54" on="1"/>
        <pt x="117" y="623" on="1"/>
        <pt x="44" y="629" on="1"/>
        <pt x="39" y="679" on="0"/>
        <pt x="77" y="679" on="1"/>
        <pt x="190" y="679" on="1"/>
        <pt x="529" y="162" on="1"/>
        <pt x="529" y="623" on="1"/>
        <pt x="456" y="629" on="1"/>
        <pt x="451" y="679" on="0"/>
      </contour>
    </TTGlyph>
    <TTGlyph name="Nacute" xMin="41" yMin="0" xMax="666" yMax="893">
      <contour>
        <pt x="489" y="679" on="1"/>
        <pt x="666" y="679" on="1"/>
        <pt x="666" y="670" on="1"/>
        <pt x="666" y="631" on="0"/>
        <pt x="631" y="628" on="1"/>
        <pt x="589" y="625" on="1"/>
        <pt x="589" y="12" on="1"/>
        <pt x="565" y="0" on="0"/>
        <pt x="530" y="0" on="1"/>
        <pt x="178" y="537" on="1"/>
        <pt x="178" y="56" on="1"/>
        <pt x="251" y="50" on="1"/>
        <pt x="256" y="0" on="0"/>
        <pt x="218" y="0" on="1"/>
        <pt x="41" y="0" on="1"/>
        <pt x="41" y="8" on="1"/>
        <pt x="41" y="49" on="0"/>
        <pt x="76" y="52" on="1"/>
        <pt x="117" y="54" on="1"/>
        <pt x="117" y="623" on="1"/>
        <pt x="44" y="629" on="1"/>
        <pt x="39" y="679" on="0"/>
        <pt x="77" y="679" on="1"/>
        <pt x="190" y="679" on="1"/>
        <pt x="529" y="162" on="1"/>
        <pt x="529" y="623" on="1"/>
        <pt x="456" y="629" on="1"/>
        <pt x="451" y="679" on="0"/>
      </contour>
      <contour>
        <pt x="497" y="838" on="1"/>
        <pt x="296" y="730" on="1"/>
        <pt x="274" y="742" on="0"/>
        <pt x="263" y="763" on="1"/>
        <pt x="428" y="893" on="1"/>
        <pt x="448" y="890" on="0"/>
        <pt x="488" y="856" on="0"/>
      </contour>
    </TTGlyph>
    <TTGlyph name="Ncaron" xMin="41" yMin="0" xMax="666" yMax="890">
      <contour>
        <pt x="489" y="679" on="1"/>
        <pt x="666" y="679" on="1"/>
        <pt x="666" y="670" on="1"/>
        <pt x="666" y="631" on="0"/>
        <pt x="631" y="628" on="1"/>
        <pt x="589" y="625" on="1"/>
        <pt x="589" y="12" on="1"/>
        <pt x="565" y="0" on="0"/>
        <pt x="530" y="0" on="1"/>
        <pt x="178" y="537" on="1"/>
        <pt x="178" y="56" on="1"/>
        <pt x="251" y="50" on="1"/>
        <pt x="256" y="0" on="0"/>
        <pt x="218" y="0" on="1"/>
        <pt x="41" y="0" on="1"/>
        <pt x="41" y="8" on="1"/>
        <pt x="41" y="49" on="0"/>
        <pt x="76" y="52" on="1"/>
        <pt x="117" y="54" on="1"/>
        <pt x="117" y="623" on="1"/>
        <pt x="44" y="629" on="1"/>
        <pt x="39" y="679" on="0"/>
        <pt x="77" y="679" on="1"/>
        <pt x="190" y="679" on="1"/>
        <pt x="529" y="162" on="1"/>
        <pt x="529" y="623" on="1"/>
        <pt x="456" y="629" on="1"/>
        <pt x="451" y="679" on="0"/>
      </contour>
      <contour>
        <pt x="509" y="859" on="1"/>
        <pt x="376" y="737" on="1"/>
        <pt x="345" y="729" on="0"/>
        <pt x="311" y="737" on="1"/>
        <pt x="177" y="859" on="1"/>
        <pt x="188" y="881" on="0"/>
        <pt x="207" y="890" on="1"/>
        <pt x="343" y="803" on="1"/>
        <pt x="478" y="890" on="1"/>
        <pt x="494" y="882" on="0"/>
      </contour>
    </TTGlyph>
    <TTGlyph name="Ntilde" xMin="41" yMin="0" xMax="666" yMax="873">
      <contour>
        <pt x="489" y="679" on="1"/>
        <pt x="666" y="679" on="1"/>
        <pt x="666" y="670" on="1"/>
        <pt x="666" y="631" on="0"/>
        <pt x="631" y="628" on="1"/>
        <pt x="589" y="625" on="1"/>
        <pt x="589" y="12" on="1"/>
        <pt x="565" y="0" on="0"/>
        <pt x="530" y="0" on="1"/>
        <pt x="178" y="537" on="1"/>
        <pt x="178" y="56" on="1"/>
        <pt x="251" y="50" on="1"/>
        <pt x="256" y="0" on="0"/>
        <pt x="218" y="0" on="1"/>
        <pt x="41" y="0" on="1"/>
        <pt x="41" y="8" on="1"/>
        <pt x="41" y="49" on="0"/>
        <pt x="76" y="52" on="1"/>
        <pt x="117" y="54" on="1"/>
        <pt x="117" y="623" on="1"/>
        <pt x="44" y="629" on="1"/>
        <pt x="39" y="679" on="0"/>
        <pt x="77" y="679" on="1"/>
        <pt x="190" y="679" on="1"/>
        <pt x="529" y="162" on="1"/>
        <pt x="529" y="623" on="1"/>
        <pt x="456" y="629" on="1"/>
        <pt x="451" y="679" on="0"/>
      </contour>
      <contour>
        <pt x="405" y="750" on="1"/>
        <pt x="369" y="750" on="0"/>
        <pt x="284" y="801" on="0"/>
        <pt x="244" y="801" on="0"/>
        <pt x="214" y="773" on="0"/>
        <pt x="208" y="754" on="1"/>
        <pt x="176" y="765" on="1"/>
        <pt x="186" y="815" on="0"/>
        <pt x="243" y="873" on="0"/>
        <pt x="311" y="873" on="0"/>
        <pt x="392" y="818" on="0"/>
        <pt x="418" y="818" on="1"/>
        <pt x="468" y="818" on="0"/>
        <pt x="481" y="870" on="1"/>
        <pt x="512" y="861" on="1"/>
        <pt x="495" y="750" on="0"/>
      </contour>
    </TTGlyph>
    <TTGlyph name="O" xMin="38" yMin="-15" xMax="618" yMax="694">
      <contour>
        <pt x="228" y="633" on="0"/>
        <pt x="128" y="478" on="0"/>
        <pt x="128" y="203" on="0"/>
        <pt x="225" y="46" on="0"/>
        <pt x="426" y="47" on="0"/>
        <pt x="528" y="201" on="0"/>
        <pt x="528" y="475" on="0"/>
        <pt x="429" y="634" on="0"/>
      </contour>
      <contour>
        <pt x="341" y="694" on="1"/>
        <pt x="451" y="694" on="0"/>
        <pt x="529" y="620" on="1"/>
        <pt x="569" y="583" on="0"/>
        <pt x="617" y="446" on="0"/>
        <pt x="618" y="354" on="1"/>
        <pt x="619" y="185" on="0"/>
        <pt x="459" y="-15" on="0"/>
        <pt x="311" y="-15" on="1"/>
        <pt x="184" y="-15" on="0"/>
        <pt x="40" y="164" on="0"/>
        <pt x="36" y="492" on="0"/>
        <pt x="196" y="694" on="0"/>
      </contour>
    </TTGlyph>
    <TTGlyph name="OE" xMin="37" yMin="-15" xMax="857" yMax="696">
      <contour>
        <pt x="130" y="477" on="0"/>
        <pt x="130" y="201" on="0"/>
        <pt x="224" y="46" on="0"/>
        <pt x="334" y="46" on="1"/>
        <pt x="404" y="46" on="0"/>
        <pt x="450" y="81" on="1"/>
        <pt x="450" y="604" on="1"/>
        <pt x="405" y="635" on="0"/>
        <pt x="337" y="635" on="1"/>
        <pt x="230" y="634" on="0"/>
      </contour>
      <contour>
        <pt x="857" y="0" on="1"/>
        <pt x="425" y="0" on="1"/>
        <pt x="377" y="-15" on="0"/>
        <pt x="319" y="-15" on="1"/>
        <pt x="191" y="-15" on="0"/>
        <pt x="40" y="167" on="0"/>
        <pt x="35" y="489" on="0"/>
        <pt x="198" y="696" on="0"/>
        <pt x="350" y="696" on="1"/>
        <pt x="402" y="696" on="0"/>
        <pt x="452" y="681" on="1"/>
        <pt x="837" y="681" on="1"/>
        <pt x="837" y="536" on="1"/>
        <pt x="837" y="501" on="0"/>
        <pt x="787" y="506" on="1"/>
        <pt x="777" y="621" on="1"/>
        <pt x="537" y="625" on="1"/>
        <pt x="537" y="364" on="1"/>
        <pt x="726" y="379" on="1"/>
        <pt x="733" y="337" on="0"/>
        <pt x="726" y="299" on="1"/>
        <pt x="537" y="310" on="1"/>
        <pt x="537" y="56" on="1"/>
        <pt x="798" y="63" on="1"/>
        <pt x="807" y="174" on="1"/>
        <pt x="857" y="179" on="0"/>
        <pt x="857" y="144" on="1"/>
      </contour>
    </TTGlyph>
    <TTGlyph name="Oacute" xMin="38" yMin="-15" xMax="618" yMax="893">
      <contour>
        <pt x="493" y="838" on="1"/>
        <pt x="292" y="730" on="1"/>
        <pt x="270" y="742" on="0"/>
        <pt x="259" y="763" on="1"/>
        <pt x="425" y="893" on="1"/>
        <pt x="445" y="890" on="0"/>
        <pt x="485" y="856" on="0"/>
      </contour>
      <contour>
        <pt x="228" y="633" on="0"/>
        <pt x="128" y="478" on="0"/>
        <pt x="128" y="203" on="0"/>
        <pt x="225" y="46" on="0"/>
        <pt x="426" y="47" on="0"/>
        <pt x="528" y="201" on="0"/>
        <pt x="528" y="475" on="0"/>
        <pt x="429" y="634" on="0"/>
      </contour>
      <contour>
        <pt x="341" y="694" on="1"/>
        <pt x="451" y="694" on="0"/>
        <pt x="529" y="620" on="1"/>
        <pt x="569" y="583" on="0"/>
        <pt x="617" y="446" on="0"/>
        <pt x="618" y="354" on="1"/>
        <pt x="619" y="185" on="0"/>
        <pt x="459" y="-15" on="0"/>
        <pt x="311" y="-15" on="1"/>
        <pt x="184" y="-15" on="0"/>
        <pt x="40" y="164" on="0"/>
        <pt x="36" y="492" on="0"/>
        <pt x="196" y="694" on="0"/>
      </contour>
    </TTGlyph>
    <TTGlyph name="Obreve" xMin="38" yMin="-15" xMax="618" yMax="887">
      <contour>
        <pt x="228" y="633" on="0"/>
        <pt x="128" y="478" on="0"/>
        <pt x="128" y="203" on="0"/>
        <pt x="225" y="46" on="0"/>
        <pt x="426" y="47" on="0"/>
        <pt x="528" y="201" on="0"/>
        <pt x="528" y="475" on="0"/>
        <pt x="429" y="634" on="0"/>
      </contour>
      <contour>
        <pt x="341" y="694" on="1"/>
        <pt x="451" y="694" on="0"/>
        <pt x="529" y="620" on="1"/>
        <pt x="569" y="583" on="0"/>
        <pt x="617" y="446" on="0"/>
        <pt x="618" y="354" on="1"/>
        <pt x="619" y="185" on="0"/>
        <pt x="459" y="-15" on="0"/>
        <pt x="311" y="-15" on="1"/>
        <pt x="184" y="-15" on="0"/>
        <pt x="40" y="164" on="0"/>
        <pt x="36" y="492" on="0"/>
        <pt x="196" y="694" on="0"/>
      </contour>
      <contour>
        <pt x="341" y="807" on="1"/>
        <pt x="432" y="807" on="0"/>
        <pt x="463" y="886" on="1"/>
        <pt x="498" y="870" on="1"/>
        <pt x="490" y="817" on="0"/>
        <pt x="409" y="737" on="0"/>
        <pt x="270" y="737" on="0"/>
        <pt x="190" y="817" on="0"/>
        <pt x="182" y="870" on="1"/>
        <pt x="217" y="887" on="1"/>
        <pt x="228" y="858" on="0"/>
        <pt x="290" y="807" on="0"/>
      </contour>
    </TTGlyph>
    <TTGlyph name="Ocircumflex" xMin="38" yMin="-15" xMax="618" yMax="874">
      <contour>
        <pt x="311" y="-15" on="1"/>
        <pt x="184" y="-15" on="0"/>
        <pt x="40" y="164" on="0"/>
        <pt x="36" y="492" on="0"/>
        <pt x="196" y="694" on="0"/>
        <pt x="341" y="694" on="1"/>
        <pt x="451" y="694" on="0"/>
        <pt x="529" y="620" on="1"/>
        <pt x="569" y="583" on="0"/>
        <pt x="617" y="446" on="0"/>
        <pt x="618" y="354" on="1"/>
        <pt x="619" y="185" on="0"/>
        <pt x="459" y="-15" on="0"/>
      </contour>
      <contour>
        <pt x="426" y="47" on="0"/>
        <pt x="528" y="201" on="0"/>
        <pt x="528" y="475" on="0"/>
        <pt x="429" y="634" on="0"/>
        <pt x="228" y="633" on="0"/>
        <pt x="128" y="478" on="0"/>
        <pt x="128" y="203" on="0"/>
        <pt x="225" y="46" on="0"/>
      </contour>
      <contour>
        <pt x="340" y="808" on="1"/>
        <pt x="204" y="721" on="1"/>
        <pt x="184" y="732" on="0"/>
        <pt x="174" y="752" on="1"/>
        <pt x="308" y="874" on="1"/>
        <pt x="342" y="882" on="0"/>
        <pt x="374" y="874" on="1"/>
        <pt x="506" y="752" on="1"/>
        <pt x="490" y="729" on="0"/>
        <pt x="475" y="721" on="1"/>
      </contour>
    </TTGlyph>
    <TTGlyph name="Odieresis" xMin="38" yMin="-15" xMax="618" yMax="866">
      <contour>
        <pt x="481" y="785" on="0"/>
        <pt x="448" y="752" on="0"/>
        <pt x="400" y="752" on="0"/>
        <pt x="366" y="785" on="0"/>
        <pt x="366" y="832" on="0"/>
        <pt x="400" y="866" on="0"/>
        <pt x="448" y="866" on="0"/>
        <pt x="481" y="832" on="0"/>
      </contour>
      <contour>
        <pt x="276" y="752" on="0"/>
        <pt x="228" y="752" on="0"/>
        <pt x="194" y="785" on="0"/>
        <pt x="194" y="832" on="0"/>
        <pt x="228" y="866" on="0"/>
        <pt x="276" y="866" on="0"/>
        <pt x="309" y="832" on="0"/>
        <pt x="309" y="785" on="0"/>
      </contour>
      <contour>
        <pt x="228" y="633" on="0"/>
        <pt x="128" y="478" on="0"/>
        <pt x="128" y="203" on="0"/>
        <pt x="225" y="46" on="0"/>
        <pt x="426" y="47" on="0"/>
        <pt x="528" y="201" on="0"/>
        <pt x="528" y="475" on="0"/>
        <pt x="429" y="634" on="0"/>
      </contour>
      <contour>
        <pt x="341" y="694" on="1"/>
        <pt x="451" y="694" on="0"/>
        <pt x="529" y="620" on="1"/>
        <pt x="569" y="583" on="0"/>
        <pt x="617" y="446" on="0"/>
        <pt x="618" y="354" on="1"/>
        <pt x="619" y="185" on="0"/>
        <pt x="459" y="-15" on="0"/>
        <pt x="311" y="-15" on="1"/>
        <pt x="184" y="-15" on="0"/>
        <pt x="40" y="164" on="0"/>
        <pt x="36" y="492" on="0"/>
        <pt x="196" y="694" on="0"/>
      </contour>
    </TTGlyph>
    <TTGlyph name="Ograve" xMin="38" yMin="-15" xMax="618" yMax="887">
      <contour>
        <pt x="403" y="725" on="1"/>
        <pt x="202" y="833" on="1"/>
        <pt x="211" y="851" on="0"/>
        <pt x="252" y="885" on="0"/>
        <pt x="271" y="887" on="1"/>
        <pt x="436" y="758" on="1"/>
        <pt x="425" y="736" on="0"/>
      </contour>
      <contour>
        <pt x="341" y="694" on="1"/>
        <pt x="451" y="694" on="0"/>
        <pt x="529" y="620" on="1"/>
        <pt x="569" y="583" on="0"/>
        <pt x="617" y="446" on="0"/>
        <pt x="618" y="354" on="1"/>
        <pt x="619" y="185" on="0"/>
        <pt x="459" y="-15" on="0"/>
        <pt x="311" y="-15" on="1"/>
        <pt x="184" y="-15" on="0"/>
        <pt x="40" y="164" on="0"/>
        <pt x="36" y="492" on="0"/>
        <pt x="196" y="694" on="0"/>
      </contour>
      <contour>
        <pt x="228" y="633" on="0"/>
        <pt x="128" y="478" on="0"/>
        <pt x="128" y="203" on="0"/>
        <pt x="225" y="46" on="0"/>
        <pt x="426" y="47" on="0"/>
        <pt x="528" y="201" on="0"/>
        <pt x="528" y="475" on="0"/>
        <pt x="429" y="634" on="0"/>
      </contour>
    </TTGlyph>
    <TTGlyph name="Ohungarumlaut" xMin="38" yMin="-15" xMax="618" yMax="856">
      <contour>
        <pt x="228" y="633" on="0"/>
        <pt x="128" y="478" on="0"/>
        <pt x="128" y="203" on="0"/>
        <pt x="225" y="46" on="0"/>
        <pt x="426" y="47" on="0"/>
        <pt x="528" y="201" on="0"/>
        <pt x="528" y="475" on="0"/>
        <pt x="429" y="634" on="0"/>
      </contour>
      <contour>
        <pt x="341" y="694" on="1"/>
        <pt x="451" y="694" on="0"/>
        <pt x="529" y="620" on="1"/>
        <pt x="569" y="583" on="0"/>
        <pt x="617" y="446" on="0"/>
        <pt x="618" y="354" on="1"/>
        <pt x="619" y="185" on="0"/>
        <pt x="459" y="-15" on="0"/>
        <pt x="311" y="-15" on="1"/>
        <pt x="184" y="-15" on="0"/>
        <pt x="40" y="164" on="0"/>
        <pt x="36" y="492" on="0"/>
        <pt x="196" y="694" on="0"/>
      </contour>
      <contour>
        <pt x="439" y="802" on="1"/>
        <pt x="238" y="694" on="1"/>
        <pt x="216" y="705" on="0"/>
        <pt x="205" y="727" on="1"/>
        <pt x="370" y="856" on="1"/>
        <pt x="389" y="854" on="0"/>
        <pt x="430" y="820" on="0"/>
      </contour>
      <contour>
        <pt x="618" y="802" on="1"/>
        <pt x="417" y="694" on="1"/>
        <pt x="395" y="705" on="0"/>
        <pt x="384" y="727" on="1"/>
        <pt x="549" y="856" on="1"/>
        <pt x="568" y="854" on="0"/>
        <pt x="609" y="820" on="0"/>
      </contour>
    </TTGlyph>
    <TTGlyph name="Omacron" xMin="38" yMin="-15" xMax="618" yMax="824">
      <contour>
        <pt x="203" y="824" on="1"/>
        <pt x="475" y="824" on="1"/>
        <pt x="475" y="764" on="1"/>
        <pt x="203" y="764" on="1"/>
      </contour>
      <contour>
        <pt x="228" y="633" on="0"/>
        <pt x="128" y="478" on="0"/>
        <pt x="128" y="203" on="0"/>
        <pt x="225" y="46" on="0"/>
        <pt x="426" y="47" on="0"/>
        <pt x="528" y="201" on="0"/>
        <pt x="528" y="475" on="0"/>
        <pt x="429" y="634" on="0"/>
      </contour>
      <contour>
        <pt x="341" y="694" on="1"/>
        <pt x="451" y="694" on="0"/>
        <pt x="529" y="620" on="1"/>
        <pt x="569" y="583" on="0"/>
        <pt x="617" y="446" on="0"/>
        <pt x="618" y="354" on="1"/>
        <pt x="619" y="185" on="0"/>
        <pt x="459" y="-15" on="0"/>
        <pt x="311" y="-15" on="1"/>
        <pt x="184" y="-15" on="0"/>
        <pt x="40" y="164" on="0"/>
        <pt x="36" y="492" on="0"/>
        <pt x="196" y="694" on="0"/>
      </contour>
    </TTGlyph>
    <TTGlyph name="Oslash" xMin="38" yMin="-17" xMax="618" yMax="697">
      <contour>
        <pt x="311" y="-15" on="1"/>
        <pt x="247" y="-15" on="0"/>
        <pt x="194" y="10" on="1"/>
        <pt x="178" y="-17" on="1"/>
        <pt x="120" y="15" on="1"/>
        <pt x="138" y="47" on="1"/>
        <pt x="41" y="135" on="0"/>
        <pt x="36" y="492" on="0"/>
        <pt x="196" y="694" on="0"/>
        <pt x="341" y="694" on="1"/>
        <pt x="428" y="694" on="0"/>
        <pt x="491" y="652" on="1"/>
        <pt x="517" y="697" on="1"/>
        <pt x="576" y="668" on="1"/>
        <pt x="541" y="607" on="1"/>
        <pt x="617" y="518" on="0"/>
        <pt x="619" y="185" on="0"/>
        <pt x="459" y="-15" on="0"/>
      </contour>
      <contour>
        <pt x="328" y="633" on="1"/>
        <pt x="228" y="633" on="0"/>
        <pt x="128" y="478" on="0"/>
        <pt x="128" y="196" on="0"/>
        <pt x="180" y="119" on="1"/>
        <pt x="453" y="586" on="1"/>
        <pt x="404" y="633" on="0"/>
      </contour>
      <contour>
        <pt x="426" y="47" on="0"/>
        <pt x="528" y="201" on="0"/>
        <pt x="528" y="454" on="0"/>
        <pt x="494" y="526" on="1"/>
        <pt x="229" y="71" on="1"/>
        <pt x="271" y="46" on="0"/>
        <pt x="325" y="46" on="1"/>
      </contour>
    </TTGlyph>
    <TTGlyph name="Otilde" xMin="38" yMin="-15" xMax="618" yMax="873">
      <contour>
        <pt x="182" y="815" on="0"/>
        <pt x="239" y="873" on="0"/>
        <pt x="307" y="873" on="0"/>
        <pt x="388" y="818" on="0"/>
        <pt x="439" y="818" on="0"/>
        <pt x="473" y="847" on="0"/>
        <pt x="478" y="870" on="1"/>
        <pt x="509" y="861" on="1"/>
        <pt x="491" y="750" on="0"/>
        <pt x="401" y="750" on="1"/>
        <pt x="365" y="750" on="0"/>
        <pt x="280" y="801" on="0"/>
        <pt x="240" y="801" on="0"/>
        <pt x="210" y="773" on="0"/>
        <pt x="204" y="754" on="1"/>
        <pt x="172" y="765" on="1"/>
      </contour>
      <contour>
        <pt x="228" y="633" on="0"/>
        <pt x="128" y="478" on="0"/>
        <pt x="128" y="203" on="0"/>
        <pt x="225" y="46" on="0"/>
        <pt x="426" y="47" on="0"/>
        <pt x="528" y="201" on="0"/>
        <pt x="528" y="475" on="0"/>
        <pt x="429" y="634" on="0"/>
      </contour>
      <contour>
        <pt x="341" y="694" on="1"/>
        <pt x="451" y="694" on="0"/>
        <pt x="529" y="620" on="1"/>
        <pt x="569" y="583" on="0"/>
        <pt x="617" y="446" on="0"/>
        <pt x="618" y="354" on="1"/>
        <pt x="619" y="185" on="0"/>
        <pt x="459" y="-15" on="0"/>
        <pt x="311" y="-15" on="1"/>
        <pt x="184" y="-15" on="0"/>
        <pt x="40" y="164" on="0"/>
        <pt x="36" y="492" on="0"/>
        <pt x="196" y="694" on="0"/>
      </contour>
    </TTGlyph>
    <TTGlyph name="P" xMin="41" yMin="0" xMax="542" yMax="681">
      <contour>
        <pt x="74" y="681" on="1"/>
        <pt x="291" y="681" on="1"/>
        <pt x="414" y="681" on="0"/>
        <pt x="542" y="577" on="0"/>
        <pt x="542" y="490" on="1"/>
        <pt x="542" y="378" on="0"/>
        <pt x="393" y="267" on="0"/>
        <pt x="265" y="267" on="1"/>
        <pt x="242" y="267" on="0"/>
        <pt x="204" y="269" on="1"/>
        <pt x="204" y="56" on="1"/>
        <pt x="283" y="50" on="1"/>
        <pt x="288" y="0" on="0"/>
        <pt x="251" y="0" on="1"/>
        <pt x="41" y="0" on="1"/>
        <pt x="41" y="8" on="1"/>
        <pt x="41" y="49" on="0"/>
        <pt x="76" y="52" on="1"/>
        <pt x="117" y="54" on="1"/>
        <pt x="117" y="625" on="1"/>
        <pt x="44" y="631" on="1"/>
        <pt x="41" y="681" on="0"/>
      </contour>
      <contour>
        <pt x="204" y="319" on="1"/>
        <pt x="254" y="318" on="1"/>
        <pt x="451" y="318" on="0"/>
        <pt x="451" y="641" on="0"/>
        <pt x="262" y="631" on="1"/>
        <pt x="204" y="629" on="1"/>
      </contour>
    </TTGlyph>
    <TTGlyph name="Q" xMin="38" yMin="-141" xMax="626" yMax="694">
      <contour>
        <pt x="618" y="-54" on="1"/>
        <pt x="626" y="-64" on="0"/>
        <pt x="626" y="-108" on="0"/>
        <pt x="585" y="-141" on="0"/>
        <pt x="536" y="-141" on="0"/>
        <pt x="496" y="-133" on="0"/>
        <pt x="450" y="-114" on="0"/>
        <pt x="414" y="-98" on="0"/>
        <pt x="361" y="-68" on="0"/>
        <pt x="347" y="-60" on="1"/>
        <pt x="312" y="-38" on="0"/>
        <pt x="270" y="-12" on="1"/>
        <pt x="162" y="2" on="0"/>
        <pt x="40" y="177" on="0"/>
        <pt x="38" y="321" on="1"/>
        <pt x="36" y="492" on="0"/>
        <pt x="196" y="694" on="0"/>
        <pt x="341" y="694" on="1"/>
        <pt x="451" y="694" on="0"/>
        <pt x="529" y="620" on="1"/>
        <pt x="569" y="583" on="0"/>
        <pt x="617" y="446" on="0"/>
        <pt x="618" y="354" on="1"/>
        <pt x="619" y="203" on="0"/>
        <pt x="491" y="10" on="0"/>
        <pt x="371" y="-10" on="1"/>
        <pt x="503" y="-70" on="0"/>
        <pt x="567" y="-70" on="1"/>
        <pt x="593" y="-70" on="0"/>
      </contour>
      <contour>
        <pt x="228" y="633" on="0"/>
        <pt x="128" y="478" on="0"/>
        <pt x="128" y="203" on="0"/>
        <pt x="225" y="46" on="0"/>
        <pt x="426" y="47" on="0"/>
        <pt x="528" y="201" on="0"/>
        <pt x="528" y="475" on="0"/>
        <pt x="429" y="634" on="0"/>
      </contour>
    </TTGlyph>
    <TTGlyph name="R" xMin="41" yMin="-15" xMax="585" yMax="681">
      <contour>
        <pt x="74" y="681" on="1"/>
        <pt x="296" y="681" on="1"/>
        <pt x="523" y="681" on="0"/>
        <pt x="523" y="511" on="1"/>
        <pt x="523" y="431" on="0"/>
        <pt x="424" y="331" on="0"/>
        <pt x="339" y="316" on="1"/>
        <pt x="399" y="192" on="0"/>
        <pt x="533" y="53" on="0"/>
        <pt x="585" y="53" on="1"/>
        <pt x="583" y="23" on="0"/>
        <pt x="547" y="-15" on="0"/>
        <pt x="519" y="-15" on="1"/>
        <pt x="457" y="-15" on="0"/>
        <pt x="308" y="193" on="0"/>
        <pt x="266" y="310" on="1"/>
        <pt x="265" y="310" on="1"/>
        <pt x="226" y="310" on="0"/>
        <pt x="205" y="312" on="1"/>
        <pt x="205" y="56" on="1"/>
        <pt x="283" y="50" on="1"/>
        <pt x="288" y="0" on="0"/>
        <pt x="251" y="0" on="1"/>
        <pt x="41" y="0" on="1"/>
        <pt x="41" y="8" on="1"/>
        <pt x="41" y="49" on="0"/>
        <pt x="76" y="52" on="1"/>
        <pt x="117" y="54" on="1"/>
        <pt x="117" y="625" on="1"/>
        <pt x="44" y="631" on="1"/>
        <pt x="42" y="681" on="0"/>
      </contour>
      <contour>
        <pt x="205" y="629" on="1"/>
        <pt x="205" y="362" on="1"/>
        <pt x="239" y="360" on="0"/>
        <pt x="253" y="360" on="1"/>
        <pt x="341" y="360" on="0"/>
        <pt x="432" y="433" on="0"/>
        <pt x="432" y="577" on="0"/>
        <pt x="344" y="634" on="0"/>
        <pt x="267" y="631" on="1"/>
        <pt x="206" y="629" on="1"/>
      </contour>
    </TTGlyph>
    <TTGlyph name="Racute" xMin="41" yMin="-15" xMax="585" yMax="893">
      <contour>
        <pt x="74" y="681" on="1"/>
        <pt x="296" y="681" on="1"/>
        <pt x="523" y="681" on="0"/>
        <pt x="523" y="511" on="1"/>
        <pt x="523" y="431" on="0"/>
        <pt x="424" y="331" on="0"/>
        <pt x="339" y="316" on="1"/>
        <pt x="399" y="192" on="0"/>
        <pt x="533" y="53" on="0"/>
        <pt x="585" y="53" on="1"/>
        <pt x="583" y="23" on="0"/>
        <pt x="547" y="-15" on="0"/>
        <pt x="519" y="-15" on="1"/>
        <pt x="457" y="-15" on="0"/>
        <pt x="308" y="193" on="0"/>
        <pt x="266" y="310" on="1"/>
        <pt x="265" y="310" on="1"/>
        <pt x="226" y="310" on="0"/>
        <pt x="205" y="312" on="1"/>
        <pt x="205" y="56" on="1"/>
        <pt x="283" y="50" on="1"/>
        <pt x="288" y="0" on="0"/>
        <pt x="251" y="0" on="1"/>
        <pt x="41" y="0" on="1"/>
        <pt x="41" y="8" on="1"/>
        <pt x="41" y="49" on="0"/>
        <pt x="76" y="52" on="1"/>
        <pt x="117" y="54" on="1"/>
        <pt x="117" y="625" on="1"/>
        <pt x="44" y="631" on="1"/>
        <pt x="42" y="681" on="0"/>
      </contour>
      <contour>
        <pt x="205" y="629" on="1"/>
        <pt x="205" y="362" on="1"/>
        <pt x="239" y="360" on="0"/>
        <pt x="253" y="360" on="1"/>
        <pt x="341" y="360" on="0"/>
        <pt x="432" y="433" on="0"/>
        <pt x="432" y="577" on="0"/>
        <pt x="344" y="634" on="0"/>
        <pt x="267" y="631" on="1"/>
        <pt x="206" y="629" on="1"/>
      </contour>
      <contour>
        <pt x="433" y="838" on="1"/>
        <pt x="232" y="730" on="1"/>
        <pt x="210" y="742" on="0"/>
        <pt x="199" y="763" on="1"/>
        <pt x="364" y="893" on="1"/>
        <pt x="384" y="890" on="0"/>
        <pt x="424" y="856" on="0"/>
      </contour>
    </TTGlyph>
    <TTGlyph name="Rcaron" xMin="41" yMin="-15" xMax="585" yMax="890">
      <contour>
        <pt x="74" y="681" on="1"/>
        <pt x="296" y="681" on="1"/>
        <pt x="523" y="681" on="0"/>
        <pt x="523" y="511" on="1"/>
        <pt x="523" y="431" on="0"/>
        <pt x="424" y="331" on="0"/>
        <pt x="339" y="316" on="1"/>
        <pt x="399" y="192" on="0"/>
        <pt x="533" y="53" on="0"/>
        <pt x="585" y="53" on="1"/>
        <pt x="583" y="23" on="0"/>
        <pt x="547" y="-15" on="0"/>
        <pt x="519" y="-15" on="1"/>
        <pt x="457" y="-15" on="0"/>
        <pt x="308" y="193" on="0"/>
        <pt x="266" y="310" on="1"/>
        <pt x="265" y="310" on="1"/>
        <pt x="226" y="310" on="0"/>
        <pt x="205" y="312" on="1"/>
        <pt x="205" y="56" on="1"/>
        <pt x="283" y="50" on="1"/>
        <pt x="288" y="0" on="0"/>
        <pt x="251" y="0" on="1"/>
        <pt x="41" y="0" on="1"/>
        <pt x="41" y="8" on="1"/>
        <pt x="41" y="49" on="0"/>
        <pt x="76" y="52" on="1"/>
        <pt x="117" y="54" on="1"/>
        <pt x="117" y="625" on="1"/>
        <pt x="44" y="631" on="1"/>
        <pt x="42" y="681" on="0"/>
      </contour>
      <contour>
        <pt x="205" y="629" on="1"/>
        <pt x="205" y="362" on="1"/>
        <pt x="239" y="360" on="0"/>
        <pt x="253" y="360" on="1"/>
        <pt x="341" y="360" on="0"/>
        <pt x="432" y="433" on="0"/>
        <pt x="432" y="577" on="0"/>
        <pt x="344" y="634" on="0"/>
        <pt x="267" y="631" on="1"/>
        <pt x="206" y="629" on="1"/>
      </contour>
      <contour>
        <pt x="444" y="859" on="1"/>
        <pt x="312" y="737" on="1"/>
        <pt x="281" y="729" on="0"/>
        <pt x="246" y="737" on="1"/>
        <pt x="112" y="859" on="1"/>
        <pt x="125" y="881" on="0"/>
        <pt x="142" y="890" on="1"/>
        <pt x="278" y="803" on="1"/>
        <pt x="413" y="890" on="1"/>
        <pt x="431" y="881" on="0"/>
      </contour>
    </TTGlyph>
    <TTGlyph name="S" xMin="25" yMin="-15" xMax="480" yMax="694">
      <contour>
        <pt x="417" y="650" on="1"/>
        <pt x="448" y="623" on="0"/>
        <pt x="448" y="546" on="0"/>
        <pt x="407" y="512" on="0"/>
        <pt x="377" y="514" on="1"/>
        <pt x="377" y="633" on="0"/>
        <pt x="258" y="633" on="1"/>
        <pt x="203" y="633" on="0"/>
        <pt x="132" y="582" on="0"/>
        <pt x="132" y="503" on="0"/>
        <pt x="179" y="450" on="0"/>
        <pt x="236" y="420" on="0"/>
        <pt x="264" y="408" on="1"/>
        <pt x="392" y="355" on="0"/>
        <pt x="480" y="276" on="0"/>
        <pt x="480" y="206" on="1"/>
        <pt x="480" y="113" on="0"/>
        <pt x="343" y="-15" on="0"/>
        <pt x="230" y="-15" on="1"/>
        <pt x="149" y="-15" on="0"/>
        <pt x="25" y="50" on="0"/>
        <pt x="25" y="106" on="1"/>
        <pt x="25" y="135" on="0"/>
        <pt x="62" y="173" on="0"/>
        <pt x="97" y="173" on="1"/>
        <pt x="113" y="46" on="0"/>
        <pt x="246" y="46" on="1"/>
        <pt x="316" y="46" on="0"/>
        <pt x="401" y="117" on="0"/>
        <pt x="401" y="175" on="1"/>
        <pt x="401" y="224" on="0"/>
        <pt x="368" y="252" on="1"/>
        <pt x="353" y="264" on="0"/>
        <pt x="340" y="275" on="0"/>
        <pt x="294" y="298" on="0"/>
        <pt x="279" y="304" on="0"/>
        <pt x="200" y="339" on="0"/>
        <pt x="148" y="366" on="0"/>
        <pt x="115" y="390" on="1"/>
        <pt x="53" y="435" on="0"/>
        <pt x="53" y="597" on="0"/>
        <pt x="178" y="693" on="0"/>
        <pt x="269" y="694" on="1"/>
        <pt x="364" y="696" on="0"/>
      </contour>
    </TTGlyph>
    <TTGlyph name="Sacute" xMin="25" yMin="-15" xMax="480" yMax="893">
      <contour>
        <pt x="418" y="838" on="1"/>
        <pt x="217" y="730" on="1"/>
        <pt x="195" y="742" on="0"/>
        <pt x="184" y="763" on="1"/>
        <pt x="350" y="893" on="1"/>
        <pt x="369" y="890" on="0"/>
        <pt x="410" y="856" on="0"/>
      </contour>
      <contour>
        <pt x="417" y="650" on="1"/>
        <pt x="448" y="623" on="0"/>
        <pt x="448" y="546" on="0"/>
        <pt x="407" y="512" on="0"/>
        <pt x="377" y="514" on="1"/>
        <pt x="377" y="633" on="0"/>
        <pt x="258" y="633" on="1"/>
        <pt x="203" y="633" on="0"/>
        <pt x="132" y="582" on="0"/>
        <pt x="132" y="503" on="0"/>
        <pt x="179" y="450" on="0"/>
        <pt x="236" y="420" on="0"/>
        <pt x="264" y="408" on="1"/>
        <pt x="392" y="355" on="0"/>
        <pt x="480" y="276" on="0"/>
        <pt x="480" y="206" on="1"/>
        <pt x="480" y="113" on="0"/>
        <pt x="343" y="-15" on="0"/>
        <pt x="230" y="-15" on="1"/>
        <pt x="149" y="-15" on="0"/>
        <pt x="25" y="50" on="0"/>
        <pt x="25" y="106" on="1"/>
        <pt x="25" y="135" on="0"/>
        <pt x="62" y="173" on="0"/>
        <pt x="97" y="173" on="1"/>
        <pt x="113" y="46" on="0"/>
        <pt x="246" y="46" on="1"/>
        <pt x="316" y="46" on="0"/>
        <pt x="401" y="117" on="0"/>
        <pt x="401" y="175" on="1"/>
        <pt x="401" y="224" on="0"/>
        <pt x="368" y="252" on="1"/>
        <pt x="353" y="264" on="0"/>
        <pt x="340" y="275" on="0"/>
        <pt x="294" y="298" on="0"/>
        <pt x="279" y="304" on="0"/>
        <pt x="200" y="339" on="0"/>
        <pt x="148" y="366" on="0"/>
        <pt x="115" y="390" on="1"/>
        <pt x="53" y="435" on="0"/>
        <pt x="53" y="597" on="0"/>
        <pt x="178" y="693" on="0"/>
        <pt x="269" y="694" on="1"/>
        <pt x="364" y="696" on="0"/>
      </contour>
    </TTGlyph>
    <TTGlyph name="Scaron" xMin="25" yMin="-15" xMax="480" yMax="890">
      <contour>
        <pt x="480" y="206" on="1"/>
        <pt x="480" y="113" on="0"/>
        <pt x="343" y="-15" on="0"/>
        <pt x="230" y="-15" on="1"/>
        <pt x="149" y="-15" on="0"/>
        <pt x="25" y="50" on="0"/>
        <pt x="25" y="106" on="1"/>
        <pt x="25" y="135" on="0"/>
        <pt x="62" y="173" on="0"/>
        <pt x="97" y="173" on="1"/>
        <pt x="113" y="46" on="0"/>
        <pt x="246" y="46" on="1"/>
        <pt x="316" y="46" on="0"/>
        <pt x="401" y="117" on="0"/>
        <pt x="401" y="175" on="1"/>
        <pt x="401" y="224" on="0"/>
        <pt x="368" y="252" on="1"/>
        <pt x="353" y="264" on="0"/>
        <pt x="340" y="275" on="0"/>
        <pt x="294" y="298" on="0"/>
        <pt x="279" y="304" on="0"/>
        <pt x="200" y="339" on="0"/>
        <pt x="148" y="366" on="0"/>
        <pt x="115" y="390" on="1"/>
        <pt x="53" y="435" on="0"/>
        <pt x="53" y="597" on="0"/>
        <pt x="178" y="693" on="0"/>
        <pt x="269" y="694" on="1"/>
        <pt x="364" y="696" on="0"/>
        <pt x="417" y="650" on="1"/>
        <pt x="448" y="623" on="0"/>
        <pt x="448" y="546" on="0"/>
        <pt x="407" y="512" on="0"/>
        <pt x="377" y="514" on="1"/>
        <pt x="377" y="633" on="0"/>
        <pt x="258" y="633" on="1"/>
        <pt x="203" y="633" on="0"/>
        <pt x="132" y="582" on="0"/>
        <pt x="132" y="503" on="0"/>
        <pt x="179" y="450" on="0"/>
        <pt x="236" y="420" on="0"/>
        <pt x="264" y="408" on="1"/>
        <pt x="392" y="355" on="0"/>
        <pt x="480" y="276" on="0"/>
      </contour>
      <contour>
        <pt x="430" y="859" on="1"/>
        <pt x="297" y="737" on="1"/>
        <pt x="266" y="729" on="0"/>
        <pt x="232" y="737" on="1"/>
        <pt x="98" y="859" on="1"/>
        <pt x="109" y="881" on="0"/>
        <pt x="128" y="890" on="1"/>
        <pt x="264" y="803" on="1"/>
        <pt x="399" y="890" on="1"/>
        <pt x="414" y="882" on="0"/>
      </contour>
    </TTGlyph>
    <TTGlyph name="Scircumflex" xMin="25" yMin="-15" xMax="480" yMax="875">
      <contour>
        <pt x="480" y="206" on="1"/>
        <pt x="480" y="113" on="0"/>
        <pt x="343" y="-15" on="0"/>
        <pt x="230" y="-15" on="1"/>
        <pt x="149" y="-15" on="0"/>
        <pt x="25" y="50" on="0"/>
        <pt x="25" y="106" on="1"/>
        <pt x="25" y="135" on="0"/>
        <pt x="62" y="173" on="0"/>
        <pt x="97" y="173" on="1"/>
        <pt x="113" y="46" on="0"/>
        <pt x="246" y="46" on="1"/>
        <pt x="316" y="46" on="0"/>
        <pt x="401" y="117" on="0"/>
        <pt x="401" y="175" on="1"/>
        <pt x="401" y="224" on="0"/>
        <pt x="368" y="252" on="1"/>
        <pt x="353" y="264" on="0"/>
        <pt x="340" y="275" on="0"/>
        <pt x="294" y="298" on="0"/>
        <pt x="279" y="304" on="0"/>
        <pt x="200" y="339" on="0"/>
        <pt x="148" y="366" on="0"/>
        <pt x="115" y="390" on="1"/>
        <pt x="53" y="435" on="0"/>
        <pt x="53" y="597" on="0"/>
        <pt x="178" y="693" on="0"/>
        <pt x="269" y="694" on="1"/>
        <pt x="364" y="696" on="0"/>
        <pt x="417" y="650" on="1"/>
        <pt x="448" y="623" on="0"/>
        <pt x="448" y="546" on="0"/>
        <pt x="407" y="512" on="0"/>
        <pt x="377" y="514" on="1"/>
        <pt x="377" y="633" on="0"/>
        <pt x="258" y="633" on="1"/>
        <pt x="203" y="633" on="0"/>
        <pt x="132" y="582" on="0"/>
        <pt x="132" y="503" on="0"/>
        <pt x="179" y="450" on="0"/>
        <pt x="236" y="420" on="0"/>
        <pt x="264" y="408" on="1"/>
        <pt x="392" y="355" on="0"/>
        <pt x="480" y="276" on="0"/>
      </contour>
      <contour>
        <pt x="265" y="808" on="1"/>
        <pt x="129" y="721" on="1"/>
        <pt x="111" y="731" on="0"/>
        <pt x="99" y="752" on="1"/>
        <pt x="233" y="875" on="1"/>
        <pt x="267" y="882" on="0"/>
        <pt x="299" y="875" on="1"/>
        <pt x="431" y="752" on="1"/>
        <pt x="417" y="729" on="0"/>
        <pt x="400" y="721" on="1"/>
      </contour>
    </TTGlyph>
    <TTGlyph name="T" xMin="20" yMin="0" xMax="592" yMax="679">
      <contour>
        <pt x="20" y="679" on="1"/>
        <pt x="592" y="679" on="1"/>
        <pt x="592" y="553" on="1"/>
        <pt x="592" y="518" on="0"/>
        <pt x="542" y="521" on="1"/>
        <pt x="535" y="621" on="1"/>
        <pt x="351" y="621" on="1"/>
        <pt x="351" y="56" on="1"/>
        <pt x="428" y="50" on="1"/>
        <pt x="433" y="0" on="0"/>
        <pt x="396" y="0" on="1"/>
        <pt x="183" y="0" on="1"/>
        <pt x="183" y="8" on="1"/>
        <pt x="183" y="49" on="0"/>
        <pt x="218" y="52" on="1"/>
        <pt x="263" y="54" on="1"/>
        <pt x="263" y="621" on="1"/>
        <pt x="78" y="621" on="1"/>
        <pt x="70" y="521" on="1"/>
        <pt x="20" y="518" on="0"/>
        <pt x="20" y="553" on="1"/>
      </contour>
    </TTGlyph>
    <TTGlyph name="Tbar" xMin="20" yMin="0" xMax="592" yMax="824">
      <contour>
        <pt x="20" y="679" on="1"/>
        <pt x="592" y="679" on="1"/>
        <pt x="592" y="553" on="1"/>
        <pt x="592" y="518" on="0"/>
        <pt x="542" y="521" on="1"/>
        <pt x="535" y="621" on="1"/>
        <pt x="351" y="621" on="1"/>
        <pt x="351" y="56" on="1"/>
        <pt x="428" y="50" on="1"/>
        <pt x="433" y="0" on="0"/>
        <pt x="396" y="0" on="1"/>
        <pt x="183" y="0" on="1"/>
        <pt x="183" y="8" on="1"/>
        <pt x="183" y="49" on="0"/>
        <pt x="218" y="52" on="1"/>
        <pt x="263" y="54" on="1"/>
        <pt x="263" y="621" on="1"/>
        <pt x="78" y="621" on="1"/>
        <pt x="70" y="521" on="1"/>
        <pt x="20" y="518" on="0"/>
        <pt x="20" y="553" on="1"/>
      </contour>
      <contour>
        <pt x="447" y="824" on="1"/>
        <pt x="447" y="764" on="1"/>
        <pt x="174" y="764" on="1"/>
        <pt x="174" y="824" on="1"/>
      </contour>
    </TTGlyph>
    <TTGlyph name="Tcaron" xMin="20" yMin="0" xMax="592" yMax="891">
      <contour>
        <pt x="20" y="679" on="1"/>
        <pt x="592" y="679" on="1"/>
        <pt x="592" y="553" on="1"/>
        <pt x="592" y="518" on="0"/>
        <pt x="542" y="521" on="1"/>
        <pt x="535" y="621" on="1"/>
        <pt x="351" y="621" on="1"/>
        <pt x="351" y="56" on="1"/>
        <pt x="428" y="50" on="1"/>
        <pt x="433" y="0" on="0"/>
        <pt x="396" y="0" on="1"/>
        <pt x="183" y="0" on="1"/>
        <pt x="183" y="8" on="1"/>
        <pt x="183" y="49" on="0"/>
        <pt x="218" y="52" on="1"/>
        <pt x="263" y="54" on="1"/>
        <pt x="263" y="621" on="1"/>
        <pt x="78" y="621" on="1"/>
        <pt x="70" y="521" on="1"/>
        <pt x="20" y="518" on="0"/>
        <pt x="20" y="553" on="1"/>
      </contour>
      <contour>
        <pt x="476" y="860" on="1"/>
        <pt x="344" y="737" on="1"/>
        <pt x="312" y="730" on="0"/>
        <pt x="278" y="737" on="1"/>
        <pt x="144" y="860" on="1"/>
        <pt x="156" y="881" on="0"/>
        <pt x="174" y="891" on="1"/>
        <pt x="310" y="804" on="1"/>
        <pt x="445" y="891" on="1"/>
        <pt x="462" y="883" on="0"/>
      </contour>
    </TTGlyph>
    <TTGlyph name="Thorn" xMin="41" yMin="0" xMax="540" yMax="681">
      <contour>
        <pt x="260" y="145" on="1"/>
        <pt x="204" y="146" on="1"/>
        <pt x="204" y="56" on="1"/>
        <pt x="205" y="56" on="1"/>
        <pt x="278" y="50" on="1"/>
        <pt x="283" y="0" on="0"/>
        <pt x="245" y="0" on="1"/>
        <pt x="41" y="0" on="1"/>
        <pt x="41" y="8" on="1"/>
        <pt x="41" y="49" on="0"/>
        <pt x="76" y="52" on="1"/>
        <pt x="117" y="54" on="1"/>
        <pt x="117" y="624" on="1"/>
        <pt x="44" y="630" on="1"/>
        <pt x="39" y="681" on="0"/>
        <pt x="77" y="681" on="1"/>
        <pt x="281" y="681" on="1"/>
        <pt x="281" y="672" on="1"/>
        <pt x="281" y="643" on="0"/>
        <pt x="264" y="634" on="1"/>
        <pt x="257" y="630" on="0"/>
        <pt x="246" y="629" on="1"/>
        <pt x="205" y="626" on="1"/>
        <pt x="204" y="626" on="1"/>
        <pt x="204" y="553" on="1"/>
        <pt x="283" y="553" on="1"/>
        <pt x="409" y="553" on="0"/>
        <pt x="540" y="447" on="0"/>
        <pt x="540" y="359" on="1"/>
        <pt x="540" y="250" on="0"/>
        <pt x="390" y="145" on="0"/>
      </contour>
      <contour>
        <pt x="255" y="502" on="1"/>
        <pt x="204" y="502" on="1"/>
        <pt x="204" y="197" on="1"/>
        <pt x="219" y="196" on="0"/>
        <pt x="247" y="196" on="1"/>
        <pt x="446" y="196" on="0"/>
        <pt x="446" y="351" on="1"/>
        <pt x="446" y="502" on="0"/>
      </contour>
    </TTGlyph>
    <TTGlyph name="U" xMin="19" yMin="-15" xMax="634" yMax="679">
      <contour>
        <pt x="458" y="679" on="1"/>
        <pt x="634" y="679" on="1"/>
        <pt x="634" y="670" on="1"/>
        <pt x="634" y="631" on="0"/>
        <pt x="599" y="628" on="1"/>
        <pt x="560" y="625" on="1"/>
        <pt x="560" y="264" on="1"/>
        <pt x="560" y="-15" on="0"/>
        <pt x="317" y="-15" on="1"/>
        <pt x="202" y="-15" on="0"/>
        <pt x="92" y="120" on="0"/>
        <pt x="92" y="256" on="1"/>
        <pt x="92" y="623" on="1"/>
        <pt x="19" y="629" on="1"/>
        <pt x="14" y="679" on="0"/>
        <pt x="52" y="679" on="1"/>
        <pt x="255" y="679" on="1"/>
        <pt x="255" y="670" on="1"/>
        <pt x="255" y="631" on="0"/>
        <pt x="220" y="628" on="1"/>
        <pt x="179" y="625" on="1"/>
        <pt x="179" y="254" on="1"/>
        <pt x="179" y="145" on="0"/>
        <pt x="253" y="45" on="0"/>
        <pt x="329" y="45" on="1"/>
        <pt x="498" y="45" on="0"/>
        <pt x="498" y="248" on="1"/>
        <pt x="498" y="623" on="1"/>
        <pt x="426" y="629" on="1"/>
        <pt x="421" y="679" on="0"/>
      </contour>
    </TTGlyph>
    <TTGlyph name="Uacute" xMin="19" yMin="-15" xMax="634" yMax="893">
      <contour>
        <pt x="483" y="838" on="1"/>
        <pt x="283" y="730" on="1"/>
        <pt x="261" y="741" on="0"/>
        <pt x="250" y="763" on="1"/>
        <pt x="415" y="893" on="1"/>
        <pt x="435" y="890" on="0"/>
        <pt x="475" y="856" on="0"/>
      </contour>
      <contour>
        <pt x="458" y="679" on="1"/>
        <pt x="634" y="679" on="1"/>
        <pt x="634" y="670" on="1"/>
        <pt x="634" y="631" on="0"/>
        <pt x="599" y="628" on="1"/>
        <pt x="560" y="625" on="1"/>
        <pt x="560" y="264" on="1"/>
        <pt x="560" y="-15" on="0"/>
        <pt x="317" y="-15" on="1"/>
        <pt x="202" y="-15" on="0"/>
        <pt x="92" y="120" on="0"/>
        <pt x="92" y="256" on="1"/>
        <pt x="92" y="623" on="1"/>
        <pt x="19" y="629" on="1"/>
        <pt x="14" y="679" on="0"/>
        <pt x="52" y="679" on="1"/>
        <pt x="255" y="679" on="1"/>
        <pt x="255" y="670" on="1"/>
        <pt x="255" y="631" on="0"/>
        <pt x="220" y="628" on="1"/>
        <pt x="179" y="625" on="1"/>
        <pt x="179" y="254" on="1"/>
        <pt x="179" y="145" on="0"/>
        <pt x="253" y="45" on="0"/>
        <pt x="329" y="45" on="1"/>
        <pt x="498" y="45" on="0"/>
        <pt x="498" y="248" on="1"/>
        <pt x="498" y="623" on="1"/>
        <pt x="426" y="629" on="1"/>
        <pt x="421" y="679" on="0"/>
      </contour>
    </TTGlyph>
    <TTGlyph name="Ubreve" xMin="19" yMin="-15" xMax="634" yMax="887">
      <contour>
        <pt x="458" y="679" on="1"/>
        <pt x="634" y="679" on="1"/>
        <pt x="634" y="670" on="1"/>
        <pt x="634" y="631" on="0"/>
        <pt x="599" y="628" on="1"/>
        <pt x="560" y="625" on="1"/>
        <pt x="560" y="264" on="1"/>
        <pt x="560" y="-15" on="0"/>
        <pt x="317" y="-15" on="1"/>
        <pt x="202" y="-15" on="0"/>
        <pt x="92" y="120" on="0"/>
        <pt x="92" y="256" on="1"/>
        <pt x="92" y="623" on="1"/>
        <pt x="19" y="629" on="1"/>
        <pt x="14" y="679" on="0"/>
        <pt x="52" y="679" on="1"/>
        <pt x="255" y="679" on="1"/>
        <pt x="255" y="670" on="1"/>
        <pt x="255" y="631" on="0"/>
        <pt x="220" y="628" on="1"/>
        <pt x="179" y="625" on="1"/>
        <pt x="179" y="254" on="1"/>
        <pt x="179" y="145" on="0"/>
        <pt x="253" y="45" on="0"/>
        <pt x="329" y="45" on="1"/>
        <pt x="498" y="45" on="0"/>
        <pt x="498" y="248" on="1"/>
        <pt x="498" y="623" on="1"/>
        <pt x="426" y="629" on="1"/>
        <pt x="421" y="679" on="0"/>
      </contour>
      <contour>
        <pt x="331" y="807" on="1"/>
        <pt x="422" y="807" on="0"/>
        <pt x="453" y="886" on="1"/>
        <pt x="488" y="870" on="1"/>
        <pt x="480" y="817" on="0"/>
        <pt x="399" y="737" on="0"/>
        <pt x="260" y="737" on="0"/>
        <pt x="180" y="817" on="0"/>
        <pt x="172" y="870" on="1"/>
        <pt x="207" y="887" on="1"/>
        <pt x="218" y="858" on="0"/>
        <pt x="280" y="807" on="0"/>
      </contour>
    </TTGlyph>
    <TTGlyph name="Ucircumflex" xMin="19" yMin="-15" xMax="634" yMax="874">
      <contour>
        <pt x="458" y="679" on="1"/>
        <pt x="634" y="679" on="1"/>
        <pt x="634" y="670" on="1"/>
        <pt x="634" y="631" on="0"/>
        <pt x="599" y="628" on="1"/>
        <pt x="560" y="625" on="1"/>
        <pt x="560" y="264" on="1"/>
        <pt x="560" y="-15" on="0"/>
        <pt x="317" y="-15" on="1"/>
        <pt x="202" y="-15" on="0"/>
        <pt x="92" y="120" on="0"/>
        <pt x="92" y="256" on="1"/>
        <pt x="92" y="623" on="1"/>
        <pt x="19" y="629" on="1"/>
        <pt x="14" y="679" on="0"/>
        <pt x="52" y="679" on="1"/>
        <pt x="255" y="679" on="1"/>
        <pt x="255" y="670" on="1"/>
        <pt x="255" y="631" on="0"/>
        <pt x="220" y="628" on="1"/>
        <pt x="179" y="625" on="1"/>
        <pt x="179" y="254" on="1"/>
        <pt x="179" y="145" on="0"/>
        <pt x="253" y="45" on="0"/>
        <pt x="329" y="45" on="1"/>
        <pt x="498" y="45" on="0"/>
        <pt x="498" y="248" on="1"/>
        <pt x="498" y="623" on="1"/>
        <pt x="426" y="629" on="1"/>
        <pt x="421" y="679" on="0"/>
      </contour>
      <contour>
        <pt x="330" y="808" on="1"/>
        <pt x="194" y="721" on="1"/>
        <pt x="176" y="731" on="0"/>
        <pt x="164" y="752" on="1"/>
        <pt x="298" y="874" on="1"/>
        <pt x="332" y="882" on="0"/>
        <pt x="364" y="874" on="1"/>
        <pt x="496" y="752" on="1"/>
        <pt x="483" y="730" on="0"/>
        <pt x="465" y="721" on="1"/>
      </contour>
    </TTGlyph>
    <TTGlyph name="Udieresis" xMin="19" yMin="-15" xMax="634" yMax="866">
      <contour>
        <pt x="471" y="785" on="0"/>
        <pt x="438" y="752" on="0"/>
        <pt x="390" y="752" on="0"/>
        <pt x="357" y="785" on="0"/>
        <pt x="357" y="832" on="0"/>
        <pt x="390" y="866" on="0"/>
        <pt x="438" y="866" on="0"/>
        <pt x="471" y="832" on="0"/>
      </contour>
      <contour>
        <pt x="266" y="752" on="0"/>
        <pt x="218" y="752" on="0"/>
        <pt x="184" y="785" on="0"/>
        <pt x="184" y="832" on="0"/>
        <pt x="218" y="866" on="0"/>
        <pt x="266" y="866" on="0"/>
        <pt x="299" y="832" on="0"/>
        <pt x="299" y="785" on="0"/>
      </contour>
      <contour>
        <pt x="458" y="679" on="1"/>
        <pt x="634" y="679" on="1"/>
        <pt x="634" y="670" on="1"/>
        <pt x="634" y="631" on="0"/>
        <pt x="599" y="628" on="1"/>
        <pt x="560" y="625" on="1"/>
        <pt x="560" y="264" on="1"/>
        <pt x="560" y="-15" on="0"/>
        <pt x="317" y="-15" on="1"/>
        <pt x="202" y="-15" on="0"/>
        <pt x="92" y="120" on="0"/>
        <pt x="92" y="256" on="1"/>
        <pt x="92" y="623" on="1"/>
        <pt x="19" y="629" on="1"/>
        <pt x="14" y="679" on="0"/>
        <pt x="52" y="679" on="1"/>
        <pt x="255" y="679" on="1"/>
        <pt x="255" y="670" on="1"/>
        <pt x="255" y="631" on="0"/>
        <pt x="220" y="628" on="1"/>
        <pt x="179" y="625" on="1"/>
        <pt x="179" y="254" on="1"/>
        <pt x="179" y="145" on="0"/>
        <pt x="253" y="45" on="0"/>
        <pt x="329" y="45" on="1"/>
        <pt x="498" y="45" on="0"/>
        <pt x="498" y="248" on="1"/>
        <pt x="498" y="623" on="1"/>
        <pt x="426" y="629" on="1"/>
        <pt x="421" y="679" on="0"/>
      </contour>
    </TTGlyph>
    <TTGlyph name="Ugrave" xMin="19" yMin="-15" xMax="634" yMax="887">
      <contour>
        <pt x="393" y="725" on="1"/>
        <pt x="192" y="833" on="1"/>
        <pt x="201" y="851" on="0"/>
        <pt x="242" y="885" on="0"/>
        <pt x="261" y="887" on="1"/>
        <pt x="426" y="758" on="1"/>
        <pt x="415" y="736" on="0"/>
      </contour>
      <contour>
        <pt x="458" y="679" on="1"/>
        <pt x="634" y="679" on="1"/>
        <pt x="634" y="670" on="1"/>
        <pt x="634" y="631" on="0"/>
        <pt x="599" y="628" on="1"/>
        <pt x="560" y="625" on="1"/>
        <pt x="560" y="264" on="1"/>
        <pt x="560" y="-15" on="0"/>
        <pt x="317" y="-15" on="1"/>
        <pt x="202" y="-15" on="0"/>
        <pt x="92" y="120" on="0"/>
        <pt x="92" y="256" on="1"/>
        <pt x="92" y="623" on="1"/>
        <pt x="19" y="629" on="1"/>
        <pt x="14" y="679" on="0"/>
        <pt x="52" y="679" on="1"/>
        <pt x="255" y="679" on="1"/>
        <pt x="255" y="670" on="1"/>
        <pt x="255" y="631" on="0"/>
        <pt x="220" y="628" on="1"/>
        <pt x="179" y="625" on="1"/>
        <pt x="179" y="254" on="1"/>
        <pt x="179" y="145" on="0"/>
        <pt x="253" y="45" on="0"/>
        <pt x="329" y="45" on="1"/>
        <pt x="498" y="45" on="0"/>
        <pt x="498" y="248" on="1"/>
        <pt x="498" y="623" on="1"/>
        <pt x="426" y="629" on="1"/>
        <pt x="421" y="679" on="0"/>
      </contour>
    </TTGlyph>
    <TTGlyph name="Uhungarumlaut" xMin="19" yMin="-15" xMax="634" yMax="856">
      <contour>
        <pt x="458" y="679" on="1"/>
        <pt x="634" y="679" on="1"/>
        <pt x="634" y="670" on="1"/>
        <pt x="634" y="631" on="0"/>
        <pt x="599" y="628" on="1"/>
        <pt x="560" y="625" on="1"/>
        <pt x="560" y="264" on="1"/>
        <pt x="560" y="-15" on="0"/>
        <pt x="317" y="-15" on="1"/>
        <pt x="202" y="-15" on="0"/>
        <pt x="92" y="120" on="0"/>
        <pt x="92" y="256" on="1"/>
        <pt x="92" y="623" on="1"/>
        <pt x="19" y="629" on="1"/>
        <pt x="14" y="679" on="0"/>
        <pt x="52" y="679" on="1"/>
        <pt x="255" y="679" on="1"/>
        <pt x="255" y="670" on="1"/>
        <pt x="255" y="631" on="0"/>
        <pt x="220" y="628" on="1"/>
        <pt x="179" y="625" on="1"/>
        <pt x="179" y="254" on="1"/>
        <pt x="179" y="145" on="0"/>
        <pt x="253" y="45" on="0"/>
        <pt x="329" y="45" on="1"/>
        <pt x="498" y="45" on="0"/>
        <pt x="498" y="248" on="1"/>
        <pt x="498" y="623" on="1"/>
        <pt x="426" y="629" on="1"/>
        <pt x="421" y="679" on="0"/>
      </contour>
      <contour>
        <pt x="429" y="802" on="1"/>
        <pt x="228" y="694" on="1"/>
        <pt x="206" y="705" on="0"/>
        <pt x="195" y="727" on="1"/>
        <pt x="360" y="856" on="1"/>
        <pt x="379" y="854" on="0"/>
        <pt x="420" y="820" on="0"/>
      </contour>
      <contour>
        <pt x="608" y="802" on="1"/>
        <pt x="407" y="694" on="1"/>
        <pt x="385" y="705" on="0"/>
        <pt x="374" y="727" on="1"/>
        <pt x="539" y="856" on="1"/>
        <pt x="558" y="854" on="0"/>
        <pt x="599" y="820" on="0"/>
      </contour>
    </TTGlyph>
    <TTGlyph name="Umacron" xMin="19" yMin="-15" xMax="634" yMax="824">
      <contour>
        <pt x="193" y="824" on="1"/>
        <pt x="466" y="824" on="1"/>
        <pt x="466" y="764" on="1"/>
        <pt x="193" y="764" on="1"/>
      </contour>
      <contour>
        <pt x="458" y="679" on="1"/>
        <pt x="634" y="679" on="1"/>
        <pt x="634" y="670" on="1"/>
        <pt x="634" y="631" on="0"/>
        <pt x="599" y="628" on="1"/>
        <pt x="560" y="625" on="1"/>
        <pt x="560" y="264" on="1"/>
        <pt x="560" y="-15" on="0"/>
        <pt x="317" y="-15" on="1"/>
        <pt x="202" y="-15" on="0"/>
        <pt x="92" y="120" on="0"/>
        <pt x="92" y="256" on="1"/>
        <pt x="92" y="623" on="1"/>
        <pt x="19" y="629" on="1"/>
        <pt x="14" y="679" on="0"/>
        <pt x="52" y="679" on="1"/>
        <pt x="255" y="679" on="1"/>
        <pt x="255" y="670" on="1"/>
        <pt x="255" y="631" on="0"/>
        <pt x="220" y="628" on="1"/>
        <pt x="179" y="625" on="1"/>
        <pt x="179" y="254" on="1"/>
        <pt x="179" y="145" on="0"/>
        <pt x="253" y="45" on="0"/>
        <pt x="329" y="45" on="1"/>
        <pt x="498" y="45" on="0"/>
        <pt x="498" y="248" on="1"/>
        <pt x="498" y="623" on="1"/>
        <pt x="426" y="629" on="1"/>
        <pt x="421" y="679" on="0"/>
      </contour>
    </TTGlyph>
    <TTGlyph name="Uogonek" xMin="19" yMin="-183" xMax="634" yMax="679">
      <contour>
        <pt x="458" y="679" on="1"/>
        <pt x="634" y="679" on="1"/>
        <pt x="634" y="670" on="1"/>
        <pt x="634" y="631" on="0"/>
        <pt x="599" y="628" on="1"/>
        <pt x="560" y="625" on="1"/>
        <pt x="560" y="264" on="1"/>
        <pt x="560" y="40" on="0"/>
        <pt x="402" y="-5" on="1"/>
        <pt x="331" y="-34" on="0"/>
        <pt x="331" y="-89" on="1"/>
        <pt x="331" y="-112" on="0"/>
        <pt x="357" y="-137" on="0"/>
        <pt x="407" y="-137" on="0"/>
        <pt x="434" y="-115" on="1"/>
        <pt x="438" y="-118" on="0"/>
        <pt x="443" y="-142" on="0"/>
        <pt x="441" y="-149" on="1"/>
        <pt x="417" y="-183" on="0"/>
        <pt x="358" y="-183" on="1"/>
        <pt x="318" y="-183" on="0"/>
        <pt x="267" y="-140" on="0"/>
        <pt x="267" y="-105" on="1"/>
        <pt x="267" y="-52" on="0"/>
        <pt x="316" y="-15" on="1"/>
        <pt x="92" y="-15" on="0"/>
        <pt x="92" y="256" on="1"/>
        <pt x="92" y="623" on="1"/>
        <pt x="19" y="629" on="1"/>
        <pt x="14" y="679" on="0"/>
        <pt x="52" y="679" on="1"/>
        <pt x="255" y="679" on="1"/>
        <pt x="255" y="670" on="1"/>
        <pt x="255" y="631" on="0"/>
        <pt x="220" y="628" on="1"/>
        <pt x="179" y="625" on="1"/>
        <pt x="179" y="254" on="1"/>
        <pt x="179" y="145" on="0"/>
        <pt x="253" y="45" on="0"/>
        <pt x="329" y="45" on="1"/>
        <pt x="498" y="45" on="0"/>
        <pt x="498" y="248" on="1"/>
        <pt x="498" y="623" on="1"/>
        <pt x="426" y="629" on="1"/>
        <pt x="421" y="679" on="0"/>
      </contour>
    </TTGlyph>
    <TTGlyph name="Uring" xMin="19" yMin="-15" xMax="634" yMax="906">
      <contour>
        <pt x="352" y="862" on="0"/>
        <pt x="312" y="862" on="0"/>
        <pt x="288" y="838" on="0"/>
        <pt x="288" y="798" on="0"/>
        <pt x="312" y="773" on="0"/>
        <pt x="352" y="773" on="0"/>
        <pt x="377" y="798" on="0"/>
        <pt x="377" y="838" on="0"/>
      </contour>
      <contour>
        <pt x="292" y="906" on="0"/>
        <pt x="376" y="906" on="0"/>
        <pt x="425" y="859" on="0"/>
        <pt x="424" y="780" on="0"/>
        <pt x="372" y="730" on="0"/>
        <pt x="290" y="730" on="0"/>
        <pt x="240" y="778" on="0"/>
        <pt x="240" y="856" on="0"/>
      </contour>
      <contour>
        <pt x="458" y="679" on="1"/>
        <pt x="634" y="679" on="1"/>
        <pt x="634" y="670" on="1"/>
        <pt x="634" y="631" on="0"/>
        <pt x="599" y="628" on="1"/>
        <pt x="560" y="625" on="1"/>
        <pt x="560" y="264" on="1"/>
        <pt x="560" y="-15" on="0"/>
        <pt x="317" y="-15" on="1"/>
        <pt x="202" y="-15" on="0"/>
        <pt x="92" y="120" on="0"/>
        <pt x="92" y="256" on="1"/>
        <pt x="92" y="623" on="1"/>
        <pt x="19" y="629" on="1"/>
        <pt x="14" y="679" on="0"/>
        <pt x="52" y="679" on="1"/>
        <pt x="255" y="679" on="1"/>
        <pt x="255" y="670" on="1"/>
        <pt x="255" y="631" on="0"/>
        <pt x="220" y="628" on="1"/>
        <pt x="179" y="625" on="1"/>
        <pt x="179" y="254" on="1"/>
        <pt x="179" y="145" on="0"/>
        <pt x="253" y="45" on="0"/>
        <pt x="329" y="45" on="1"/>
        <pt x="498" y="45" on="0"/>
        <pt x="498" y="248" on="1"/>
        <pt x="498" y="623" on="1"/>
        <pt x="426" y="629" on="1"/>
        <pt x="421" y="679" on="0"/>
      </contour>
    </TTGlyph>
    <TTGlyph name="Utilde" xMin="19" yMin="-15" xMax="634" yMax="874">
      <contour>
        <pt x="458" y="679" on="1"/>
        <pt x="634" y="679" on="1"/>
        <pt x="634" y="670" on="1"/>
        <pt x="634" y="631" on="0"/>
        <pt x="599" y="628" on="1"/>
        <pt x="560" y="625" on="1"/>
        <pt x="560" y="264" on="1"/>
        <pt x="560" y="-15" on="0"/>
        <pt x="317" y="-15" on="1"/>
        <pt x="202" y="-15" on="0"/>
        <pt x="92" y="120" on="0"/>
        <pt x="92" y="256" on="1"/>
        <pt x="92" y="623" on="1"/>
        <pt x="19" y="629" on="1"/>
        <pt x="14" y="679" on="0"/>
        <pt x="52" y="679" on="1"/>
        <pt x="255" y="679" on="1"/>
        <pt x="255" y="670" on="1"/>
        <pt x="255" y="631" on="0"/>
        <pt x="220" y="628" on="1"/>
        <pt x="179" y="625" on="1"/>
        <pt x="179" y="254" on="1"/>
        <pt x="179" y="145" on="0"/>
        <pt x="253" y="45" on="0"/>
        <pt x="329" y="45" on="1"/>
        <pt x="498" y="45" on="0"/>
        <pt x="498" y="248" on="1"/>
        <pt x="498" y="623" on="1"/>
        <pt x="426" y="629" on="1"/>
        <pt x="421" y="679" on="0"/>
      </contour>
      <contour>
        <pt x="173" y="816" on="0"/>
        <pt x="230" y="874" on="0"/>
        <pt x="298" y="874" on="0"/>
        <pt x="379" y="819" on="0"/>
        <pt x="430" y="819" on="0"/>
        <pt x="463" y="847" on="0"/>
        <pt x="468" y="870" on="1"/>
        <pt x="499" y="861" on="1"/>
        <pt x="482" y="750" on="0"/>
        <pt x="391" y="750" on="1"/>
        <pt x="356" y="750" on="0"/>
        <pt x="271" y="801" on="0"/>
        <pt x="230" y="801" on="0"/>
        <pt x="201" y="774" on="0"/>
        <pt x="195" y="754" on="1"/>
        <pt x="163" y="766" on="1"/>
      </contour>
    </TTGlyph>
    <TTGlyph name="V" xMin="4" yMin="0" xMax="620" yMax="679">
      <contour>
        <pt x="455" y="679" on="1"/>
        <pt x="620" y="679" on="1"/>
        <pt x="620" y="671" on="1"/>
        <pt x="620" y="631" on="0"/>
        <pt x="585" y="628" on="1"/>
        <pt x="563" y="625" on="1"/>
        <pt x="340" y="0" on="1"/>
        <pt x="272" y="0" on="1"/>
        <pt x="62" y="623" on="1"/>
        <pt x="4" y="629" on="1"/>
        <pt x="-1" y="679" on="0"/>
        <pt x="36" y="679" on="1"/>
        <pt x="235" y="679" on="1"/>
        <pt x="235" y="670" on="1"/>
        <pt x="235" y="631" on="0"/>
        <pt x="200" y="628" on="1"/>
        <pt x="159" y="625" on="1"/>
        <pt x="320" y="114" on="1"/>
        <pt x="496" y="623" on="1"/>
        <pt x="422" y="629" on="1"/>
        <pt x="417" y="679" on="0"/>
      </contour>
    </TTGlyph>
    <TTGlyph name="W" xMin="4" yMin="0" xMax="949" yMax="679">
      <contour>
        <pt x="788" y="679" on="1"/>
        <pt x="949" y="679" on="1"/>
        <pt x="949" y="679" on="0"/>
        <pt x="949" y="670" on="1"/>
        <pt x="949" y="642" on="0"/>
        <pt x="934" y="634" on="1"/>
        <pt x="927" y="629" on="0"/>
        <pt x="898" y="626" on="1"/>
        <pt x="697" y="0" on="1"/>
        <pt x="624" y="0" on="1"/>
        <pt x="477" y="462" on="1"/>
        <pt x="317" y="0" on="1"/>
        <pt x="245" y="0" on="1"/>
        <pt x="59" y="623" on="1"/>
        <pt x="4" y="629" on="1"/>
        <pt x="-1" y="679" on="0"/>
        <pt x="36" y="679" on="1"/>
        <pt x="230" y="679" on="1"/>
        <pt x="230" y="670" on="1"/>
        <pt x="230" y="631" on="0"/>
        <pt x="195" y="628" on="1"/>
        <pt x="157" y="625" on="1"/>
        <pt x="294" y="116" on="1"/>
        <pt x="460" y="616" on="1"/>
        <pt x="526" y="616" on="1"/>
        <pt x="673" y="114" on="1"/>
        <pt x="828" y="623" on="1"/>
        <pt x="756" y="629" on="1"/>
        <pt x="751" y="679" on="0"/>
      </contour>
    </TTGlyph>
    <TTGlyph name="Wacute" xMin="4" yMin="0" xMax="949" yMax="893">
      <contour>
        <pt x="788" y="679" on="1"/>
        <pt x="949" y="679" on="1"/>
        <pt x="949" y="679" on="0"/>
        <pt x="949" y="670" on="1"/>
        <pt x="949" y="642" on="0"/>
        <pt x="934" y="634" on="1"/>
        <pt x="927" y="629" on="0"/>
        <pt x="898" y="626" on="1"/>
        <pt x="697" y="0" on="1"/>
        <pt x="624" y="0" on="1"/>
        <pt x="477" y="462" on="1"/>
        <pt x="317" y="0" on="1"/>
        <pt x="245" y="0" on="1"/>
        <pt x="59" y="623" on="1"/>
        <pt x="4" y="629" on="1"/>
        <pt x="-1" y="679" on="0"/>
        <pt x="36" y="679" on="1"/>
        <pt x="230" y="679" on="1"/>
        <pt x="230" y="670" on="1"/>
        <pt x="230" y="631" on="0"/>
        <pt x="195" y="628" on="1"/>
        <pt x="157" y="625" on="1"/>
        <pt x="294" y="116" on="1"/>
        <pt x="460" y="616" on="1"/>
        <pt x="526" y="616" on="1"/>
        <pt x="673" y="114" on="1"/>
        <pt x="828" y="623" on="1"/>
        <pt x="756" y="629" on="1"/>
        <pt x="751" y="679" on="0"/>
      </contour>
      <contour>
        <pt x="651" y="838" on="1"/>
        <pt x="450" y="731" on="1"/>
        <pt x="429" y="740" on="0"/>
        <pt x="417" y="763" on="1"/>
        <pt x="582" y="893" on="1"/>
        <pt x="602" y="890" on="0"/>
        <pt x="642" y="856" on="0"/>
      </contour>
    </TTGlyph>
    <TTGlyph name="Wcircumflex" xMin="4" yMin="0" xMax="949" yMax="875">
      <contour>
        <pt x="788" y="679" on="1"/>
        <pt x="949" y="679" on="1"/>
        <pt x="949" y="679" on="0"/>
        <pt x="949" y="670" on="1"/>
        <pt x="949" y="642" on="0"/>
        <pt x="934" y="634" on="1"/>
        <pt x="927" y="629" on="0"/>
        <pt x="898" y="626" on="1"/>
        <pt x="697" y="0" on="1"/>
        <pt x="624" y="0" on="1"/>
        <pt x="477" y="462" on="1"/>
        <pt x="317" y="0" on="1"/>
        <pt x="245" y="0" on="1"/>
        <pt x="59" y="623" on="1"/>
        <pt x="4" y="629" on="1"/>
        <pt x="-1" y="679" on="0"/>
        <pt x="36" y="679" on="1"/>
        <pt x="230" y="679" on="1"/>
        <pt x="230" y="670" on="1"/>
        <pt x="230" y="631" on="0"/>
        <pt x="195" y="628" on="1"/>
        <pt x="157" y="625" on="1"/>
        <pt x="294" y="116" on="1"/>
        <pt x="460" y="616" on="1"/>
        <pt x="526" y="616" on="1"/>
        <pt x="673" y="114" on="1"/>
        <pt x="828" y="623" on="1"/>
        <pt x="756" y="629" on="1"/>
        <pt x="751" y="679" on="0"/>
      </contour>
      <contour>
        <pt x="497" y="808" on="1"/>
        <pt x="361" y="721" on="1"/>
        <pt x="343" y="731" on="0"/>
        <pt x="331" y="752" on="1"/>
        <pt x="465" y="875" on="1"/>
        <pt x="499" y="882" on="0"/>
        <pt x="531" y="875" on="1"/>
        <pt x="663" y="752" on="1"/>
        <pt x="649" y="729" on="0"/>
        <pt x="632" y="721" on="1"/>
      </contour>
    </TTGlyph>
    <TTGlyph name="Wdieresis" xMin="4" yMin="0" xMax="949" yMax="866">
      <contour>
        <pt x="788" y="679" on="1"/>
        <pt x="949" y="679" on="1"/>
        <pt x="949" y="679" on="0"/>
        <pt x="949" y="670" on="1"/>
        <pt x="949" y="642" on="0"/>
        <pt x="934" y="634" on="1"/>
        <pt x="927" y="629" on="0"/>
        <pt x="898" y="626" on="1"/>
        <pt x="697" y="0" on="1"/>
        <pt x="624" y="0" on="1"/>
        <pt x="477" y="462" on="1"/>
        <pt x="317" y="0" on="1"/>
        <pt x="245" y="0" on="1"/>
        <pt x="59" y="623" on="1"/>
        <pt x="4" y="629" on="1"/>
        <pt x="-1" y="679" on="0"/>
        <pt x="36" y="679" on="1"/>
        <pt x="230" y="679" on="1"/>
        <pt x="230" y="670" on="1"/>
        <pt x="230" y="631" on="0"/>
        <pt x="195" y="628" on="1"/>
        <pt x="157" y="625" on="1"/>
        <pt x="294" y="116" on="1"/>
        <pt x="460" y="616" on="1"/>
        <pt x="526" y="616" on="1"/>
        <pt x="673" y="114" on="1"/>
        <pt x="828" y="623" on="1"/>
        <pt x="756" y="629" on="1"/>
        <pt x="751" y="679" on="0"/>
      </contour>
      <contour>
        <pt x="466" y="786" on="0"/>
        <pt x="433" y="752" on="0"/>
        <pt x="385" y="752" on="0"/>
        <pt x="351" y="786" on="0"/>
        <pt x="351" y="832" on="0"/>
        <pt x="385" y="866" on="0"/>
        <pt x="433" y="866" on="0"/>
        <pt x="466" y="832" on="0"/>
      </contour>
      <contour>
        <pt x="639" y="785" on="0"/>
        <pt x="605" y="752" on="0"/>
        <pt x="557" y="752" on="0"/>
        <pt x="524" y="786" on="0"/>
        <pt x="524" y="832" on="0"/>
        <pt x="557" y="866" on="0"/>
        <pt x="605" y="866" on="0"/>
        <pt x="639" y="833" on="0"/>
      </contour>
    </TTGlyph>
    <TTGlyph name="Wgrave" xMin="4" yMin="0" xMax="949" yMax="887">
      <contour>
        <pt x="788" y="679" on="1"/>
        <pt x="949" y="679" on="1"/>
        <pt x="949" y="679" on="0"/>
        <pt x="949" y="670" on="1"/>
        <pt x="949" y="642" on="0"/>
        <pt x="934" y="634" on="1"/>
        <pt x="927" y="629" on="0"/>
        <pt x="898" y="626" on="1"/>
        <pt x="697" y="0" on="1"/>
        <pt x="624" y="0" on="1"/>
        <pt x="477" y="462" on="1"/>
        <pt x="317" y="0" on="1"/>
        <pt x="245" y="0" on="1"/>
        <pt x="59" y="623" on="1"/>
        <pt x="4" y="629" on="1"/>
        <pt x="-1" y="679" on="0"/>
        <pt x="36" y="679" on="1"/>
        <pt x="230" y="679" on="1"/>
        <pt x="230" y="670" on="1"/>
        <pt x="230" y="631" on="0"/>
        <pt x="195" y="628" on="1"/>
        <pt x="157" y="625" on="1"/>
        <pt x="294" y="116" on="1"/>
        <pt x="460" y="616" on="1"/>
        <pt x="526" y="616" on="1"/>
        <pt x="673" y="114" on="1"/>
        <pt x="828" y="623" on="1"/>
        <pt x="756" y="629" on="1"/>
        <pt x="751" y="679" on="0"/>
      </contour>
      <contour>
        <pt x="428" y="887" on="1"/>
        <pt x="593" y="758" on="1"/>
        <pt x="582" y="736" on="0"/>
        <pt x="560" y="725" on="1"/>
        <pt x="359" y="833" on="1"/>
        <pt x="368" y="851" on="0"/>
        <pt x="409" y="885" on="0"/>
      </contour>
    </TTGlyph>
    <TTGlyph name="X" xMin="14" yMin="0" xMax="631" yMax="681">
      <contour>
        <pt x="598" y="0" on="1"/>
        <pt x="395" y="0" on="1"/>
        <pt x="395" y="7" on="1"/>
        <pt x="395" y="48" on="0"/>
        <pt x="430" y="52" on="1"/>
        <pt x="461" y="54" on="1"/>
        <pt x="462" y="54" on="1"/>
        <pt x="308" y="281" on="1"/>
        <pt x="163" y="56" on="1"/>
        <pt x="232" y="50" on="1"/>
        <pt x="237" y="0" on="0"/>
        <pt x="199" y="0" on="1"/>
        <pt x="14" y="0" on="1"/>
        <pt x="14" y="8" on="1"/>
        <pt x="14" y="49" on="0"/>
        <pt x="49" y="52" on="1"/>
        <pt x="84" y="54" on="1"/>
        <pt x="274" y="330" on="1"/>
        <pt x="75" y="624" on="1"/>
        <pt x="14" y="630" on="1"/>
        <pt x="9" y="681" on="0"/>
        <pt x="46" y="681" on="1"/>
        <pt x="250" y="681" on="1"/>
        <pt x="250" y="674" on="1"/>
        <pt x="250" y="633" on="0"/>
        <pt x="215" y="629" on="1"/>
        <pt x="181" y="626" on="1"/>
        <pt x="335" y="399" on="1"/>
        <pt x="476" y="624" on="1"/>
        <pt x="407" y="630" on="1"/>
        <pt x="402" y="681" on="0"/>
        <pt x="440" y="681" on="1"/>
        <pt x="620" y="681" on="1"/>
        <pt x="620" y="672" on="1"/>
        <pt x="620" y="632" on="0"/>
        <pt x="585" y="629" on="1"/>
        <pt x="558" y="627" on="1"/>
        <pt x="555" y="627" on="1"/>
        <pt x="369" y="348" on="1"/>
        <pt x="568" y="56" on="1"/>
        <pt x="631" y="50" on="1"/>
        <pt x="636" y="0" on="0"/>
      </contour>
    </TTGlyph>
    <TTGlyph name="Y" xMin="4" yMin="0" xMax="601" yMax="681">
      <contour>
        <pt x="434" y="681" on="1"/>
        <pt x="601" y="681" on="1"/>
        <pt x="601" y="672" on="1"/>
        <pt x="601" y="632" on="0"/>
        <pt x="566" y="629" on="1"/>
        <pt x="544" y="626" on="1"/>
        <pt x="349" y="280" on="1"/>
        <pt x="349" y="56" on="1"/>
        <pt x="422" y="50" on="1"/>
        <pt x="427" y="0" on="0"/>
        <pt x="389" y="0" on="1"/>
        <pt x="184" y="0" on="1"/>
        <pt x="184" y="8" on="1"/>
        <pt x="184" y="49" on="0"/>
        <pt x="219" y="52" on="1"/>
        <pt x="260" y="54" on="1"/>
        <pt x="260" y="278" on="1"/>
        <pt x="62" y="624" on="1"/>
        <pt x="4" y="630" on="1"/>
        <pt x="-1" y="681" on="0"/>
        <pt x="36" y="681" on="1"/>
        <pt x="240" y="681" on="1"/>
        <pt x="240" y="674" on="1"/>
        <pt x="240" y="651" on="0"/>
        <pt x="234" y="644" on="1"/>
        <pt x="221" y="629" on="0"/>
        <pt x="205" y="629" on="1"/>
        <pt x="164" y="626" on="1"/>
        <pt x="163" y="626" on="1"/>
        <pt x="322" y="342" on="1"/>
        <pt x="475" y="624" on="1"/>
        <pt x="402" y="630" on="1"/>
        <pt x="397" y="681" on="0"/>
      </contour>
    </TTGlyph>
    <TTGlyph name="Yacute" xMin="4" yMin="0" xMax="601" yMax="893">
      <contour>
        <pt x="434" y="681" on="1"/>
        <pt x="601" y="681" on="1"/>
        <pt x="601" y="672" on="1"/>
        <pt x="601" y="632" on="0"/>
        <pt x="566" y="629" on="1"/>
        <pt x="544" y="626" on="1"/>
        <pt x="349" y="280" on="1"/>
        <pt x="349" y="56" on="1"/>
        <pt x="422" y="50" on="1"/>
        <pt x="427" y="0" on="0"/>
        <pt x="389" y="0" on="1"/>
        <pt x="184" y="0" on="1"/>
        <pt x="184" y="8" on="1"/>
        <pt x="184" y="49" on="0"/>
        <pt x="219" y="52" on="1"/>
        <pt x="260" y="54" on="1"/>
        <pt x="260" y="278" on="1"/>
        <pt x="62" y="624" on="1"/>
        <pt x="4" y="630" on="1"/>
        <pt x="-1" y="681" on="0"/>
        <pt x="36" y="681" on="1"/>
        <pt x="240" y="681" on="1"/>
        <pt x="240" y="674" on="1"/>
        <pt x="240" y="651" on="0"/>
        <pt x="234" y="644" on="1"/>
        <pt x="221" y="629" on="0"/>
        <pt x="205" y="629" on="1"/>
        <pt x="164" y="626" on="1"/>
        <pt x="163" y="626" on="1"/>
        <pt x="322" y="342" on="1"/>
        <pt x="475" y="624" on="1"/>
        <pt x="402" y="630" on="1"/>
        <pt x="397" y="681" on="0"/>
      </contour>
      <contour>
        <pt x="468" y="838" on="1"/>
        <pt x="267" y="730" on="1"/>
        <pt x="245" y="742" on="0"/>
        <pt x="234" y="763" on="1"/>
        <pt x="399" y="893" on="1"/>
        <pt x="419" y="890" on="0"/>
        <pt x="459" y="856" on="0"/>
      </contour>
    </TTGlyph>
    <TTGlyph name="Ycircumflex" xMin="4" yMin="0" xMax="601" yMax="875">
      <contour>
        <pt x="434" y="681" on="1"/>
        <pt x="601" y="681" on="1"/>
        <pt x="601" y="672" on="1"/>
        <pt x="601" y="632" on="0"/>
        <pt x="566" y="629" on="1"/>
        <pt x="544" y="626" on="1"/>
        <pt x="349" y="280" on="1"/>
        <pt x="349" y="56" on="1"/>
        <pt x="422" y="50" on="1"/>
        <pt x="427" y="0" on="0"/>
        <pt x="389" y="0" on="1"/>
        <pt x="184" y="0" on="1"/>
        <pt x="184" y="8" on="1"/>
        <pt x="184" y="49" on="0"/>
        <pt x="219" y="52" on="1"/>
        <pt x="260" y="54" on="1"/>
        <pt x="260" y="278" on="1"/>
        <pt x="62" y="624" on="1"/>
        <pt x="4" y="630" on="1"/>
        <pt x="-1" y="681" on="0"/>
        <pt x="36" y="681" on="1"/>
        <pt x="240" y="681" on="1"/>
        <pt x="240" y="674" on="1"/>
        <pt x="240" y="651" on="0"/>
        <pt x="234" y="644" on="1"/>
        <pt x="221" y="629" on="0"/>
        <pt x="205" y="629" on="1"/>
        <pt x="164" y="626" on="1"/>
        <pt x="163" y="626" on="1"/>
        <pt x="322" y="342" on="1"/>
        <pt x="475" y="624" on="1"/>
        <pt x="402" y="630" on="1"/>
        <pt x="397" y="681" on="0"/>
      </contour>
      <contour>
        <pt x="314" y="808" on="1"/>
        <pt x="178" y="721" on="1"/>
        <pt x="160" y="731" on="0"/>
        <pt x="148" y="752" on="1"/>
        <pt x="282" y="875" on="1"/>
        <pt x="316" y="882" on="0"/>
        <pt x="348" y="875" on="1"/>
        <pt x="480" y="752" on="1"/>
        <pt x="466" y="729" on="0"/>
        <pt x="449" y="721" on="1"/>
      </contour>
    </TTGlyph>
    <TTGlyph name="Ydieresis" xMin="4" yMin="0" xMax="601" yMax="866">
      <contour>
        <pt x="434" y="681" on="1"/>
        <pt x="601" y="681" on="1"/>
        <pt x="601" y="672" on="1"/>
        <pt x="601" y="632" on="0"/>
        <pt x="566" y="629" on="1"/>
        <pt x="544" y="626" on="1"/>
        <pt x="349" y="280" on="1"/>
        <pt x="349" y="56" on="1"/>
        <pt x="422" y="50" on="1"/>
        <pt x="427" y="0" on="0"/>
        <pt x="389" y="0" on="1"/>
        <pt x="184" y="0" on="1"/>
        <pt x="184" y="8" on="1"/>
        <pt x="184" y="49" on="0"/>
        <pt x="219" y="52" on="1"/>
        <pt x="260" y="54" on="1"/>
        <pt x="260" y="278" on="1"/>
        <pt x="62" y="624" on="1"/>
        <pt x="4" y="630" on="1"/>
        <pt x="-1" y="681" on="0"/>
        <pt x="36" y="681" on="1"/>
        <pt x="240" y="681" on="1"/>
        <pt x="240" y="674" on="1"/>
        <pt x="240" y="651" on="0"/>
        <pt x="234" y="644" on="1"/>
        <pt x="221" y="629" on="0"/>
        <pt x="205" y="629" on="1"/>
        <pt x="164" y="626" on="1"/>
        <pt x="163" y="626" on="1"/>
        <pt x="322" y="342" on="1"/>
        <pt x="475" y="624" on="1"/>
        <pt x="402" y="630" on="1"/>
        <pt x="397" y="681" on="0"/>
      </contour>
      <contour>
        <pt x="283" y="785" on="0"/>
        <pt x="250" y="752" on="0"/>
        <pt x="202" y="752" on="0"/>
        <pt x="169" y="785" on="0"/>
        <pt x="169" y="832" on="0"/>
        <pt x="202" y="866" on="0"/>
        <pt x="250" y="866" on="0"/>
        <pt x="283" y="832" on="0"/>
      </contour>
      <contour>
        <pt x="456" y="785" on="0"/>
        <pt x="423" y="752" on="0"/>
        <pt x="375" y="752" on="0"/>
        <pt x="341" y="785" on="0"/>
        <pt x="341" y="832" on="0"/>
        <pt x="375" y="866" on="0"/>
        <pt x="422" y="866" on="0"/>
        <pt x="456" y="832" on="0"/>
      </contour>
    </TTGlyph>
    <TTGlyph name="Ygrave" xMin="4" yMin="0" xMax="601" yMax="887">
      <contour>
        <pt x="434" y="681" on="1"/>
        <pt x="601" y="681" on="1"/>
        <pt x="601" y="672" on="1"/>
        <pt x="601" y="632" on="0"/>
        <pt x="566" y="629" on="1"/>
        <pt x="544" y="626" on="1"/>
        <pt x="349" y="280" on="1"/>
        <pt x="349" y="56" on="1"/>
        <pt x="422" y="50" on="1"/>
        <pt x="427" y="0" on="0"/>
        <pt x="389" y="0" on="1"/>
        <pt x="184" y="0" on="1"/>
        <pt x="184" y="8" on="1"/>
        <pt x="184" y="49" on="0"/>
        <pt x="219" y="52" on="1"/>
        <pt x="260" y="54" on="1"/>
        <pt x="260" y="278" on="1"/>
        <pt x="62" y="624" on="1"/>
        <pt x="4" y="630" on="1"/>
        <pt x="-1" y="681" on="0"/>
        <pt x="36" y="681" on="1"/>
        <pt x="240" y="681" on="1"/>
        <pt x="240" y="674" on="1"/>
        <pt x="240" y="651" on="0"/>
        <pt x="234" y="644" on="1"/>
        <pt x="221" y="629" on="0"/>
        <pt x="205" y="629" on="1"/>
        <pt x="164" y="626" on="1"/>
        <pt x="163" y="626" on="1"/>
        <pt x="322" y="342" on="1"/>
        <pt x="475" y="624" on="1"/>
        <pt x="402" y="630" on="1"/>
        <pt x="397" y="681" on="0"/>
      </contour>
      <contour>
        <pt x="246" y="887" on="1"/>
        <pt x="411" y="758" on="1"/>
        <pt x="400" y="736" on="0"/>
        <pt x="378" y="725" on="1"/>
        <pt x="177" y="833" on="1"/>
        <pt x="186" y="851" on="0"/>
        <pt x="227" y="885" on="0"/>
      </contour>
    </TTGlyph>
    <TTGlyph name="Z" xMin="19" yMin="0" xMax="520" yMax="685">
      <contour>
        <pt x="519" y="0" on="1"/>
        <pt x="33" y="0" on="1"/>
        <pt x="23" y="19" on="0"/>
        <pt x="19" y="35" on="1"/>
        <pt x="402" y="626" on="1"/>
        <pt x="133" y="617" on="1"/>
        <pt x="122" y="530" on="1"/>
        <pt x="119" y="502" on="0"/>
        <pt x="86" y="484" on="0"/>
        <pt x="66" y="488" on="1"/>
        <pt x="66" y="685" on="1"/>
        <pt x="503" y="685" on="1"/>
        <pt x="517" y="671" on="0"/>
        <pt x="520" y="652" on="1"/>
        <pt x="137" y="56" on="1"/>
        <pt x="451" y="69" on="1"/>
        <pt x="464" y="161" on="1"/>
        <pt x="470" y="210" on="0"/>
        <pt x="519" y="202" on="1"/>
      </contour>
    </TTGlyph>
    <TTGlyph name="Zacute" xMin="19" yMin="0" xMax="520" yMax="893">
      <contour>
        <pt x="519" y="0" on="1"/>
        <pt x="33" y="0" on="1"/>
        <pt x="23" y="19" on="0"/>
        <pt x="19" y="35" on="1"/>
        <pt x="402" y="626" on="1"/>
        <pt x="133" y="617" on="1"/>
        <pt x="122" y="530" on="1"/>
        <pt x="119" y="502" on="0"/>
        <pt x="86" y="484" on="0"/>
        <pt x="66" y="488" on="1"/>
        <pt x="66" y="685" on="1"/>
        <pt x="503" y="685" on="1"/>
        <pt x="517" y="671" on="0"/>
        <pt x="520" y="652" on="1"/>
        <pt x="137" y="56" on="1"/>
        <pt x="451" y="69" on="1"/>
        <pt x="464" y="161" on="1"/>
        <pt x="470" y="210" on="0"/>
        <pt x="519" y="202" on="1"/>
      </contour>
      <contour>
        <pt x="450" y="838" on="1"/>
        <pt x="249" y="730" on="1"/>
        <pt x="227" y="742" on="0"/>
        <pt x="216" y="763" on="1"/>
        <pt x="381" y="893" on="1"/>
        <pt x="401" y="890" on="0"/>
        <pt x="441" y="856" on="0"/>
      </contour>
    </TTGlyph>
    <TTGlyph name="Zcaron" xMin="19" yMin="0" xMax="520" yMax="891">
      <contour>
        <pt x="519" y="0" on="1"/>
        <pt x="33" y="0" on="1"/>
        <pt x="23" y="19" on="0"/>
        <pt x="19" y="35" on="1"/>
        <pt x="402" y="626" on="1"/>
        <pt x="133" y="617" on="1"/>
        <pt x="122" y="530" on="1"/>
        <pt x="119" y="502" on="0"/>
        <pt x="86" y="484" on="0"/>
        <pt x="66" y="488" on="1"/>
        <pt x="66" y="685" on="1"/>
        <pt x="503" y="685" on="1"/>
        <pt x="517" y="671" on="0"/>
        <pt x="520" y="652" on="1"/>
        <pt x="137" y="56" on="1"/>
        <pt x="451" y="69" on="1"/>
        <pt x="464" y="161" on="1"/>
        <pt x="470" y="210" on="0"/>
        <pt x="519" y="202" on="1"/>
      </contour>
      <contour>
        <pt x="461" y="860" on="1"/>
        <pt x="329" y="737" on="1"/>
        <pt x="297" y="730" on="0"/>
        <pt x="263" y="737" on="1"/>
        <pt x="129" y="860" on="1"/>
        <pt x="141" y="881" on="0"/>
        <pt x="159" y="891" on="1"/>
        <pt x="295" y="804" on="1"/>
        <pt x="430" y="891" on="1"/>
        <pt x="447" y="883" on="0"/>
      </contour>
    </TTGlyph>
    <TTGlyph name="Zdotaccent" xMin="19" yMin="0" xMax="520" yMax="888">
      <contour>
        <pt x="519" y="0" on="1"/>
        <pt x="33" y="0" on="1"/>
        <pt x="23" y="19" on="0"/>
        <pt x="19" y="35" on="1"/>
        <pt x="402" y="626" on="1"/>
        <pt x="133" y="617" on="1"/>
        <pt x="122" y="530" on="1"/>
        <pt x="119" y="502" on="0"/>
        <pt x="86" y="484" on="0"/>
        <pt x="66" y="488" on="1"/>
        <pt x="66" y="685" on="1"/>
        <pt x="503" y="685" on="1"/>
        <pt x="517" y="671" on="0"/>
        <pt x="520" y="652" on="1"/>
        <pt x="137" y="56" on="1"/>
        <pt x="451" y="69" on="1"/>
        <pt x="464" y="161" on="1"/>
        <pt x="470" y="210" on="0"/>
        <pt x="519" y="202" on="1"/>
      </contour>
      <contour>
        <pt x="323" y="775" on="0"/>
        <pt x="273" y="775" on="0"/>
        <pt x="241" y="806" on="0"/>
        <pt x="241" y="856" on="0"/>
        <pt x="273" y="888" on="0"/>
        <pt x="323" y="888" on="0"/>
        <pt x="354" y="856" on="0"/>
        <pt x="354" y="806" on="0"/>
      </contour>
    </TTGlyph>
    <TTGlyph name="a" xMin="41" yMin="-16" xMax="492" yMax="509">
      <contour>
        <pt x="492" y="35" on="1"/>
        <pt x="492" y="-16" on="0"/>
        <pt x="359" y="-16" on="0"/>
        <pt x="345" y="43" on="1"/>
        <pt x="280" y="-15" on="0"/>
        <pt x="123" y="-15" on="0"/>
        <pt x="41" y="57" on="0"/>
        <pt x="41" y="181" on="0"/>
        <pt x="134" y="265" on="0"/>
        <pt x="241" y="265" on="1"/>
        <pt x="295" y="265" on="0"/>
        <pt x="341" y="254" on="1"/>
        <pt x="341" y="323" on="1"/>
        <pt x="341" y="449" on="0"/>
        <pt x="235" y="449" on="1"/>
        <pt x="187" y="449" on="0"/>
        <pt x="140" y="392" on="0"/>
        <pt x="138" y="353" on="1"/>
        <pt x="109" y="350" on="0"/>
        <pt x="71" y="376" on="0"/>
        <pt x="71" y="406" on="1"/>
        <pt x="71" y="450" on="0"/>
        <pt x="162" y="509" on="0"/>
        <pt x="235" y="509" on="1"/>
        <pt x="292" y="509" on="0"/>
        <pt x="364" y="475" on="0"/>
        <pt x="383" y="456" on="1"/>
        <pt x="426" y="411" on="0"/>
        <pt x="426" y="328" on="1"/>
        <pt x="426" y="43" on="1"/>
      </contour>
      <contour>
        <pt x="341" y="190" on="1"/>
        <pt x="297" y="211" on="0"/>
        <pt x="189" y="211" on="0"/>
        <pt x="133" y="168" on="0"/>
        <pt x="133" y="91" on="0"/>
        <pt x="179" y="48" on="0"/>
        <pt x="221" y="48" on="1"/>
        <pt x="287" y="48" on="0"/>
        <pt x="341" y="94" on="1"/>
      </contour>
    </TTGlyph>
    <TTGlyph name="aacute" xMin="41" yMin="-16" xMax="492" yMax="701">
      <contour>
        <pt x="492" y="35" on="1"/>
        <pt x="492" y="-16" on="0"/>
        <pt x="359" y="-16" on="0"/>
        <pt x="345" y="43" on="1"/>
        <pt x="280" y="-15" on="0"/>
        <pt x="123" y="-15" on="0"/>
        <pt x="41" y="57" on="0"/>
        <pt x="41" y="181" on="0"/>
        <pt x="134" y="265" on="0"/>
        <pt x="241" y="265" on="1"/>
        <pt x="295" y="265" on="0"/>
        <pt x="341" y="254" on="1"/>
        <pt x="341" y="323" on="1"/>
        <pt x="341" y="449" on="0"/>
        <pt x="235" y="449" on="1"/>
        <pt x="187" y="449" on="0"/>
        <pt x="140" y="392" on="0"/>
        <pt x="138" y="353" on="1"/>
        <pt x="109" y="350" on="0"/>
        <pt x="71" y="376" on="0"/>
        <pt x="71" y="406" on="1"/>
        <pt x="71" y="450" on="0"/>
        <pt x="162" y="509" on="0"/>
        <pt x="235" y="509" on="1"/>
        <pt x="292" y="509" on="0"/>
        <pt x="364" y="475" on="0"/>
        <pt x="383" y="456" on="1"/>
        <pt x="426" y="411" on="0"/>
        <pt x="426" y="328" on="1"/>
        <pt x="426" y="43" on="1"/>
      </contour>
      <contour>
        <pt x="341" y="190" on="1"/>
        <pt x="297" y="211" on="0"/>
        <pt x="189" y="211" on="0"/>
        <pt x="133" y="168" on="0"/>
        <pt x="133" y="91" on="0"/>
        <pt x="179" y="48" on="0"/>
        <pt x="221" y="48" on="1"/>
        <pt x="287" y="48" on="0"/>
        <pt x="341" y="94" on="1"/>
      </contour>
      <contour>
        <pt x="391" y="647" on="1"/>
        <pt x="190" y="539" on="1"/>
        <pt x="168" y="550" on="0"/>
        <pt x="157" y="572" on="1"/>
        <pt x="322" y="701" on="1"/>
        <pt x="341" y="699" on="0"/>
        <pt x="382" y="665" on="0"/>
      </contour>
    </TTGlyph>
    <TTGlyph name="abreve" xMin="41" yMin="-16" xMax="492" yMax="693">
      <contour>
        <pt x="492" y="35" on="1"/>
        <pt x="492" y="-16" on="0"/>
        <pt x="359" y="-16" on="0"/>
        <pt x="345" y="43" on="1"/>
        <pt x="280" y="-15" on="0"/>
        <pt x="123" y="-15" on="0"/>
        <pt x="41" y="57" on="0"/>
        <pt x="41" y="181" on="0"/>
        <pt x="134" y="265" on="0"/>
        <pt x="241" y="265" on="1"/>
        <pt x="295" y="265" on="0"/>
        <pt x="341" y="254" on="1"/>
        <pt x="341" y="323" on="1"/>
        <pt x="341" y="449" on="0"/>
        <pt x="235" y="449" on="1"/>
        <pt x="187" y="449" on="0"/>
        <pt x="140" y="392" on="0"/>
        <pt x="138" y="353" on="1"/>
        <pt x="109" y="350" on="0"/>
        <pt x="71" y="376" on="0"/>
        <pt x="71" y="406" on="1"/>
        <pt x="71" y="450" on="0"/>
        <pt x="162" y="509" on="0"/>
        <pt x="235" y="509" on="1"/>
        <pt x="292" y="509" on="0"/>
        <pt x="364" y="475" on="0"/>
        <pt x="383" y="456" on="1"/>
        <pt x="426" y="411" on="0"/>
        <pt x="426" y="328" on="1"/>
        <pt x="426" y="43" on="1"/>
      </contour>
      <contour>
        <pt x="341" y="190" on="1"/>
        <pt x="297" y="211" on="0"/>
        <pt x="189" y="211" on="0"/>
        <pt x="133" y="168" on="0"/>
        <pt x="133" y="91" on="0"/>
        <pt x="179" y="48" on="0"/>
        <pt x="221" y="48" on="1"/>
        <pt x="287" y="48" on="0"/>
        <pt x="341" y="94" on="1"/>
      </contour>
      <contour>
        <pt x="388" y="623" on="0"/>
        <pt x="307" y="542" on="0"/>
        <pt x="168" y="542" on="0"/>
        <pt x="88" y="622" on="0"/>
        <pt x="80" y="676" on="1"/>
        <pt x="114" y="693" on="1"/>
        <pt x="126" y="663" on="0"/>
        <pt x="188" y="613" on="0"/>
        <pt x="239" y="613" on="1"/>
        <pt x="331" y="613" on="0"/>
        <pt x="361" y="692" on="1"/>
        <pt x="396" y="676" on="1"/>
      </contour>
    </TTGlyph>
    <TTGlyph name="acircumflex" xMin="41" yMin="-16" xMax="492" yMax="689">
      <contour>
        <pt x="492" y="35" on="1"/>
        <pt x="492" y="-16" on="0"/>
        <pt x="359" y="-16" on="0"/>
        <pt x="345" y="43" on="1"/>
        <pt x="280" y="-15" on="0"/>
        <pt x="123" y="-15" on="0"/>
        <pt x="41" y="57" on="0"/>
        <pt x="41" y="181" on="0"/>
        <pt x="134" y="265" on="0"/>
        <pt x="241" y="265" on="1"/>
        <pt x="295" y="265" on="0"/>
        <pt x="341" y="254" on="1"/>
        <pt x="341" y="323" on="1"/>
        <pt x="341" y="449" on="0"/>
        <pt x="235" y="449" on="1"/>
        <pt x="187" y="449" on="0"/>
        <pt x="140" y="392" on="0"/>
        <pt x="138" y="353" on="1"/>
        <pt x="109" y="350" on="0"/>
        <pt x="71" y="376" on="0"/>
        <pt x="71" y="406" on="1"/>
        <pt x="71" y="450" on="0"/>
        <pt x="162" y="509" on="0"/>
        <pt x="235" y="509" on="1"/>
        <pt x="292" y="509" on="0"/>
        <pt x="364" y="475" on="0"/>
        <pt x="383" y="456" on="1"/>
        <pt x="426" y="411" on="0"/>
        <pt x="426" y="328" on="1"/>
        <pt x="426" y="43" on="1"/>
      </contour>
      <contour>
        <pt x="341" y="190" on="1"/>
        <pt x="297" y="211" on="0"/>
        <pt x="189" y="211" on="0"/>
        <pt x="133" y="168" on="0"/>
        <pt x="133" y="91" on="0"/>
        <pt x="179" y="48" on="0"/>
        <pt x="221" y="48" on="1"/>
        <pt x="287" y="48" on="0"/>
        <pt x="341" y="94" on="1"/>
      </contour>
      <contour>
        <pt x="237" y="622" on="1"/>
        <pt x="101" y="535" on="1"/>
        <pt x="83" y="545" on="0"/>
        <pt x="71" y="566" on="1"/>
        <pt x="205" y="689" on="1"/>
        <pt x="240" y="696" on="0"/>
        <pt x="271" y="689" on="1"/>
        <pt x="403" y="566" on="1"/>
        <pt x="389" y="543" on="0"/>
        <pt x="373" y="535" on="1"/>
      </contour>
    </TTGlyph>
    <TTGlyph name="acute" xMin="174" yMin="539" xMax="408" yMax="701">
      <contour>
        <pt x="408" y="647" on="1"/>
        <pt x="207" y="539" on="1"/>
        <pt x="185" y="550" on="0"/>
        <pt x="174" y="572" on="1"/>
        <pt x="339" y="701" on="1"/>
        <pt x="358" y="699" on="0"/>
        <pt x="399" y="665" on="0"/>
      </contour>
    </TTGlyph>
    <TTGlyph name="acute.cap" xMin="174" yMin="545" xMax="408" yMax="707">
      <contour>
        <pt x="408" y="652" on="1"/>
        <pt x="207" y="545" on="1"/>
        <pt x="186" y="554" on="0"/>
        <pt x="174" y="577" on="1"/>
        <pt x="339" y="707" on="1"/>
        <pt x="359" y="704" on="0"/>
        <pt x="399" y="670" on="0"/>
      </contour>
    </TTGlyph>
    <TTGlyph name="adieresis" xMin="41" yMin="-16" xMax="492" yMax="680">
      <contour>
        <pt x="492" y="35" on="1"/>
        <pt x="492" y="-16" on="0"/>
        <pt x="359" y="-16" on="0"/>
        <pt x="345" y="43" on="1"/>
        <pt x="280" y="-15" on="0"/>
        <pt x="123" y="-15" on="0"/>
        <pt x="41" y="57" on="0"/>
        <pt x="41" y="181" on="0"/>
        <pt x="134" y="265" on="0"/>
        <pt x="241" y="265" on="1"/>
        <pt x="295" y="265" on="0"/>
        <pt x="341" y="254" on="1"/>
        <pt x="341" y="323" on="1"/>
        <pt x="341" y="449" on="0"/>
        <pt x="235" y="449" on="1"/>
        <pt x="187" y="449" on="0"/>
        <pt x="140" y="392" on="0"/>
        <pt x="138" y="353" on="1"/>
        <pt x="109" y="350" on="0"/>
        <pt x="71" y="376" on="0"/>
        <pt x="71" y="406" on="1"/>
        <pt x="71" y="450" on="0"/>
        <pt x="162" y="509" on="0"/>
        <pt x="235" y="509" on="1"/>
        <pt x="292" y="509" on="0"/>
        <pt x="364" y="475" on="0"/>
        <pt x="383" y="456" on="1"/>
        <pt x="426" y="411" on="0"/>
        <pt x="426" y="328" on="1"/>
        <pt x="426" y="43" on="1"/>
      </contour>
      <contour>
        <pt x="341" y="190" on="1"/>
        <pt x="297" y="211" on="0"/>
        <pt x="189" y="211" on="0"/>
        <pt x="133" y="168" on="0"/>
        <pt x="133" y="91" on="0"/>
        <pt x="179" y="48" on="0"/>
        <pt x="221" y="48" on="1"/>
        <pt x="287" y="48" on="0"/>
        <pt x="341" y="94" on="1"/>
      </contour>
      <contour>
        <pt x="206" y="600" on="0"/>
        <pt x="173" y="566" on="0"/>
        <pt x="125" y="566" on="0"/>
        <pt x="91" y="600" on="0"/>
        <pt x="91" y="646" on="0"/>
        <pt x="125" y="680" on="0"/>
        <pt x="173" y="680" on="0"/>
        <pt x="206" y="646" on="0"/>
      </contour>
      <contour>
        <pt x="379" y="599" on="0"/>
        <pt x="345" y="566" on="0"/>
        <pt x="297" y="566" on="0"/>
        <pt x="264" y="600" on="0"/>
        <pt x="264" y="646" on="0"/>
        <pt x="297" y="680" on="0"/>
        <pt x="345" y="680" on="0"/>
        <pt x="379" y="647" on="0"/>
      </contour>
    </TTGlyph>
    <TTGlyph name="ae" xMin="41" yMin="-15" xMax="744" yMax="509">
      <contour>
        <pt x="658" y="377" on="0"/>
        <pt x="608" y="450" on="0"/>
        <pt x="514" y="450" on="0"/>
        <pt x="450" y="376" on="0"/>
        <pt x="439" y="310" on="1"/>
        <pt x="658" y="310" on="1"/>
      </contour>
      <contour>
        <pt x="341" y="189" on="1"/>
        <pt x="297" y="211" on="0"/>
        <pt x="189" y="211" on="0"/>
        <pt x="133" y="169" on="0"/>
        <pt x="133" y="90" on="0"/>
        <pt x="180" y="48" on="0"/>
        <pt x="222" y="48" on="1"/>
        <pt x="286" y="48" on="0"/>
        <pt x="341" y="94" on="1"/>
      </contour>
      <contour>
        <pt x="433" y="258" on="1"/>
        <pt x="432" y="231" on="1"/>
        <pt x="432" y="52" on="0"/>
        <pt x="579" y="52" on="1"/>
        <pt x="654" y="52" on="0"/>
        <pt x="719" y="105" on="1"/>
        <pt x="734" y="95" on="0"/>
        <pt x="734" y="75" on="1"/>
        <pt x="734" y="45" on="0"/>
        <pt x="625" y="-15" on="0"/>
        <pt x="552" y="-15" on="1"/>
        <pt x="437" y="-15" on="0"/>
        <pt x="382" y="69" on="1"/>
        <pt x="306" y="-15" on="0"/>
        <pt x="194" y="-15" on="1"/>
        <pt x="124" y="-15" on="0"/>
        <pt x="41" y="57" on="0"/>
        <pt x="41" y="182" on="0"/>
        <pt x="134" y="265" on="0"/>
        <pt x="241" y="265" on="1"/>
        <pt x="297" y="265" on="0"/>
        <pt x="341" y="254" on="1"/>
        <pt x="341" y="323" on="1"/>
        <pt x="341" y="382" on="0"/>
        <pt x="288" y="449" on="0"/>
        <pt x="185" y="449" on="0"/>
        <pt x="139" y="390" on="0"/>
        <pt x="138" y="353" on="1"/>
        <pt x="110" y="350" on="0"/>
        <pt x="71" y="376" on="0"/>
        <pt x="71" y="405" on="1"/>
        <pt x="71" y="450" on="0"/>
        <pt x="162" y="509" on="0"/>
        <pt x="235" y="509" on="1"/>
        <pt x="273" y="509" on="0"/>
        <pt x="310" y="498" on="1"/>
        <pt x="379" y="477" on="0"/>
        <pt x="401" y="425" on="1"/>
        <pt x="467" y="509" on="0"/>
        <pt x="572" y="509" on="1"/>
        <pt x="662" y="509" on="0"/>
        <pt x="745" y="392" on="0"/>
        <pt x="744" y="309" on="1"/>
        <pt x="744" y="258" on="1"/>
      </contour>
    </TTGlyph>
    <TTGlyph name="agrave" xMin="41" yMin="-16" xMax="492" yMax="701">
      <contour>
        <pt x="492" y="35" on="1"/>
        <pt x="492" y="-16" on="0"/>
        <pt x="359" y="-16" on="0"/>
        <pt x="345" y="43" on="1"/>
        <pt x="280" y="-15" on="0"/>
        <pt x="123" y="-15" on="0"/>
        <pt x="41" y="57" on="0"/>
        <pt x="41" y="181" on="0"/>
        <pt x="134" y="265" on="0"/>
        <pt x="241" y="265" on="1"/>
        <pt x="295" y="265" on="0"/>
        <pt x="341" y="254" on="1"/>
        <pt x="341" y="323" on="1"/>
        <pt x="341" y="449" on="0"/>
        <pt x="235" y="449" on="1"/>
        <pt x="187" y="449" on="0"/>
        <pt x="140" y="392" on="0"/>
        <pt x="138" y="353" on="1"/>
        <pt x="109" y="350" on="0"/>
        <pt x="71" y="376" on="0"/>
        <pt x="71" y="406" on="1"/>
        <pt x="71" y="450" on="0"/>
        <pt x="162" y="509" on="0"/>
        <pt x="235" y="509" on="1"/>
        <pt x="292" y="509" on="0"/>
        <pt x="364" y="475" on="0"/>
        <pt x="383" y="456" on="1"/>
        <pt x="426" y="411" on="0"/>
        <pt x="426" y="328" on="1"/>
        <pt x="426" y="43" on="1"/>
      </contour>
      <contour>
        <pt x="341" y="190" on="1"/>
        <pt x="297" y="211" on="0"/>
        <pt x="189" y="211" on="0"/>
        <pt x="133" y="168" on="0"/>
        <pt x="133" y="91" on="0"/>
        <pt x="179" y="48" on="0"/>
        <pt x="221" y="48" on="1"/>
        <pt x="287" y="48" on="0"/>
        <pt x="341" y="94" on="1"/>
      </contour>
      <contour>
        <pt x="168" y="701" on="1"/>
        <pt x="333" y="572" on="1"/>
        <pt x="322" y="550" on="0"/>
        <pt x="300" y="539" on="1"/>
        <pt x="99" y="647" on="1"/>
        <pt x="108" y="665" on="0"/>
        <pt x="149" y="699" on="0"/>
      </contour>
    </TTGlyph>
    <TTGlyph name="amacron" xMin="41" yMin="-16" xMax="492" yMax="638">
      <contour>
        <pt x="492" y="35" on="1"/>
        <pt x="492" y="-16" on="0"/>
        <pt x="359" y="-16" on="0"/>
        <pt x="345" y="43" on="1"/>
        <pt x="280" y="-15" on="0"/>
        <pt x="123" y="-15" on="0"/>
        <pt x="41" y="57" on="0"/>
        <pt x="41" y="181" on="0"/>
        <pt x="134" y="265" on="0"/>
        <pt x="241" y="265" on="1"/>
        <pt x="295" y="265" on="0"/>
        <pt x="341" y="254" on="1"/>
        <pt x="341" y="323" on="1"/>
        <pt x="341" y="449" on="0"/>
        <pt x="235" y="449" on="1"/>
        <pt x="187" y="449" on="0"/>
        <pt x="140" y="392" on="0"/>
        <pt x="138" y="353" on="1"/>
        <pt x="109" y="350" on="0"/>
        <pt x="71" y="376" on="0"/>
        <pt x="71" y="406" on="1"/>
        <pt x="71" y="450" on="0"/>
        <pt x="162" y="509" on="0"/>
        <pt x="235" y="509" on="1"/>
        <pt x="292" y="509" on="0"/>
        <pt x="364" y="475" on="0"/>
        <pt x="383" y="456" on="1"/>
        <pt x="426" y="411" on="0"/>
        <pt x="426" y="328" on="1"/>
        <pt x="426" y="43" on="1"/>
      </contour>
      <contour>
        <pt x="341" y="190" on="1"/>
        <pt x="297" y="211" on="0"/>
        <pt x="189" y="211" on="0"/>
        <pt x="133" y="168" on="0"/>
        <pt x="133" y="91" on="0"/>
        <pt x="179" y="48" on="0"/>
        <pt x="221" y="48" on="1"/>
        <pt x="287" y="48" on="0"/>
        <pt x="341" y="94" on="1"/>
      </contour>
      <contour>
        <pt x="373" y="638" on="1"/>
        <pt x="373" y="578" on="1"/>
        <pt x="100" y="578" on="1"/>
        <pt x="100" y="638" on="1"/>
      </contour>
    </TTGlyph>
    <TTGlyph name="ampersand" xMin="38" yMin="-18" xMax="717" yMax="675">
      <contour>
        <pt x="512" y="115" on="1"/>
        <pt x="595" y="55" on="0"/>
        <pt x="684" y="55" on="0"/>
        <pt x="703" y="83" on="1"/>
        <pt x="717" y="71" on="0"/>
        <pt x="717" y="23" on="0"/>
        <pt x="676" y="-17" on="0"/>
        <pt x="637" y="-17" on="1"/>
        <pt x="567" y="-17" on="0"/>
        <pt x="461" y="59" on="1"/>
        <pt x="372" y="-18" on="0"/>
        <pt x="250" y="-18" on="1"/>
        <pt x="147" y="-18" on="0"/>
        <pt x="38" y="79" on="0"/>
        <pt x="38" y="155" on="1"/>
        <pt x="38" y="209" on="0"/>
        <pt x="101" y="312" on="0"/>
        <pt x="169" y="349" on="1"/>
        <pt x="96" y="445" on="0"/>
        <pt x="96" y="588" on="0"/>
        <pt x="187" y="675" on="0"/>
        <pt x="327" y="675" on="0"/>
        <pt x="417" y="601" on="0"/>
        <pt x="417" y="469" on="0"/>
        <pt x="332" y="367" on="0"/>
        <pt x="272" y="345" on="1"/>
        <pt x="286" y="329" on="0"/>
        <pt x="294" y="320" on="1"/>
        <pt x="379" y="222" on="0"/>
        <pt x="467" y="150" on="1"/>
        <pt x="505" y="205" on="0"/>
        <pt x="524" y="280" on="1"/>
        <pt x="463" y="286" on="1"/>
        <pt x="458" y="333" on="0"/>
        <pt x="494" y="333" on="1"/>
        <pt x="649" y="333" on="1"/>
        <pt x="648" y="330" on="0"/>
        <pt x="650" y="319" on="0"/>
        <pt x="647" y="306" on="0"/>
        <pt x="644" y="300" on="1"/>
        <pt x="639" y="287" on="0"/>
        <pt x="617" y="285" on="1"/>
        <pt x="585" y="283" on="1"/>
        <pt x="562" y="186" on="0"/>
      </contour>
      <contour>
        <pt x="341" y="580" on="0"/>
        <pt x="292" y="623" on="0"/>
        <pt x="221" y="623" on="0"/>
        <pt x="173" y="571" on="0"/>
        <pt x="173" y="531" on="1"/>
        <pt x="173" y="474" on="0"/>
        <pt x="244" y="381" on="1"/>
        <pt x="293" y="404" on="0"/>
        <pt x="341" y="489" on="0"/>
      </contour>
      <contour>
        <pt x="122" y="116" on="0"/>
        <pt x="196" y="44" on="0"/>
        <pt x="350" y="44" on="0"/>
        <pt x="414" y="95" on="1"/>
        <pt x="335" y="160" on="0"/>
        <pt x="241" y="263" on="1"/>
        <pt x="219" y="286" on="0"/>
        <pt x="201" y="309" on="1"/>
        <pt x="122" y="254" on="0"/>
        <pt x="122" y="171" on="1"/>
      </contour>
    </TTGlyph>
    <TTGlyph name="aogonek" xMin="41" yMin="-179" xMax="508" yMax="509">
      <contour>
        <pt x="398" y="-85" on="1"/>
        <pt x="398" y="-133" on="0"/>
        <pt x="446" y="-133" on="1"/>
        <pt x="474" y="-133" on="0"/>
        <pt x="501" y="-111" on="1"/>
        <pt x="505" y="-114" on="0"/>
        <pt x="510" y="-138" on="0"/>
        <pt x="508" y="-145" on="1"/>
        <pt x="484" y="-179" on="0"/>
        <pt x="425" y="-179" on="1"/>
        <pt x="385" y="-179" on="0"/>
        <pt x="334" y="-136" on="0"/>
        <pt x="334" y="-101" on="1"/>
        <pt x="334" y="-47" on="0"/>
        <pt x="386" y="-9" on="1"/>
        <pt x="353" y="3" on="0"/>
        <pt x="345" y="43" on="1"/>
        <pt x="280" y="-15" on="0"/>
        <pt x="123" y="-15" on="0"/>
        <pt x="41" y="57" on="0"/>
        <pt x="41" y="181" on="0"/>
        <pt x="134" y="265" on="0"/>
        <pt x="241" y="265" on="1"/>
        <pt x="295" y="265" on="0"/>
        <pt x="341" y="254" on="1"/>
        <pt x="341" y="323" on="1"/>
        <pt x="341" y="449" on="0"/>
        <pt x="235" y="449" on="1"/>
        <pt x="187" y="449" on="0"/>
        <pt x="140" y="392" on="0"/>
        <pt x="138" y="353" on="1"/>
        <pt x="109" y="350" on="0"/>
        <pt x="71" y="376" on="0"/>
        <pt x="71" y="406" on="1"/>
        <pt x="71" y="450" on="0"/>
        <pt x="162" y="509" on="0"/>
        <pt x="235" y="509" on="1"/>
        <pt x="292" y="509" on="0"/>
        <pt x="364" y="475" on="0"/>
        <pt x="383" y="456" on="1"/>
        <pt x="426" y="411" on="0"/>
        <pt x="426" y="328" on="1"/>
        <pt x="426" y="43" on="1"/>
        <pt x="492" y="35" on="1"/>
        <pt x="492" y="-9" on="0"/>
        <pt x="440" y="-15" on="1"/>
        <pt x="398" y="-41" on="0"/>
      </contour>
      <contour>
        <pt x="341" y="190" on="1"/>
        <pt x="297" y="211" on="0"/>
        <pt x="189" y="211" on="0"/>
        <pt x="133" y="168" on="0"/>
        <pt x="133" y="91" on="0"/>
        <pt x="179" y="48" on="0"/>
        <pt x="221" y="48" on="1"/>
        <pt x="287" y="48" on="0"/>
        <pt x="341" y="94" on="1"/>
      </contour>
    </TTGlyph>
    <TTGlyph name="approxequal" xMin="79" yMin="224" xMax="442" yMax="363">
      <contour>
        <pt x="442" y="341" on="1"/>
        <pt x="440" y="332" on="1"/>
        <pt x="442" y="331" on="1"/>
        <pt x="420" y="221" on="0"/>
        <pt x="323" y="224" on="1"/>
        <pt x="285" y="226" on="0"/>
        <pt x="196" y="280" on="0"/>
        <pt x="153" y="282" on="0"/>
        <pt x="120" y="255" on="0"/>
        <pt x="112" y="236" on="1"/>
        <pt x="79" y="249" on="1"/>
        <pt x="81" y="258" on="1"/>
        <pt x="79" y="259" on="1"/>
        <pt x="91" y="309" on="0"/>
        <pt x="154" y="364" on="0"/>
        <pt x="227" y="361" on="0"/>
        <pt x="312" y="303" on="0"/>
        <pt x="366" y="301" on="0"/>
        <pt x="403" y="329" on="0"/>
        <pt x="410" y="351" on="1"/>
      </contour>
    </TTGlyph>
    <TTGlyph name="aring" xMin="41" yMin="-16" xMax="492" yMax="721">
      <contour>
        <pt x="492" y="35" on="1"/>
        <pt x="492" y="-16" on="0"/>
        <pt x="359" y="-16" on="0"/>
        <pt x="345" y="43" on="1"/>
        <pt x="280" y="-15" on="0"/>
        <pt x="123" y="-15" on="0"/>
        <pt x="41" y="57" on="0"/>
        <pt x="41" y="181" on="0"/>
        <pt x="134" y="265" on="0"/>
        <pt x="241" y="265" on="1"/>
        <pt x="295" y="265" on="0"/>
        <pt x="341" y="254" on="1"/>
        <pt x="341" y="323" on="1"/>
        <pt x="341" y="449" on="0"/>
        <pt x="235" y="449" on="1"/>
        <pt x="187" y="449" on="0"/>
        <pt x="140" y="392" on="0"/>
        <pt x="138" y="353" on="1"/>
        <pt x="109" y="350" on="0"/>
        <pt x="71" y="376" on="0"/>
        <pt x="71" y="406" on="1"/>
        <pt x="71" y="450" on="0"/>
        <pt x="162" y="509" on="0"/>
        <pt x="235" y="509" on="1"/>
        <pt x="292" y="509" on="0"/>
        <pt x="364" y="475" on="0"/>
        <pt x="383" y="456" on="1"/>
        <pt x="426" y="411" on="0"/>
        <pt x="426" y="328" on="1"/>
        <pt x="426" y="43" on="1"/>
      </contour>
      <contour>
        <pt x="341" y="190" on="1"/>
        <pt x="297" y="211" on="0"/>
        <pt x="189" y="211" on="0"/>
        <pt x="133" y="168" on="0"/>
        <pt x="133" y="91" on="0"/>
        <pt x="179" y="48" on="0"/>
        <pt x="221" y="48" on="1"/>
        <pt x="287" y="48" on="0"/>
        <pt x="341" y="94" on="1"/>
      </contour>
      <contour>
        <pt x="279" y="544" on="0"/>
        <pt x="197" y="544" on="0"/>
        <pt x="148" y="591" on="0"/>
        <pt x="148" y="671" on="0"/>
        <pt x="199" y="721" on="0"/>
        <pt x="283" y="721" on="0"/>
        <pt x="332" y="673" on="0"/>
        <pt x="331" y="594" on="0"/>
      </contour>
      <contour>
        <pt x="260" y="677" on="0"/>
        <pt x="220" y="677" on="0"/>
        <pt x="196" y="653" on="0"/>
        <pt x="196" y="612" on="0"/>
        <pt x="220" y="588" on="0"/>
        <pt x="260" y="588" on="0"/>
        <pt x="284" y="612" on="0"/>
        <pt x="284" y="653" on="0"/>
      </contour>
    </TTGlyph>
    <TTGlyph name="asciicircum" xMin="54" yMin="204" xMax="441" yMax="653">
      <contour>
        <pt x="441" y="204" on="1"/>
        <pt x="364" y="204" on="1"/>
        <pt x="251" y="515" on="1"/>
        <pt x="132" y="204" on="1"/>
        <pt x="54" y="204" on="1"/>
        <pt x="229" y="653" on="1"/>
        <pt x="276" y="653" on="1"/>
      </contour>
    </TTGlyph>
    <TTGlyph name="asciitilde" xMin="100" yMin="226" xMax="463" yMax="355">
      <contour>
        <pt x="133" y="238" on="1"/>
        <pt x="100" y="251" on="1"/>
        <pt x="112" y="301" on="0"/>
        <pt x="175" y="356" on="0"/>
        <pt x="248" y="353" on="0"/>
        <pt x="333" y="295" on="0"/>
        <pt x="387" y="293" on="0"/>
        <pt x="424" y="321" on="0"/>
        <pt x="431" y="343" on="1"/>
        <pt x="463" y="333" on="1"/>
        <pt x="441" y="223" on="0"/>
        <pt x="344" y="226" on="1"/>
        <pt x="306" y="228" on="0"/>
        <pt x="217" y="282" on="0"/>
        <pt x="174" y="284" on="0"/>
        <pt x="141" y="257" on="0"/>
      </contour>
    </TTGlyph>
    <TTGlyph name="asterisk" xMin="60" yMin="355" xMax="432" yMax="718">
      <contour>
        <pt x="266" y="558" on="1"/>
        <pt x="404" y="631" on="1"/>
        <pt x="432" y="591" on="0"/>
        <pt x="432" y="539" on="1"/>
        <pt x="276" y="520" on="1"/>
        <pt x="390" y="411" on="1"/>
        <pt x="378" y="394" on="0"/>
        <pt x="332" y="361" on="0"/>
        <pt x="311" y="355" on="1"/>
        <pt x="246" y="494" on="1"/>
        <pt x="181" y="356" on="1"/>
        <pt x="161" y="361" on="0"/>
        <pt x="114" y="395" on="0"/>
        <pt x="103" y="412" on="1"/>
        <pt x="215" y="519" on="1"/>
        <pt x="60" y="538" on="1"/>
        <pt x="62" y="599" on="0"/>
        <pt x="88" y="631" on="1"/>
        <pt x="226" y="557" on="1"/>
        <pt x="197" y="711" on="1"/>
        <pt x="217" y="718" on="0"/>
        <pt x="274" y="717" on="0"/>
        <pt x="293" y="711" on="1"/>
      </contour>
    </TTGlyph>
    <TTGlyph name="at" xMin="65" yMin="-164" xMax="924" yMax="684">
      <contour>
        <pt x="514" y="-164" on="1"/>
        <pt x="312" y="-164" on="0"/>
        <pt x="65" y="63" on="0"/>
        <pt x="65" y="444" on="0"/>
        <pt x="316" y="684" on="0"/>
        <pt x="521" y="684" on="1"/>
        <pt x="703" y="684" on="0"/>
        <pt x="924" y="508" on="0"/>
        <pt x="924" y="223" on="0"/>
        <pt x="759" y="53" on="0"/>
        <pt x="624" y="53" on="1"/>
        <pt x="590" y="53" on="0"/>
        <pt x="560" y="73" on="0"/>
        <pt x="561" y="102" on="1"/>
        <pt x="494" y="46" on="0"/>
        <pt x="350" y="46" on="0"/>
        <pt x="268" y="148" on="0"/>
        <pt x="292" y="357" on="0"/>
        <pt x="414" y="486" on="0"/>
        <pt x="513" y="486" on="1"/>
        <pt x="567" y="486" on="0"/>
        <pt x="611" y="463" on="1"/>
        <pt x="612" y="473" on="1"/>
        <pt x="692" y="480" on="1"/>
        <pt x="641" y="107" on="1"/>
        <pt x="742" y="105" on="0"/>
        <pt x="865" y="240" on="0"/>
        <pt x="865" y="478" on="0"/>
        <pt x="675" y="631" on="0"/>
        <pt x="520" y="631" on="1"/>
        <pt x="344" y="631" on="0"/>
        <pt x="128" y="423" on="0"/>
        <pt x="128" y="89" on="0"/>
        <pt x="346" y="-111" on="0"/>
        <pt x="524" y="-111" on="1"/>
        <pt x="662" y="-111" on="0"/>
        <pt x="749" y="-54" on="1"/>
        <pt x="761" y="-104" on="1"/>
        <pt x="649" y="-164" on="0"/>
      </contour>
      <contour>
        <pt x="600" y="390" on="1"/>
        <pt x="565" y="429" on="0"/>
        <pt x="443" y="429" on="0"/>
        <pt x="373" y="331" on="0"/>
        <pt x="353" y="197" on="0"/>
        <pt x="397" y="110" on="0"/>
        <pt x="504" y="110" on="0"/>
        <pt x="568" y="159" on="1"/>
      </contour>
    </TTGlyph>
</ttFont>
